<svg version="1.1" id="Layer_1" xmlns="http://www.w3.org/2000/svg" xmlns:xlink="http://www.w3.org/1999/xlink" x="0px" y="0px"
     viewBox="0 0 1080 1080" style="enable-background:new 0 0 1080 1080;" xml:space="preserve">
<style type="text/css">
	.st0{clip-path:url(#SVGID_00000127744681729637735440000010529688992883836041_);}
	.st1{fill:#75441F;}
	.st2{fill:#202526;}
	.st3{fill:#683818;}
	.st4{fill:#FFFAEE;}
	.st5{fill:#071518;}
	.st6{fill:#1D1E1E;}
	.st7{fill:#9A6542;}
	.st8{fill:#F2DDEF;}
	.st9{fill:#E2BCDE;}
	.st10{fill:#66310E;}
	.st11{fill:none;stroke:#E2BCDE;stroke-width:3;stroke-miterlimit:10;}
	.st12{opacity:0.26;fill:#EAEAEA;}
	.st13{fill:none;stroke:#151616;stroke-width:4;stroke-miterlimit:10;}
	.st14{fill:none;stroke:#151616;stroke-width:4;stroke-linecap:round;stroke-miterlimit:10;}
</style>
    <g>
	<g>
		<defs>
			<path id="SVGID_1_" d="M1078.2,737.9c-31.4,165.2-302.3,238.6-533.7,259.5c-209.5,12-229-24.6-354.2-79.8
				C105.2,880-5.2,795.9-21.2,617.7V8.3h1099.4L1078.2,737.9L1078.2,737.9z"/>
		</defs>
        <clipPath id="SVGID_00000123409506581945751180000002918058938359374260_">
			<use xlink:href="#SVGID_1_"  style="overflow:visible;"/>
		</clipPath>
        <g style="clip-path:url(#SVGID_00000123409506581945751180000002918058938359374260_);">
			<g>
				<path class="st1" d="M784.6,712.1c40.3-4.8,46.6,50.5,46.6,63.8c0,13.3,6,75.8-10.6,142.3c-16.6,66.5-51.5,94.4-69.5,55.2
					c-18-39.2,5-110.7-7-154.3C734.4,784.2,711.4,720.7,784.6,712.1z"/>
                <path class="st2" d="M732.9,994.7l-124.4,87.6H490.1l-124.4-99.8c0.8-4.4,1.6-8.8,2.5-13.2c2.2-12,4.5-23.9,6.8-35.9
					c1.3-6.8,2.6-13.6,3.9-20.4c7.9-41.8,15.8-83.7,23.6-125.5h293.7l23.7,125.5l3.8,20.4l6.4,33.8c0,0,0,0,0,0.1L732.9,994.7z"/>
                <path class="st2" d="M369.1,966.3c-2.2,7-3.4,14.3-3.5,21.6c-3.6,127.1,0.6,231.9,5.7,308.1c8.5,127.8,22,211.3,67.8,228.5
					c4.3,1.6,13.3,4.9,23.2,1.9c36.9-11.3,38.9-96.6,43-182.3c3-61.8,33.9-150.9,44.6-261.5c0.5-4.9,1.4-9.8,2.8-14.6
					c15.7-53-26-105.4-62.4-129.4c-30.6-20.2-80.4-23.5-105.2,1.2C376.6,948,371.8,957.7,369.1,966.3z"/>
                <path class="st2" d="M729.8,966.3c2.2,7,3.3,14.3,3.5,21.6c3.5,127.1-0.7,231.9-5.9,308.1c-8.6,127.7-22.1,211.3-67.9,228.4
					c-4.3,1.6-13.3,4.9-23.2,1.8c-37.4-11.4-39-98.9-43-182.4c-3-63.7-31.3-155.6-44.1-270.5c-0.4-3.4-1-6.7-1.9-10
					c-13.7-51,25.2-101.6,61.2-125.1c31-20.3,80.5-23.3,105.2,1.3C722.3,948,727,957.7,729.8,966.3z"/>
                <g>
					<path class="st1" d="M719.2,534c-8.8,36.2-11.5,67.2-12.2,90c-0.8,28.2-1.4,57.8,8.8,94.3c7.9,28.3,19.4,50.2,28.3,64.7l0,0
						c15.6,20.2,43.7,25.6,61.7,17c23-11,25.4-50.8,22.2-94.8c-1.5-20.6-3-23.3-5.3-44.7c-9.2-85.4,5.5-133-16.6-174.5
						c-3.7-7-10.4-19.3-23.8-28.9c-11.1-7.9-24.9-12.9-32.7-15.5c-4.8-1.6-8.9-2.7-11.7-3.4c-9.6-2.4-18-2.5-21.3-2.3
						c-14.9,0.6-37.9,14.7-43.1,35.9C667.5,496.4,686.1,526.9,719.2,534z"/>
				</g>
                <path class="st1" d="M550,460c-29.5,0-53.6-18.6-56-42.1c-0.1-0.7-0.1-1.3-0.2-2c-0.1-1.1-0.1-2.2,0-3.3l0.8-26.8l0.1-3.8
					l1.3-45.1l0.2-5.9l0-0.5h107.5l1.6,53l0.1,2.7l0.8,26.4C607.1,438.5,581.7,460,550,460z"/>
                <path class="st1" d="M470.7,278.3c-11.8,4.4-28.3-9.8-33.6-24.8c-1.1-3.2-1.8-6.7-2.1-10.2c0,0,0,0,0,0
					c-0.9-11.4,2.4-23.3,10.1-26.7c5-2.2,11.7-0.8,18,3.1c8.3,5.1,16,14.3,18.6,24.5C485,256.7,481.2,274.3,470.7,278.3z"/>
                <path class="st3" d="M629.8,392.8c0,0-14.6,16-36.8,34.6c-18.9,17.3-55.1,11.3-73.1,7.1c-10.7-2.5-24.7-13.4-34.3-21.8
					c-6.5-4.2-17.3-10.8-25.5-15.9l13.2-4.2l21.3-6.8l0.1-3.8l1.3-45.1l0.2-5.9c19.2,3.2,96.2,15.8,96.2,15.8s-9.8,16.4-29.2,23.1
					c-1.5,0.5-3,1-4.5,1.3c-2.3,0.6-4.7,1-7.3,1.2c-5,0.5-9.7,0.2-14-0.4c-3.8-0.5-7.2-1.4-10.3-2.2c-10-2.7-15.2-3.3-15.7-2.4
					c-1.6,2.6,12.1,18.7,29.5,24.7c29.4,10.2,59.2-12,64.2-15.9C608.8,380.4,626.2,388.7,629.8,392.8z"/>
                <path class="st3" d="M603.9,334.7c0,0-15.4,32-52.2,32c-40.9,0-53.4-28.5-55.5-35.7C495.2,327.3,603.9,334.7,603.9,334.7z"/>
                <path class="st1" d="M662.1,253.4c-5.2,15.1-21.7,29.3-33.6,24.8c-10.5-4-14.3-21.5-11.1-34.2c2.5-9.7,9.5-18.5,17.3-23.7
					c6.7-4.5,14-6.3,19.4-3.9C664.2,221,666.8,240,662.1,253.4z"/>
                <path class="st1" d="M463.8,237c-1.3-23.4-5-90.6,41.9-118.7c22.7-13.6,53.9-15.9,78.5-3.9c44,21.5,48.4,79.7,50.8,112.2
					c0.3,3.7,3.8,57.4-20.7,94.6c-4.4,6.6-12.5,18.6-27.8,27.5c-11.2,6.4-21.2,8.3-25.2,8.9c0,0-18.1,2.8-37.1-3.8
					C491.1,342.1,466.6,287.4,463.8,237z"/>
                <ellipse class="st4" cx="513.3" cy="231.7" rx="8.8" ry="11.5"/>
                <ellipse class="st5" cx="513.3" cy="234.4" rx="6.7" ry="8.8"/>
                <ellipse class="st4" cx="585.1" cy="231.7" rx="8.8" ry="11.5"/>
                <ellipse class="st5" cx="585.1" cy="234.4" rx="6.7" ry="8.8"/>
                <g>
					<path class="st5" d="M523.3,212.7c-2.6-0.1-4.9-0.2-7.1,0c-1.1,0.1-2.2,0.3-3.2,0.5c-0.5,0.1-1,0.2-1.5,0.4
						c-0.2,0.1-0.5,0.1-0.8,0.2l-0.7,0.3c-2,0.7-3.9,1.7-5.8,2.9c-1.9,1.2-3.7,2.6-5.8,4.3c0.3-2.6,1.5-5.1,3.3-7.1
						c1.8-2,4.1-3.7,6.7-4.6c0.7-0.2,1.3-0.4,2-0.6c0.7-0.1,1.4-0.2,2-0.3c1.4-0.1,2.8,0,4.1,0.3
						C519.1,209.5,521.5,210.8,523.3,212.7z"/>
				</g>
                <g>
					<path class="st5" d="M575.3,212.7c1.8-1.9,4.2-3.2,6.9-3.7c1.3-0.3,2.7-0.4,4.1-0.3c0.7,0.1,1.4,0.2,2,0.3
						c0.7,0.1,1.3,0.3,2,0.6c2.6,0.9,4.9,2.6,6.7,4.6c1.7,2.1,3,4.5,3.3,7.1c-2-1.6-3.9-3.1-5.8-4.3c-1.9-1.2-3.8-2.2-5.8-2.9
						l-0.7-0.3c-0.2-0.1-0.5-0.1-0.8-0.2c-0.5-0.2-1-0.3-1.5-0.4c-1-0.2-2.1-0.4-3.2-0.5C580.3,212.5,578,212.6,575.3,212.7z"/>
				</g>
                <g>
					<path class="st3" d="M538.3,273.2c1.9,1,3.8,1.8,5.6,2.2s3.8,0.7,5.6,0.6s3.7-0.5,5.5-1.2c1.8-0.7,3.6-1.7,5.3-2.9
						c-0.9,2-2.5,3.6-4.3,4.8c-1.9,1.2-4.1,1.9-6.4,2c-2.3,0.1-4.5-0.3-6.5-1.3C541.1,276.4,539.4,275,538.3,273.2z"/>
				</g>
                <path class="st1" d="M460.4,497.7c-9.2,23.6-42,37.7-73.2,24.6c-13.6,34.7-29.2,61.7-41.8,80.7c-7.7,11.6-15.6,23.5-25.1,35.4
					c0,0,0,0,0,0c-9.8,12.2-21.4,24.5-36.2,36.7c-13.5,11-26.7,19.5-38.5,26c-8.1,4.4-15.5,8-21.8,10.7h0
					c-24.4,7.6-60.1,1.1-69.9-16.2c-12.5-22.2,18-61.4,45.9-95.7c13.1-16,15.9-17.4,30-33.5c56.6-64.6,71.9-112,113.9-133.3
					c7.1-3.6,19.6-9.8,36-10c13.6-0.1,27.8,3.8,35.6,6.1c4.9,1.4,8.8,2.9,11.5,3.9c9.2,3.6,16.1,8.3,18.8,10.3
					C457.7,452.5,468.4,477.3,460.4,497.7z"/>
                <g>
					<path class="st3" d="M532.9,327.4c2.6-1.2,5.4-2,8.2-2.6c2.8-0.6,5.7-0.8,8.6-0.9c2.9,0,5.8,0.2,8.6,0.8
						c2.8,0.5,5.6,1.3,8.2,2.5c-2.8-0.3-5.6-0.7-8.4-0.9c-2.8-0.2-5.6-0.3-8.4-0.3c-2.8,0-5.6,0.2-8.4,0.4
						C538.5,326.6,535.8,327,532.9,327.4z"/>
				</g>
                <path class="st3" d="M466.6,260.8c0-0.2-0.2-1.4-1.2-7.5c-1.2-7.5-8.2-27.7-16.3-27.7c-8,0-14,17.1-14.1,17.6
					c-0.9-11.4,2.4-23.3,10.1-26.7c5-2.2,11.7-0.8,18,3.1v0C464.1,224,466.5,259.3,466.6,260.8z"/>
                <path class="st3" d="M662.1,253.4c0,0-2.8-29.8-12.5-27.9c-9.7,2-11.7,6.6-13.6,12.5c-2.1,6.5-4.2,18.9-4.2,18.9l2.8-36.6
					c6.7-4.5,14-6.3,19.4-3.9C664.2,221,666.8,240,662.1,253.4z"/>
                <path class="st3" d="M468.4,208.1c2.6-3.5,7.1-8.5,14-12.1c12.5-6.5,19.5-1.3,37.2-4.9c19.5-4,19.7-12.1,32.8-11.1
					c11.9,1,12.9,7.7,28.3,9.2c9.8,0.9,13-1.5,21.5,0.6c8.6,2.1,14.9,6.8,19,10.7c1.4-5,12.6-37.4-8.4-61.3
					c-13.2-14.9-36.6-31.1-57.8-31.4c-16.2-0.2-53.8-8.2-77.8,18.5C458.7,147,455.4,179.4,468.4,208.1z"/>
                <path class="st6" d="M458.9,144.1c0.1,2.7,2.2,66.7,4.4,81.5c4,26.6,6.5-12.7,6.4-25.1c0-5.1,22.5-42.4,24.1-54.2
					c1.6-11.8,114.1,0,114.1,0s1,40.7,13.2,54.2c12.2,13.5,6.5,36.5,10.8,34.2s9.8-45.9,8.3-63.4s-14.7-43.8-38.2-44.2
					C578.5,126.4,457.8,94.7,458.9,144.1z"/>
                <path class="st6" d="M580.7,66.6c32.1,4.2,68.5,27.6,69.2,53.1c0,0.3,0,1.3-0.1,2.8c-1.6,30.4-28.9,50.4-59.9,50.4
					c-18.3,0-38.2-7.1-51.8-19.2c-1.1-0.9-2.1-1.9-3.1-2.9c0,0,0,0,0,0c0,0,0,0.2-0.1,0.3c-0.7,2.2-5.2,14-17.2,15.4
					c-16.9,2-24.9-3-31.3-7.9c-0.3-0.3-0.7-0.5-1-0.8c0,0,0,0.1-0.1,0.1c-0.6,0.8-1.2,1.6-1.9,2.4c-3,3.2-7,5.3-10.8,4.6
					c-7.2-1.3-9.8-6.9-10.1-12.6c-0.1-2,0-3.9,0.4-5.7c0-0.1,0-0.1,0-0.2c-13.2,4.2-19.6-8.1-19.6-17.4c0-9.4,6.7-20,16.1-20
					c6.3,0,13.7,4.7,18,10.6c2.8-4.5,6.9-10.3,12.5-16.4c0,0,9.6-10.4,21.5-18.3C546.3,62.1,580.7,66.6,580.7,66.6z"/>
                <path class="st6" d="M487,146.1c-0.6,0.8-1.2,1.6-1.9,2.4C485.9,147,487,146.1,487,146.1z"/>
                <path class="st5" d="M485.4,157.9c6.6,5.1,14.5,10.8,32.3,8.7c12-1.5,16.5-13.3,17.2-15.4c0-0.2,0.1-0.2,0.1-0.3
					c-0.3,0.4-5,6.7-16.9,8.6c-12.4,1.9-34.2-4.3-37.8-6.6L485.4,157.9"/>
                <path class="st5" d="M478.9,160.3c4.8-1.6,5.6-4.4,5.6-4.4l2.8,0.8c0,0-0.2,0.8-0.8,1.9c-0.3-0.3-0.7-0.5-1-0.8
					c0,0,0,0.1-0.1,0.1c-0.6,0.8-1.2,1.6-1.9,2.4c-3,3.2-7,5.3-10.8,4.6c-7.2-1.3-9.8-6.9-10.1-12.6
					C466,158.5,472.7,162.4,478.9,160.3z"/>
                <path class="st5" d="M613.1,157.9c28-10.3,35.8-33.4,36.8-35.4c-1.6,30.4-28.9,50.3-59.9,50.3c-18.3,0-38.2-7.1-51.8-19.2
					C584,172.6,593.4,165.1,613.1,157.9z"/>
                <path class="st3" d="M743.7,661.1c0,0-5.3,46.1-2.7,72.3c2.7,26.2,7.1,31.9,7.1,31.9s3.5,38.1,7.1,51.4
					c3.5,13.3-0.9,118.4-6.7,141.9l2.4,14.9c0,0-11.3-12.2-5.5-75.6s0.4-74.5,0.4-74.5s-12.9-37.7-15.1-59
					c-2.2-21.3,0-106.4,0-106.4L743.7,661.1z"/>
                <g>
					<path class="st7" d="M543.3,260.8c0.8-0.8,1.8-1.4,2.9-1.9c1.1-0.4,2.3-0.7,3.5-0.8c1.2-0.1,2.4,0.2,3.5,0.6
						c1.1,0.4,2.1,1.2,2.8,2c-1.1-0.4-2.1-0.8-3.2-1c-1-0.2-2.1-0.3-3.2-0.3C547.6,259.6,545.5,260.1,543.3,260.8z"/>
				</g>
                <path class="st8" d="M626.3,390.4c0,0-29.7,45.8-76.7,46.5c-22.5,0.3-40-7.8-43.6-9.7c-21-10.8-31.8-27.1-35.9-34.1
					c-34.6,7-69.2,13.9-103.9,20.9c-1.8,64.8-2.5,131.5-1.9,200.2c1,104.5,4.9,204.8,11.1,300.5c55.3,4.3,114.4,7.1,176.8,7.6
					c60.4,0.5,117.6-1.2,171.3-4.4c8.2-92.8,12.7-194.2,11.1-303.2c-1-71.1-4.6-138.7-9.9-202.5
					C692.1,404.9,659.2,397.6,626.3,390.4z"/>
                <path class="st3" d="M245.6,701.1c0,0,43.5-44.1,49.7-76.8l25.1,14.1C320.4,638.4,297.7,672.8,245.6,701.1z"/>
                <path class="st8" d="M466.3,394.1c-70.8,11.7-121.7,24.2-131.9,29.4c-9.2,4.7-16.1,11.1-16.1,11.1l0,0l0,0l0,0.1
					c-26.8,39.1-43.9,58.9-62.8,84.4c-8,10.9-19.4,26.8-32.3,47.2c8.3,9.3,19.4,20.5,33.7,32c14.4,11.5,26.3,19,38.3,26
					c13.6,7.8,30,17.3,42.2,22.3c14.5-13.4,26.1-32.3,40.5-50.4C435.9,523.5,457.5,445.8,466.3,394.1z"/>
                <path class="st1" d="M475.8,953.9c-4.4,5.9-19.8,1.2-62.6-11.9c-15.7-4.8-23.5-7.2-24-6c-0.7,1.6,13.4,8.6,37.4,24.1
					c25.8,16.7,32.8,23.6,31.4,28.3c-0.6,1.8-2.2,2.8-3.1,3.3c-8.2,4.7-19.7-4.1-46.5-18.6c-12.4-6.7-33-17.8-35.3-14.6
					c-0.1,0.2-0.2,0.3-0.2,0.5c-1.1,4.8,16.7,10,37.5,25c10,7.2,14.4,12.2,13.3,15.8c-0.4,1.2-1.2,1.9-1.5,2.2
					c-5.1,4.3-17-1.7-21-3.7c-15.6-7.6-47.1-20.8-67-27.1c-3.1-1-6-1.8-8.5-2.4c-1.8-0.4-6.3-1.5-11.1-4.8
					c-7.8-5.5-10.9-13.3-11.7-15c-10.2-23.5-137.6-167-150.2-253.5c-0.1-1-0.3-1.9-0.4-2.9c-1.1-9.6-0.8-20.6,6.1-27.4
					c10.9-10.8,32.2-5.3,36.3-4.2c59.8,15.3,91.9,125.5,96.9,142.4c11.5,39.3,18.4,86.2,42.5,90.6c1.7,0.3,3.2,0.3,4.1,0.3
					c7.5-2.8,15.2-5.5,23.1-8.1c4.1-1.4,8.2-2.7,12.3-4c1,4,1.9,7.9,2.9,11.8c20.7,2.3,37.7,5.8,50.2,8.9
					c17.8,4.3,42.2,10.5,42.1,18.2c0,1.2-0.7,2.1-1,2.5c-4.7,6.5-20.8-1.5-50.2-5.8c-10.5-1.5-19.8-2.2-19.9-1.4
					c-0.2,1.1,19.5,5.2,47,14.5c21.5,7.3,32.2,12.6,32.3,19.2C476.9,950.5,477,952.3,475.8,953.9z"/>
                <path class="st8" d="M635.8,392.5c70.6,13.9,118.6,25.9,128.7,31.1c9.2,4.7,16.1,11.1,16.1,11.1l0,0l0,0l0,0.1
					c26.8,39.1,45.2,61.9,51.1,143.7c-2,25.9,1,51.9,3,77.8c-8.3,9.3-19,14-39.9,19c-20,2-42.9,4-58.9,6c-19,0-21-3-34.9-12
					c-14.5-13.4,8.4-137.5-6-155.6C637.1,440.7,644.6,444.1,635.8,392.5z"/>
                <path class="st9" d="M366.8,494.3c1.5,0,2.8,1.3,2.7,2.8c-1.5,39.1-4.4,78-5,117c-1.2-39-0.1-78.1-0.4-117.1
					C364,495.5,365.2,494.2,366.8,494.3L366.8,494.3z"/>
                <path class="st9" d="M735.8,491.1c1.5,0,2.8,1.3,2.7,2.8c-1,40.3-2.8,148-3.7,188.3c-0.9-40.2-0.9-148.1-1.8-188.3
					C733,492.3,734.2,491.1,735.8,491.1L735.8,491.1z"/>
                <path class="st3" d="M373.6,882c-3.7,1.2-7.4,2.3-11.1,3.6c-7.9,2.6-15.6,5.3-23.1,8.1c-1,0-2.4,0-4.1-0.3
					c-24-4.4-31-51.3-42.5-90.6c-4.9-16.9-37.1-127.1-96.9-142.4c8.6,10,20.1,24.5,31.8,43.3c4.6,7.3,16.9,27.5,30.6,60.8
					c19.3,46.8,29.1,89.6,54.3,124c3.2,4.4,8.6,12.4,18.1,14.8C349.9,908,369.5,886.6,373.6,882z"/>
                <ellipse class="st6" cx="497.1" cy="102.1" rx="40.5" ry="31"/>
                <ellipse class="st6" cx="555" cy="91.6" rx="58.9" ry="36.4"/>
                <ellipse class="st6" cx="614.3" cy="85.4" rx="27.1" ry="24.3"/>
                <path class="st10" d="M514.5,300.1c23.8,2,47.4-2.5,70.6-0.1C570.4,318.6,535.9,323.5,514.5,300.1z"/>
                <path class="st9" d="M588.7,556.4c0,0,79.1,4.7,104.4-2l-2.7,82.5c0,0-13.3,27.9-51.2,25.3c-37.9-2.7-45.9-23.9-45.9-23.9
					L588.7,556.4z"/>
                <path class="st11" d="M451.9,396.8c0,0,16,57.6,98.4,57.6s94.9-59.9,94.9-59.9"/>
                <polygon class="st12" points="530.4,254.3 471.9,253.8 468.8,205.6 535.7,206.1 				"/>
                <polygon class="st12" points="624.4,254.8 565,253.8 561.3,205.1 628.4,205.9 				"/>
                <g>
					<path class="st13" d="M526.8,254.9H476c-2.9,0-5.3-2.3-5.5-5.2l-3.1-39.4c-0.2-3.2,2.3-5.9,5.5-5.9h57.7c3.2,0,5.8,2.7,5.5,6
						l-3.8,39.4C532.1,252.7,529.7,254.9,526.8,254.9z"/>
                    <path class="st13" d="M619.9,254.9h-50.9c-2.9,0-5.3-2.3-5.5-5.2l-3.1-39.4c-0.2-3.2,2.3-5.9,5.5-5.9h57.7c3.2,0,5.8,2.7,5.5,6
						l-3.8,39.4C625.2,252.7,622.8,254.9,619.9,254.9z"/>
                    <path class="st13" d="M535.7,206.1c0,0,5.4-4.5,13-4.5s13.6,4.7,13.6,4.7"/>
                    <line class="st14" x1="466.7" y1="211.5" x2="460.7" y2="211.5"/>
                    <line class="st14" x1="636.3" y1="211.5" x2="630.3" y2="211.5"/>
				</g>
			</g>
		</g>
	</g>
</g>
</svg>
