<?xml version="1.0" encoding="utf-8"?>
<!-- Generator: Adobe Illustrator 25.3.0, SVG Export Plug-In . SVG Version: 6.00 Build 0)  -->
<svg version="1.1" id="Layer_1" xmlns="http://www.w3.org/2000/svg" xmlns:xlink="http://www.w3.org/1999/xlink" x="0px" y="0px"
	 viewBox="0 0 1080 1080" style="enable-background:new 0 0 1080 1080;" xml:space="preserve">
<style type="text/css">
	.st0{clip-path:url(#SVGID_2_);}
	.st1{fill:#FFEFCF;}
	.st2{fill:#EFE8DC;}
	.st3{fill:#CC8352;}
	.st4{fill:#0F5049;}
	.st5{fill:#BC7442;}
	.st6{fill:#B26836;}
	.st7{fill:#FFFAEE;}
	.st8{fill:#133542;}
	.st9{fill:#995B30;}
	.st10{fill:#B8422C;}
	.st11{fill:none;stroke:#452914;stroke-width:1.3416;stroke-miterlimit:10;}
	.st12{fill:#0A3C37;}
	.st13{fill:#FFF5DF;}
	.st14{fill:#FECB58;}
	.st15{fill:none;stroke:#FECB58;stroke-width:5.3664;stroke-miterlimit:10;}
	.st16{fill:#CCCCCC;}
	.st17{fill:#5C371B;}
	.st18{fill:#CC7F54;}
	.st19{fill:#AF6946;}
	.st20{fill:none;}
</style>
<g>
	<defs>
		<path id="SVGID_1_" d="M1047.27,543.47c0,245.18-218.86,443.94-488.84,443.94S69.6,788.66,69.6,543.47S288.46,51.65,558.44,51.65
			S1047.27,298.29,1047.27,543.47z"/>
	</defs>
	<clipPath id="SVGID_2_">
		<use xlink:href="#SVGID_1_"  style="overflow:visible;"/>
	</clipPath>
	<g class="st0">
		<g>
			<g>
				<g>
					<path class="st1" d="M357.74,843.22c-35.85,33.71-24.18,88.7-21.92,98.33c4.75,20.22,14.09,35.19,27.01,52.06
						c20.7,27.01,57.19,67.61,117.85,107.08c20.64,3.13,51.69,5.22,88-2.36c24.02-5.02,43.75-12.9,58.58-20.2
						c-0.08-7.84-0.53-18.52-2.14-31.08c-11.41-88.72-71.72-196.17-165.4-219.29C447.11,824.64,391.96,811.04,357.74,843.22z"/>
				</g>
				<g>
					<path class="st1" d="M660.09,1086.56c-141.68-23.4-236.92-205.7-200.37-258.81c11.65-16.92,35.21-19.93,70.11-21.35
						c33.75-1.38,101.87,2.01,183.17,52.16c35.81,37.96,82.05,101.03,85.06,182.13c0.26,7.03,0.19,13.91-0.18,20.64
						C770.16,1075.66,719.28,1096.33,660.09,1086.56z"/>
				</g>
				<g>
					<g>
						<path class="st2" d="M394.86,297.52c-21.92-15.95-30.66-43.51-22.06-66.53c10.2-27.32,39.56-34.23,41.69-34.7
							c-10.42-19.65-7.07-43.89,8.25-59.88c15.53-16.21,40.02-20.48,60.22-10.45c11.02-27.88,40.02-42.77,65.7-36.16
							c20.41,5.26,36.23,23.46,39.91,46.01c23.95-12.86,52.84-8.02,69.34,10.53c13.17,14.82,16.77,36.52,9.65,56.17
							c6.51,4,19.7,13.35,28.48,30.52c4.21,8.23,12.42,24.23,7.24,42.79c-7.5,26.91-34.09,35.34-35.87,35.87
							c-0.33,5.84-2.08,22.95-15.37,37.15c-14.85,15.87-38.3,21.89-61.06,16.15c-4.54,2.88-33.11,20.34-68.01,10.22
							c-25.61-7.43-39.67-25.38-44.02-31.44c-22.07,9.43-46.83,6.54-63.89-7.73C398.42,322.1,395.47,302.67,394.86,297.52z"/>
					</g>
					<path class="st3" d="M656.88,306.98c5.03-14.43,2.27-34.82-8.63-39.67c-12.59-5.6-34.44,10.2-39.33,29.61
						c-3.43,13.6,0.6,32.49,11.93,36.73C633.56,338.41,651.25,323.15,656.88,306.98z"/>
					<g>
						<path class="st4" d="M422.63,571.42c-9.28,18.92-25.56,8.83-26.17,16.31c-4.4,53.56-10.64,106.39-19.03,159.51
							c-2.43,25.93,14.59,270.42,9.63,295.95c-3.62,18.68-9.27,52.76-26.98,59.95c-19.32,7.84-32.5,9.86-49.39-3.75
							c-8.29-6.68-14.27-13.22-18.68-20.57c-12.34-20.55-12.73-43.52-12.69-50.93c0.39-68.85-54.08-497.39,107.53-563.23
							c14.55-5.93-1.04,15.72,27.27,22.29c3.97,0.92,16.49,3.83,22.35,14.07C441.61,510.04,452.38,510.75,422.63,571.42z"/>
					</g>
					<path class="st4" d="M713,858.56c-41.63-12.92-102.43-26.78-176.61-26.78c-70.95,0.01-129.44,12.7-170.24,24.87
						c-14.28-48.86-28.19-113.76-31.38-190.87c-2.83-68.52,3.58-127.76,11.93-174.18c27.75-25.6,83.74-55.51,165.52-62.97
						c118.27-10.79,204.05,46.84,227.28,63.62c1.69,57.44,0.82,120.96-4.35,189.49C730.3,745.86,722.4,805.02,713,858.56z"/>
					<path class="st3" d="M463.06,441.59c4.69-2.98,18.72-14.23,24.69-35.84c3.27-11.84,2.1-22.06,0.93-27.96h99.45
						c-0.94,6.15-1.44,14.89,0.84,24.87c5.26,23.13,19.23,36.42,24.85,40.58c-1.58,2.43-27.98,41.54-76.42,40.69
						C489.7,483.1,464.73,444.29,463.06,441.59z"/>
					<path class="st5" d="M463.06,441.59c4.69-2.98,18.72-14.23,24.69-35.84c3.27-11.84,2.1-22.06,0.93-27.96h99.45
						c-1.77,21.35-11.74,31.9-15.3,35.27c-11.21,10.57-26.39,13.37-34.36,14.84c-17.5,3.23-25.28-0.83-33.58,6.25
						c-7.16,6.11-5.65,12.8-11.89,16.15C485.16,454.5,473.55,448.9,463.06,441.59z"/>
					<g>
						<path class="st6" d="M586.58,394.75c-0.56,2.57-1.74,4.88-3.04,7.04c-1.33,2.13-2.85,4.15-4.53,5.97
							c-3.37,3.66-7.31,6.75-11.6,9.24c-4.29,2.5-8.94,4.32-13.72,5.65c-2.4,0.59-4.83,1.16-7.29,1.45
							c-1.23,0.16-2.46,0.33-3.69,0.42l-3.7,0.17c-2.48,0.1-4.91-0.09-7.36-0.25c-2.44-0.29-4.88-0.58-7.28-1.15
							c-4.81-1.05-9.52-2.63-13.91-4.91c-4.4-2.24-8.51-5.11-12.09-8.59c-1.78-1.74-3.42-3.67-4.85-5.76
							c-1.42-2.07-2.7-4.36-3.36-6.91c2.6,0.25,4.9,0.38,7.19,0.48l3.33,0.13l3.23,0.08c4.24,0.11,8.25,0.14,12.13,0.19
							c3.88,0.04,7.66,0.02,11.38,0l5.56-0.03l2.78-0.05l1.39,0.01l1.37-0.06c1.83-0.03,3.66-0.03,5.48-0.13
							c1.84,0.02,3.65-0.15,5.5-0.16c3.67-0.19,7.42-0.32,11.29-0.55c3.86-0.26,7.86-0.51,12.09-0.87l6.57-0.57
							C581.69,395.34,584,395.13,586.58,394.75z"/>
					</g>
					<path class="st3" d="M463.55,316.24c-1.73,8.06-5.78,15.03-12.13,17.41c-12.71,4.77-30.41-10.5-36.03-26.67
						c-3.2-9.19-3.25-20.78-0.05-29.25c1.83-4.84,4.71-8.66,8.67-10.43c12.59-5.59,34.44,10.21,39.33,29.62
						C464.85,302.91,464.92,309.91,463.55,316.24z"/>
					<path class="st5" d="M463.55,316.24c-1.73,8.06-5.78,15.03-12.13,17.41c-1.59-2.54-4-6.77-6.09-12.35
						c-5.82-15.6-2.62-24.6-9.69-39.52c-4.8-10.12-8.57-10.81-9.69-10.93c-5.29-0.55-9.75,5.66-10.61,6.89
						c1.83-4.84,4.71-8.66,8.67-10.43c12.59-5.59,34.44,10.21,39.33,29.62C464.85,302.91,464.92,309.91,463.55,316.24z"/>
					<path class="st5" d="M608.72,316.24c1.73,8.06,5.78,15.03,12.13,17.41c1.59-2.54,4-6.77,6.09-12.35
						c5.82-15.6,2.62-24.6,9.69-39.52c4.8-10.12,8.57-10.81,9.69-10.93c5.29-0.55,9.75,5.66,10.61,6.89
						c-1.83-4.84-4.71-8.66-8.67-10.43c-12.59-5.59-34.44,10.21-39.33,29.62C607.42,302.91,607.35,309.91,608.72,316.24z"/>
					<path class="st3" d="M444.06,289.35c-0.57-34.67-1.73-99.45,44.98-127.41c24.39-14.6,57.81-17.11,84.26-4.2
						c47.27,23.08,51.96,85.51,54.59,120.42c2.3,30.56,5.46,70.62-22.25,101.51c-4.66,5.2-29.01,31.11-67.61,31.22
						c-34.85,0.1-58.01-20.89-64.7-27.56C445.14,355.26,444.52,317.76,444.06,289.35z"/>
					<path class="st7" d="M487.71,283.63c0-6.82,4.22-9.97,9.42-9.97c5.2,0,9.42,3.14,9.42,9.97c0,6.82-4.22,12.36-9.42,12.36
						C491.93,295.99,487.71,290.46,487.71,283.63z"/>
					<path class="st8" d="M489.91,286.52c0-5.23,3.23-8.27,7.22-8.27c3.99,0,7.22,3.04,7.22,8.27c0,5.23-3.23,9.47-7.22,9.47
						C493.15,295.99,489.91,291.75,489.91,286.52z"/>
					<path class="st7" d="M564.83,283.63c0-6.82,4.22-9.97,9.42-9.97s9.42,3.14,9.42,9.97c0,6.82-4.22,12.36-9.42,12.36
						S564.83,290.46,564.83,283.63z"/>
					<path class="st8" d="M567.03,286.52c0-5.23,3.23-8.27,7.22-8.27s7.22,3.04,7.22,8.27c0,5.23-3.23,9.47-7.22,9.47
						S567.03,291.75,567.03,286.52z"/>
					<g>
						<path class="st9" d="M506.14,259.14c-2.1,1.53-4.15,2.65-6.17,3.75c-2.02,1.08-4.02,2.08-6.03,3.05
							c-2.01,0.97-4.03,1.91-6.14,2.82c-2.11,0.9-4.27,1.8-6.78,2.5c1.04-2.39,2.65-4.33,4.46-6.02c1.83-1.67,3.9-3.06,6.13-4.13
							c2.22-1.07,4.6-1.83,7.05-2.21C501.1,258.53,503.62,258.48,506.14,259.14z"/>
					</g>
					<g>
						<path class="st9" d="M564.97,260.87c2.41-1.1,4.97-1.47,7.52-1.47c2.55,0.02,5.09,0.47,7.51,1.28
							c2.41,0.83,4.71,2.01,6.74,3.56c2.02,1.55,3.82,3.43,5.04,5.78c-2.58-0.58-4.82-1.35-7.04-2.07l-6.46-2.19l-6.47-2.21
							C569.61,262.77,567.36,262,564.97,260.87z"/>
					</g>
					<g>
						<path class="st9" d="M520.11,328.16c2.92,0.7,5.57,1.18,8.19,1.5c2.61,0.31,5.14,0.4,7.69,0.31c2.55-0.09,5.06-0.39,7.62-0.91
							c2.57-0.52,5.14-1.25,7.97-2.27c-1.38,2.73-3.81,4.79-6.5,6.23c-2.72,1.43-5.8,2.22-8.88,2.32c-3.08,0.12-6.2-0.42-9.02-1.61
							C524.38,332.5,521.79,330.71,520.11,328.16z"/>
					</g>
					<g>
						<path class="st6" d="M553.08,387.15l-8.85-0.19c-2.84-0.05-5.64-0.04-8.43,0.02c-2.8,0.05-5.58,0.16-8.41,0.32
							c-2.84,0.17-5.67,0.39-8.78,0.72c2.14-2.35,5.01-3.83,7.94-4.86c2.95-0.99,6.06-1.51,9.15-1.55c3.09-0.05,6.21,0.32,9.18,1.19
							C547.84,383.7,550.74,385.01,553.08,387.15z"/>
					</g>
					<path class="st10" d="M564.44,354.9c-5.61,11-16.88,18.02-29.21,18.21c-12.4,0.19-23.92-6.56-29.84-17.47
						c6.24,4.93,11.05,5.72,14.31,5.51c3.82-0.24,7.94-2.01,13.01-0.09c1.47,0.56,2.58,1.25,3.25,1.73
						c0.53-0.47,1.38-1.14,2.51-1.77c4.87-2.7,9.29-1.34,14.05-1.68C555.45,359.13,559.57,358.2,564.44,354.9z"/>
					<g>
						<path class="st4" d="M806.61,852.04c-7.49,10.47-17.44,16.37-17.44,16.37c-0.92,0.56-1.79,1.05-2.6,1.47
							c-3.74,2.01-6.24,2.74-6.24,2.74s-11.39,3.35-24,0c-9.32-2.47-17.48-11.25-24.55-23.37c-11-18.8-19.38-45.64-25.4-69.35
							c-3.78-14.86-6.63-28.49-8.61-38.15c-13.79-67.08-24.98-125.85-33.8-174.12c-28.26-12.37-55.89-35.69-47.8-68.39
							c0.47-1.88,2.45-4.78,11.67-23.46c6.71-13.6,6.61-13.64,7.16-14.31c11.61-14,66.92-0.62,104.5,30.78
							c8.78,7.32,29.15,26.12,53.64,98.02c1.85,5.42,3.72,11.16,5.62,17.22C852.08,777.96,810.21,847.02,806.61,852.04z"/>
					</g>
					<g>
						<path class="st2" d="M456.51,266.12c12.37-7.65,18.99-22.67,16.59-37.88c8.22,10.5,22.77,15.58,35.74,12.49
							c12.97-3.1,23.66-14.21,26.25-27.28c2.47,12.72,9.05,25.2,20.11,31.96c11.06,6.76,26.93,6.26,35.75-3.22
							c-0.78,12.66,7.7,25.32,19.7,29.42c12,4.1,26.46-0.73,33.59-11.21c6.3-9.26,6.19-19.34,5.85-24.25
							c-1.82-26.29-23.07-44.46-36.55-55.99c-13.82-11.81-39.14-33.46-79-37.38c-10.67-1.05-41.8-4.1-71.8,13.97
							c-51.37,30.96-53.64,96.27-53.74,101.71C421.58,272.28,441.81,275.21,456.51,266.12z"/>
					</g>
					<g>
						<path class="st6" d="M457.52,275.67c1.73,0.33,3.45,0.72,5.17,1.11c1.71,0.42,3.42,0.82,5.13,1.26l5.1,1.36l5.08,1.45
							l6.69,1.91l-7.02,1.31c-2.47,0.46-4.94,0.93-7.39,1.46c-2.46,0.5-4.91,1.03-7.35,1.58l-0.16-3.94c3.3,0.43,6.57,1,9.82,1.72
							c1.62,0.36,3.23,0.78,4.84,1.21l2.4,0.67l0.6,0.18c0.27,0.09,0.51,0.15,0.94,0.39c0.12,0.07,0.24,0.14,0.43,0.31
							c0.16,0.17,0.46,0.4,0.61,1.07c0.14,0.68-0.21,1.3-0.44,1.54c-0.24,0.26-0.41,0.35-0.54,0.42c-0.51,0.25-0.66,0.25-0.86,0.32
							l-4.74,1.35l-4.77,1.26c-3.2,0.79-6.39,1.59-9.65,2.21c2.96-1.5,5.97-2.81,8.99-4.14l4.55-1.91l4.58-1.82
							c0.19-0.07,0.43-0.18,0.28-0.12c-0.04,0.03-0.13,0.06-0.3,0.24c-0.16,0.16-0.47,0.67-0.35,1.25c0.13,0.57,0.35,0.72,0.44,0.82
							c0.11,0.1,0.14,0.11,0.17,0.13c0.07,0.04-0.08-0.01-0.21-0.03l-0.59-0.13l-2.37-0.51c-1.59-0.33-3.18-0.62-4.77-0.9
							c-3.18-0.58-6.38-1.09-9.59-1.54l-11.11-1.56l10.94-2.38c2.5-0.54,5.01-1.01,7.53-1.42c2.53-0.38,5.05-0.73,7.59-1.01
							l-0.33,3.22l-4.87-1.93l-4.85-2.01c-1.61-0.68-3.22-1.4-4.82-2.11C460.71,277.2,459.1,276.46,457.52,275.67z"/>
					</g>
					<g>
						<path class="st6" d="M625.62,272.94c-2.41,1.04-4.83,2.03-7.27,2.98c-2.43,0.96-4.88,1.88-7.33,2.77
							c-2.44,0.92-4.91,1.76-7.37,2.63c-2.45,0.88-4.94,1.67-7.41,2.5l-0.37-3.57c1.71,0.13,3.42,0.27,5.12,0.52
							c1.7,0.24,3.4,0.52,5.09,0.85c3.38,0.65,6.73,1.55,9.99,2.7l11.01,3.88l-11.64-0.02c-3.36-0.01-6.72-0.07-10.08-0.14
							l-5.01-0.11c-1.61-0.03-3.21,0.02-4.51,0.42l0.23-2.54c1.33,0.87,2.63,1.8,3.93,2.72c1.3,0.92,2.58,1.86,3.84,2.85
							c2.52,1.94,4.97,3.98,7.3,6.15l-8.24-4.73l-4.13-2.3l-4.15-2.25l-2.62-1.42l2.85-1.13c1.88-0.74,3.69-0.88,5.42-1.01
							c1.74-0.12,3.38-0.14,5.07-0.2c3.36-0.11,6.72-0.21,10.08-0.26l-0.63,3.85c-3.1-1.03-6.28-1.86-9.5-2.57
							c-1.61-0.34-3.23-0.64-4.86-0.9c-1.63-0.24-3.26-0.51-4.9-0.7l-9.42-1.09l9.05-2.49c2.52-0.69,5.02-1.42,7.55-2.06
							c2.53-0.65,5.05-1.34,7.59-1.93c2.53-0.63,5.08-1.23,7.63-1.79C620.49,273.95,623.05,273.41,625.62,272.94z"/>
					</g>
					<g>
						<g>
							<path class="st6" d="M504.7,331.49c-1.1,2.21-1.89,4.26-2.49,6.36c-0.6,2.09-1.01,4.2-1.3,6.35
								c-0.29,2.16-0.49,4.37-0.71,6.65c-0.24,2.28-0.47,4.62-1.11,7.02c-1.04-2.24-1.67-4.54-2.06-6.92
								c-0.37-2.37-0.45-4.84-0.11-7.3c0.34-2.46,1.12-4.9,2.4-7.08C500.61,334.42,502.43,332.5,504.7,331.49z"/>
						</g>
						<g>
							<path class="st6" d="M566.12,328.79c2.1,1.49,3.74,3.48,5.07,5.65c1.31,2.18,2.28,4.58,2.88,7.06
								c0.6,2.48,0.83,5.06,0.65,7.6c-0.19,2.54-0.76,5.06-1.95,7.34c-0.47-2.52-0.79-4.88-1.21-7.19c-0.4-2.31-0.87-4.57-1.4-6.81
								c-0.54-2.24-1.15-4.46-1.84-6.7C567.63,333.49,566.85,331.24,566.12,328.79z"/>
						</g>
					</g>
					<g>
						<path class="st12" d="M429.22,702.86c19.06,2.1,37.77,4.61,56.51,6.58c18.72,2.03,37.41,3.69,56.13,4.91
							c18.72,1.22,37.47,2.02,56.29,2.44c18.84,0.49,37.71,0.45,56.88,0.88c-18.48,5.17-37.48,8.06-56.57,9.67
							c-19.1,1.55-38.34,1.66-57.48,0.39c-19.14-1.26-38.2-3.89-56.94-7.92C465.33,715.72,446.87,710.39,429.22,702.86z"/>
					</g>
					<g>
						<path class="st12" d="M704.38,583.5c5.01,19.38,8.19,39.07,10.65,58.82c2.4,19.76,3.91,39.6,4.71,59.46
							c0.8,19.86,0.87,39.73,0.22,59.6c-0.15,4.97-0.38,9.93-0.65,14.89c-0.26,4.96-0.58,9.93-0.96,14.89
							c-0.77,9.92-1.73,19.84-3.17,29.75c-2.83-19.81-4.38-39.59-5.77-59.35c-1.32-19.76-2.3-39.5-3.08-59.24
							c-0.78-19.74-1.37-39.48-1.79-59.25C704.19,623.29,703.82,603.51,704.38,583.5z"/>
					</g>
					<g>
						<path class="st12" d="M367.13,820.91c-4.01-19.73-6.14-39.71-7.22-59.77c-1.02-20.06-0.79-40.21,0.67-60.26
							c1.47-20.06,4.18-40,7.99-59.7c0.47-2.46,0.99-4.92,1.5-7.37c0.52-2.45,0.99-4.91,1.58-7.35c1.13-4.89,2.27-9.77,3.52-14.63
							c1.29-4.85,2.57-9.69,3.99-14.51c1.42-4.81,2.94-9.61,4.56-14.37c-0.95,20.11-2.94,39.94-4.71,59.72
							c-1.84,19.78-3.59,39.48-5.06,59.19c-1.45,19.72-2.58,39.45-3.54,59.26l-1.44,29.8c-0.22,4.98-0.5,9.97-0.81,14.96
							C367.93,810.88,367.58,815.89,367.13,820.91z"/>
					</g>
					<path class="st13" d="M537.4,483.94l-16.73-32.69c0,0-28.65-6.97-44.14-35.61l-28.97,19.92
						C447.56,435.56,475.94,489.53,537.4,483.94z"/>
					<path class="st13" d="M537.4,483.94l16.73-32.69c0,0,28.65-6.97,44.14-35.61l28.97,19.92
						C627.24,435.56,598.85,489.53,537.4,483.94z"/>
					<g>
						<path class="st14" d="M540.29,513.53c-2.51,1.42-3.64,3.68-4.04,4.62c-0.53-0.91-2.15-3.38-5.3-4.53
							c-0.53-0.19-5.03-1.76-8.18,0.75c-0.47,0.38-1.5,1.32-2.01,2.79c-1.94,5.6,5.47,13.52,10.94,17.48
							c2.35,1.7,4.47,2.77,5.82,3.38c1-0.64,2.36-1.58,3.87-2.85c2.08-1.75,5.62-4.73,7.8-9.28c1.24-2.59,4.05-8.47,1.27-11.67
							C548.12,511.53,542.93,512.04,540.29,513.53z"/>
						<g>
							<path class="st14" d="M469.69,433.91c6.3,16.03,15.56,30.79,27.14,43.31c2.91,3.11,5.93,6.12,9.1,8.96
								c3.18,2.83,6.47,5.52,9.88,8.05c6.81,5.06,14.09,9.46,21.67,13.17l0.01,0l-2.96,0.32c13.26-10.54,25.57-22.35,36.68-35.25
								c11.12-12.89,21.04-26.87,29.58-41.69c-7.76,15.25-16.97,29.81-27.51,43.39c-10.52,13.6-22.36,26.22-35.31,37.67l-1.37,1.21
								l-1.59-0.89l-0.01,0c-7.67-4.26-14.95-9.19-21.68-14.76c-3.37-2.78-6.6-5.72-9.7-8.78c-3.09-3.08-6.01-6.3-8.81-9.63
								C483.69,465.63,475.15,450.25,469.69,433.91z"/>
						</g>
					</g>
					<path class="st7" d="M520.67,451.25l-23.54,47.88c0,0-49.57-32.56-49.58-63.58l28.97-19.92c3.07,5.57,8.95,14.57,19.21,22.66
						C505.32,445.85,514.72,449.47,520.67,451.25z"/>
					<path class="st7" d="M554.13,451.25l23.54,47.88c0,0,49.57-32.56,49.58-63.58l-28.97-19.92c-3.07,5.57-8.95,14.57-19.21,22.66
						C569.48,445.85,560.08,449.47,554.13,451.25z"/>
					<line class="st15" x1="536.25" y1="509.79" x2="536.25" y2="523.96"/>
					<g>
						<path class="st2" d="M412.65,135.84c-2.91,4.19-5.49,8.4-7.68,12.76c-2.18,4.36-3.98,8.83-5.37,13.4
							c-1.42,4.56-2.4,9.21-2.98,13.89c-0.1,1.18-0.23,2.35-0.35,3.52l-0.18,3.52l-0.03,3.52c0.06,1.17,0.13,2.34,0.16,3.52
							l0.08,3.39l-2.98,0.74c-0.73,0.18-1.64,0.45-2.46,0.7l-2.54,0.83c-1.7,0.56-3.36,1.22-5.02,1.88
							c-3.31,1.35-6.53,2.9-9.57,4.72c-1.52,0.91-3.01,1.88-4.4,2.96c-1.41,1.06-2.76,2.22-3.98,3.5c-1.22,1.28-2.37,2.66-3.35,4.2
							c-0.95,1.54-1.76,3.21-2.43,5.01c-0.19-3.83,0.95-7.83,2.98-11.29c2.01-3.49,4.77-6.5,7.82-9.05c3.05-2.58,6.41-4.7,9.9-6.54
							c1.74-0.92,3.54-1.73,5.35-2.5c0.9-0.39,1.83-0.73,2.76-1.07c0.95-0.34,1.83-0.65,2.91-0.97l-2.9,4.13
							c-0.11-1.32-0.18-2.65-0.27-3.97l-0.02-3.98l0.26-3.97c0.16-1.32,0.31-2.63,0.5-3.94c0.83-5.23,2.34-10.33,4.43-15.15
							c2.11-4.81,4.82-9.33,8.07-13.38C404.6,142.22,408.37,138.63,412.65,135.84z"/>
					</g>
					<g>
						<path class="st2" d="M681.3,321.06c3.28-2.44,6.1-4.57,8.69-6.9c2.6-2.29,4.94-4.68,7.14-7.2c2.19-2.53,4.22-5.19,6.12-8.08
							c1.94-2.89,3.65-5.99,5.62-9.57c1.39,3.88,1.2,8.13,0.14,12.09c-1.09,3.97-3.13,7.69-5.85,10.81
							c-2.71,3.12-6.11,5.66-9.89,7.29C689.51,321.1,685.34,321.88,681.3,321.06z"/>
					</g>
					<g>
						<path class="st16" d="M453.86,199.68c1.45-1.05,2.97-1.98,4.52-2.86c1.54-0.9,3.13-1.71,4.74-2.48
							c3.23-1.53,6.58-2.84,10.06-3.87c3.49-0.99,7.12-1.77,10.99-1.85c1.93-0.06,3.93,0.09,5.99,0.56c2.05,0.48,4.19,1.4,6.03,2.95
							l-5.13,0.96c0.96-1.76,1.94-3.28,2.98-4.87c1.05-1.55,2.16-3.07,3.32-4.54c2.36-2.92,4.93-5.71,7.87-8.15
							c2.93-2.43,6.23-4.57,9.92-5.83c3.66-1.28,7.86-1.44,11.25,0.07c-3.71-0.01-7,1.14-9.84,2.96c-2.86,1.81-5.36,4.13-7.67,6.67
							c-2.3,2.55-4.43,5.27-6.41,8.12c-1,1.42-1.96,2.87-2.89,4.34c-0.93,1.44-1.85,3-2.64,4.4l-2.07,3.69l-3.06-2.73
							c-1.64-1.46-4.6-2.16-7.72-2.29c-3.14-0.14-6.48,0.16-9.82,0.63c-3.35,0.47-6.73,1.13-10.13,1.84
							C460.76,198.11,457.35,198.91,453.86,199.68z"/>
					</g>
					<g>
						<path class="st16" d="M514.74,136.86c4.58-2.57,9.89-3.96,15.27-4.27c5.39-0.31,10.88,0.43,16.09,2.11
							c5.21,1.67,10.14,4.31,14.46,7.74c4.33,3.42,8.01,7.7,10.67,12.55l-4.14-0.9c2.14-1.32,4.44-2.33,6.8-3.04
							c2.36-0.7,4.79-1.1,7.22-1.19c2.42-0.09,4.83,0.13,7.15,0.66c2.31,0.55,4.53,1.36,6.53,2.53c-2.29-0.31-4.54-0.44-6.74-0.32
							c-2.2,0.11-4.36,0.42-6.43,0.93c-2.08,0.51-4.08,1.21-5.96,2.1c-1.89,0.88-3.65,1.96-5.27,3.18l-2.32,1.75l-1.82-2.65
							c-5.43-7.89-13.31-13.86-22.24-17.54c-4.47-1.84-9.2-3.12-14.1-3.75C524.97,136.13,519.92,136.15,514.74,136.86z"/>
					</g>
					<g>
						<path class="st16" d="M403,278.95c-4.17-1.53-7.61-5.18-9.37-9.59c-1.78-4.42-1.93-9.37-0.91-13.91
							c1.02-4.58,3.28-8.73,6.11-12.15c2.88-3.42,6.28-6.23,10.22-8.22c-1.94,3.97-4.08,7.52-5.81,11.11
							c-1.76,3.58-3.16,7.12-3.98,10.74c-0.81,3.63-1.11,7.32-0.58,10.99C399.19,271.59,400.63,275.23,403,278.95z"/>
					</g>
					<g>
						<path class="st16" d="M670.82,249.85c1.79,0,3.57,0.94,4.96,2.16c1.4,1.24,2.5,2.75,3.33,4.33c1.75,3.17,2.56,6.84,2.53,10.45
							c0,3.63-0.98,7.22-2.66,10.37c-1.72,3.12-4.25,5.84-7.45,7.31c1.08-3.35,1.97-6.25,2.52-9.17c0.53-2.91,0.88-5.74,0.89-8.58
							c0.02-2.83-0.17-5.66-0.74-8.53c-0.24-1.46-0.6-2.87-1.07-4.26C672.63,252.54,671.98,251.19,670.82,249.85z"/>
					</g>
					<g>
						<path class="st16" d="M423.93,147.16c2.77-4.9,6.95-9,11.76-12.13c4.83-3.12,10.35-5.26,16.06-6.24
							c5.71-1,11.63-0.84,17.23,0.47c5.59,1.32,10.9,3.77,15.17,7.45c-5.5-1.16-10.72-1.99-15.92-2.23
							c-5.19-0.25-10.3,0.06-15.33,0.92c-5.02,0.86-9.95,2.3-14.75,4.28C433.33,141.65,428.7,144.2,423.93,147.16z"/>
					</g>
					<g>
						<path class="st16" d="M631.56,223.36c-2.46-3.01-5.07-4.87-7.99-6.32c-2.9-1.44-6-2.52-9.23-3.5
							c-3.22-0.97-6.55-1.85-9.96-2.79c-3.41-0.95-6.87-1.9-10.48-3.28c3.62-1.44,7.38-1.9,11.14-1.95
							c3.76-0.01,7.55,0.48,11.25,1.6c3.68,1.12,7.32,2.9,10.33,5.63c1.5,1.35,2.8,3.01,3.69,4.83
							C631.21,219.42,631.7,221.42,631.56,223.36z"/>
					</g>
					<g>
						<path class="st17" d="M576.3,912.77c2.68-12.74,40.89-18.77,40.89-18.77l-9.39-31.51l-18.77-6.03
							c-73.74-22.79-136.76,17.43-136.76,17.43s7.37,34.86,18.77,28.83c23.46-11.4,28.83-7.37,51.62-3.35s23.46,28.16,23.46,28.16
							l0.25,7.37h28.12C574.78,925.96,575.31,917.43,576.3,912.77z"/>
						<path class="st17" d="M547.47,1084.89h26.82c0,0-0.18-129.25,0.03-141.95h-27.66L547.47,1084.89z"/>
						<path class="st14" d="M546.38,934.89l0.27,8.04h27.66c0.04-2.66,0.11-5.37,0.19-8.04H546.38z"/>
					</g>
					<g>
						<path class="st18" d="M542.51,870.58c-2.33,1.22-5.62,2.63-9.73,3.5c-4.64,0.99-8.64,0.93-11.44,0.68
							c0,0-3.3,8.56-21.85,14.37c-0.97,1.31-2.48,3.29-4.46,5.59c-4.98,5.78-22.11,25.67-34.88,21.55c-1.45-0.47-3.62-1.5-5.87-4.1
							c13.11-14.66,18.03-21.54,20.01-25.09c0.48-0.87,2.21-3.83,5.19-7.22c1.23-1.4,2.82-2.84,5.45-4.76
							c0,0,16.55-13.17,24.18-18.86c1.94-1.45,2.54-2.64,2.21-3.35c-0.34-0.72-1.85-0.7-2.37-0.69
							c-5.61,0.11-11.04,6.94-18.77,11.32c-2.06,1.17-5.14,2.65-9.3,3.71c-2.27,2.37-5.47,5.64-9.42,9.41
							c-17.07,16.32-22.01,17.16-25.31,16.43c-1.3-0.29-3.13-1-5.11-2.94c1.88-3.53,4.1-7.3,6.71-11.23
							c2.83-4.25,5.68-8.01,8.41-11.31c0.85-3.17,2.24-7.3,4.61-11.82c2.44-4.67,4.51-8.63,8.7-12.36c4.03-3.59,7.85-5.74,10.7-8.98
							c2.35-2.67,2.16-3.06,6.35-4.86c4.19-1.8,31.49-13.68,38.06-16.88c6.57-3.2,7.3-5.08,18.99-5.01s38.03,1.58,50.86-0.04
							c12.83-1.63,17.16-4.22,22.44-3.87c5.28,0.35,13.66,3.08,20.13,1.87c6.47-1.2,47.47-6.21,66.72-7.89
							c19.25-1.68,59.83,0.63,77.75,9.96c17.92,9.33,22.79,19.33,26.43,30.94c3.64,11.6-33.82,45.23-72.98,35.54
							c-39.16-9.69-65.33-14.67-82.66-15.93c-17.33-1.26-21.44-0.25-34.91,6.48C603.87,871.46,540,874.68,542.51,870.58z"/>
						<g>
							<path class="st19" d="M455.86,866.97c3.04-4.63,6.36-8.98,9.78-13.23c1.69-2.14,3.45-4.23,5.21-6.31l1.33-1.56
								c0.48-0.59,1.02-1.16,1.59-1.68c1.14-1.04,2.44-1.92,3.82-2.62l3.88-1.73l3.75-1.63c2.51-1.06,5.02-2.12,7.57-3.09
								c5.08-2,10.21-3.87,15.54-5.38c-4.62,3.04-9.43,5.72-14.3,8.27c-2.42,1.3-4.89,2.52-7.35,3.74l-3.71,1.79l-1.87,0.87
								c-0.3,0.14-0.64,0.31-0.92,0.41c-0.27,0.11-0.54,0.24-0.81,0.37c-1.07,0.52-2.06,1.18-2.95,1.96
								c-0.45,0.39-0.87,0.8-1.27,1.25l-1.4,1.5c-1.89,1.99-3.79,3.97-5.75,5.9C464.12,859.67,460.13,863.46,455.86,866.97z"/>
						</g>
						<g>
							<path class="st19" d="M542.21,869.95c-3.16,1.83-6.59,3.25-10.19,4.09c-3.59,0.85-7.33,1.18-11.06,0.98l0.91-0.57
								c-0.52,1.25-1.15,2.17-1.89,3.12c-0.72,0.93-1.52,1.79-2.35,2.59c-1.68,1.61-3.52,3.04-5.49,4.22
								c-1.96,1.21-4.07,2.11-6.15,3.06l-3.18,1.25l-3.23,1.09l0.68-0.48l-4.54,5.68c-1.56,1.82-3.16,3.63-4.81,5.39
								c-3.31,3.52-6.8,6.88-10.67,9.87c-1.93,1.49-3.95,2.89-6.13,4.08c-2.17,1.19-4.47,2.23-6.99,2.78
								c-2.49,0.59-5.23,0.61-7.79-0.21c-2.57-0.84-4.72-2.54-6.38-4.47l-0.77-0.89l0.78-0.88c5.33-6,10.64-12.05,15.46-18.39
								c1.2-1.59,2.36-3.2,3.41-4.85c0.53-0.82,0.97-1.64,1.53-2.57c0.54-0.89,1.11-1.76,1.71-2.6c1.22-1.7,2.47-3.28,3.96-4.83
								c1.5-1.52,3.14-2.8,4.79-4.02l0.21-0.12l13.62-10.65l6.81-5.32l3.41-2.66c0.55-0.41,1.04-0.82,1.42-1.25
								c0.19-0.21,0.34-0.43,0.41-0.58c0.09-0.17,0.02-0.21,0.08,0c0.03,0.11,0.17,0.25,0.18,0.24c0.02,0.01-0.04-0.02-0.13-0.04
								c-0.18-0.05-0.46-0.08-0.76-0.09c-0.31-0.02-0.63,0.02-0.91,0.05c-0.3,0.01-0.59,0.08-0.89,0.16c-1.2,0.29-2.4,0.9-3.57,1.61
								c-2.34,1.45-4.56,3.33-6.91,5.09c-2.33,1.78-4.8,3.49-7.47,4.89c-2.67,1.39-5.51,2.45-8.42,3.19l0.64-0.37l-8.92,8.94
								c-1.48,1.5-3.07,2.88-4.69,4.24c-1.6,1.37-3.24,2.7-4.89,4.01c-1.67,1.3-3.35,2.58-5.11,3.76c-1.75,1.2-3.56,2.32-5.51,3.22
								c-1.91,0.89-4.16,1.58-6.32,1.06c-2.13-0.47-3.94-1.75-5.36-3.27c1.55,1.4,3.44,2.47,5.46,2.73
								c2.01,0.28,3.97-0.48,5.75-1.46c1.79-0.99,3.47-2.22,5.08-3.51c1.63-1.28,3.18-2.66,4.72-4.06c1.53-1.41,3.04-2.84,4.52-4.31
								c0.75-0.72,1.48-1.47,2.21-2.21l2.25-2.17l8.86-8.83l0.28-0.28l0.35-0.09c2.72-0.7,5.36-1.68,7.84-2.97
								c2.47-1.3,4.8-2.9,7.08-4.65c2.3-1.72,4.52-3.62,7.12-5.24c1.3-0.8,2.72-1.54,4.35-1.94c0.41-0.1,0.81-0.19,1.25-0.22
								c0.44-0.04,0.84-0.08,1.26-0.06c0.43,0.01,0.87,0.04,1.4,0.18c0.27,0.08,0.54,0.16,0.87,0.38c0.32,0.19,0.71,0.61,0.87,1.06
								c0.32,0.89,0.06,1.62-0.16,2.1c-0.24,0.5-0.53,0.87-0.82,1.21c-0.58,0.66-1.23,1.17-1.84,1.64l-3.46,2.7l-6.93,5.4
								l-13.87,10.79l0.2-0.12c-1.59,1.17-3.13,2.38-4.46,3.73c-1.3,1.35-2.56,2.93-3.68,4.5c-0.57,0.8-1.1,1.61-1.61,2.44
								c-0.48,0.79-0.99,1.75-1.56,2.62c-1.11,1.75-2.31,3.4-3.53,5.03c-4.92,6.47-10.24,12.54-15.6,18.56l0.02-1.77
								c1.44,1.68,3.2,3.03,5.19,3.68c2,0.64,4.2,0.65,6.36,0.14c2.16-0.47,4.27-1.41,6.28-2.51c2.02-1.11,3.94-2.43,5.79-3.86
								c3.7-2.86,7.11-6.14,10.35-9.58c1.62-1.73,3.18-3.5,4.73-5.3l4.41-5.52l0.28-0.35l0.4-0.14l3.11-1.05l3.05-1.2
								c2-0.87,3.94-1.85,5.8-2.95c0.95-0.51,1.85-1.1,2.77-1.66c0.88-0.61,1.76-1.23,2.59-1.91c0.82-0.68,1.61-1.41,2.31-2.19
								c0.7-0.76,1.38-1.67,1.79-2.45l0.33-0.64l0.58,0.08c3.53,0.46,7.15,0.42,10.71-0.15C535.39,872.53,538.9,871.5,542.21,869.95
								z"/>
						</g>
					</g>
				</g>
			</g>
		</g>
	</g>
</g>
</svg>
