<svg width="16" height="20" viewBox="0 0 16 20" fill="none" xmlns="http://www.w3.org/2000/svg">
<path fill-rule="evenodd" clip-rule="evenodd" d="M1 0C0.447715 0 0 0.447715 0 1V19C0 19.5523 0.447715 20 1 20H15C15.5523 20 16 19.5523 16 19V1C16 0.447715 15.5523 0 15 0H1ZM11.6073 3.70711C11.9979 3.31658 12.631 3.31658 13.0216 3.70711L14.4358 5.12132C14.8263 5.51185 14.8263 6.14501 14.4358 6.53554L13.7286 7.24272L10.9002 4.41429L11.6073 3.70711ZM9.48595 5.82851L12.3144 8.65693L6.6576 14.3137L2.41496 15.7279L3.82917 11.4853L9.48595 5.82851Z" fill="#287492"/>
</svg>
