<svg width="32" height="32" viewBox="0 0 32 32" fill="none" xmlns="http://www.w3.org/2000/svg">
    <path fill-rule="evenodd" clip-rule="evenodd" d="M12.615 18.4965C12.0608 17.8808 11.1123 17.8309 10.4966 18.385C9.8808 18.9392 9.83088 19.8877 10.3851 20.5034L14.8851 25.5034C15.1811 25.8324 15.5897 25.9999 16 26L16 28C16 28.5523 16.4477 29 17 29L23 29C23.5523 29 24 28.5523 24 28L24 26L24.8284 25.1716C25.4821 24.5179 25.8861 23.6613 25.9793 22.7499C25.9929 22.6686 26 22.5851 26 22.5L26 22.3431L26 20L26 17.5C26 16.6716 25.3284 16 24.5 16C23.6716 16 23 16.6716 23 17.5L23 16.5C23 15.6716 22.3284 15 21.5 15C20.6716 15 20 15.6716 20 16.5L20 15.5C20 14.6716 19.3284 14 18.5 14C17.6719 14 17.0005 14.6711 17 15.4991L17 10.5C17 9.67157 16.3284 9 15.5 9C14.6716 9 14 9.67157 14 10.5L14 20L14 20.0355L12.615 18.4965Z" fill="#D87B38"/>
    <path d="M6 5C6 3.89543 6.89543 3 8 3H22C23.1046 3 24 3.89543 24 5V11C24 11.5523 23.5523 12 23 12C22.4477 12 22 11.5523 22 11V6C22 5.44772 21.5523 5 21 5H9C8.44771 5 8 5.44772 8 6V24C8 24.5523 8.44771 25 9 25H10C10.5523 25 11 25.4477 11 26C11 26.5523 10.5523 27 10 27H8C6.89543 27 6 26.1046 6 25V5Z" fill="#D87B38"/>
</svg>
