<svg width="32" height="32" viewBox="0 0 32 32" fill="none" xmlns="http://www.w3.org/2000/svg">
    <circle cx="16" cy="16" r="16" fill="#D87B38"/>
    <path d="M11.6445 15.0078L12.4648 7.78125H20.4336V10.1348H14.7793L14.4277 13.1914C15.0983 12.8333 15.8112 12.6543 16.5664 12.6543C17.9206 12.6543 18.9818 13.0742 19.75 13.9141C20.5182 14.7539 20.9023 15.929 20.9023 17.4395C20.9023 18.3574 20.707 19.181 20.3164 19.9102C19.9323 20.6328 19.3789 21.196 18.6562 21.5996C17.9336 21.9967 17.0807 22.1953 16.0977 22.1953C15.2383 22.1953 14.4408 22.0228 13.7051 21.6777C12.9694 21.3262 12.3867 20.8346 11.957 20.2031C11.5339 19.5716 11.3092 18.8522 11.2832 18.0449H14.0762C14.1348 18.6374 14.3398 19.0996 14.6914 19.4316C15.0495 19.7572 15.515 19.9199 16.0879 19.9199C16.7259 19.9199 17.2174 19.6921 17.5625 19.2363C17.9076 18.7741 18.0801 18.123 18.0801 17.2832C18.0801 16.4759 17.8815 15.8574 17.4844 15.4277C17.0872 14.998 16.5241 14.7832 15.7949 14.7832C15.1243 14.7832 14.5807 14.959 14.1641 15.3105L13.8906 15.5645L11.6445 15.0078Z" fill="white"/>
</svg>
