<svg width="32" height="32" viewBox="0 0 32 32" fill="none" xmlns="http://www.w3.org/2000/svg">
<path fill-rule="evenodd" clip-rule="evenodd" d="M5 4C4.44772 4 4 4.44772 4 5V11C4 11.5523 4.44772 12 5 12C5.55228 12 6 11.5523 6 11V6H11C11.5523 6 12 5.55228 12 5C12 4.44772 11.5523 4 11 4H5Z" fill="#D87B38"/>
<path fill-rule="evenodd" clip-rule="evenodd" d="M27.9948 27.1022C27.9983 27.0686 28 27.0345 28 27L28 21C28 20.4477 27.5523 20 27 20C26.4477 20 26 20.4477 26 21L26 26L21 26C20.4477 26 20 26.4477 20 27C20 27.5523 20.4477 28 21 28L27 28C27.0345 28 27.0686 27.9983 27.1022 27.9948C27.5729 27.947 27.947 27.5729 27.9948 27.1022Z" fill="#D87B38"/>
<path fill-rule="evenodd" clip-rule="evenodd" d="M12.0017 12H20V19.9983L12.0017 12ZM10.5866 10.585C10.9485 10.2235 11.4481 10 12 10H20C21.1046 10 22 10.8954 22 12V20C22 21.1046 21.1046 22 20 22H12C10.8954 22 10 21.1046 10 20V19.9983V12V11.9983C10 11.4461 10.2239 10.9461 10.5858 10.5841L10.5866 10.585Z" fill="#D87B38"/>
</svg>
