<svg width="32" height="32" viewBox="0 0 32 32" fill="none" xmlns="http://www.w3.org/2000/svg">
    <circle cx="16" cy="16" r="16" fill="transparent"/>
    <path fill-rule="evenodd" clip-rule="evenodd" d="M15.5 12C16.8807 12 18 10.8807 18 9.5C18 8.11929 16.8807 7 15.5 7C14.1193 7 13 8.11929 13 9.5C13 10.8807 14.1193 12 15.5 12ZM14 21V18C12.8954 18 12 17.1046 12 16C12 14.8954 12.8954 14 14 14H15C16.6569 14 18 15.3431 18 17V21C19.1046 21 20 21.8954 20 23C20 24.1046 19.1046 25 18 25H14C12.8954 25 12 24.1046 12 23C12 21.8954 12.8954 21 14 21Z" fill="#287492"/>
</svg>

