<svg width="32" height="32" viewBox="0 0 32 32" fill="none" xmlns="http://www.w3.org/2000/svg">
    <circle cx="16" cy="16" r="16" fill="#D87B38"/>
    <path d="M14.0957 13.6406H15.5996C16.3158 13.6406 16.8464 13.4616 17.1914 13.1035C17.5365 12.7454 17.709 12.2702 17.709 11.6777C17.709 11.1048 17.5365 10.6589 17.1914 10.3398C16.8529 10.0208 16.3841 9.86133 15.7852 9.86133C15.2448 9.86133 14.7923 10.0111 14.4277 10.3105C14.0632 10.6035 13.8809 10.9876 13.8809 11.4629H11.0586C11.0586 10.7207 11.2572 10.0566 11.6543 9.4707C12.0579 8.87826 12.6178 8.41602 13.334 8.08398C14.0566 7.75195 14.8509 7.58594 15.7168 7.58594C17.2207 7.58594 18.3991 7.94727 19.252 8.66992C20.1048 9.38607 20.5312 10.3757 20.5312 11.6387C20.5312 12.2897 20.3327 12.8887 19.9355 13.4355C19.5384 13.9824 19.0176 14.4023 18.373 14.6953C19.1738 14.9818 19.7695 15.4115 20.1602 15.9844C20.5573 16.5573 20.7559 17.2344 20.7559 18.0156C20.7559 19.2786 20.2936 20.291 19.3691 21.0527C18.4512 21.8145 17.2337 22.1953 15.7168 22.1953C14.2975 22.1953 13.1354 21.821 12.2305 21.0723C11.332 20.3236 10.8828 19.334 10.8828 18.1035H13.7051C13.7051 18.6374 13.9036 19.0736 14.3008 19.4121C14.7044 19.7507 15.1992 19.9199 15.7852 19.9199C16.4557 19.9199 16.9798 19.7441 17.3574 19.3926C17.7415 19.0345 17.9336 18.5625 17.9336 17.9766C17.9336 16.5573 17.1523 15.8477 15.5898 15.8477H14.0957V13.6406Z" fill="white"/>
</svg>
