<svg width="300" height="300" viewBox="0 0 32 32" fill="none" xmlns="http://www.w3.org/2000/svg">
    <path fill-rule="evenodd" clip-rule="evenodd" d="M24.6267 9.07027L22.9297 7.37322L20.6546 8.76761C20.2718 9.00223 20.0923 9.46323 20.2156 9.89493L20.3212 10.2645L14.4432 16.1425C14.1649 16.1037 13.8726 16.1821 13.6461 16.3804L8.31286 21.0469C7.4983 21.7597 7.45657 23.0128 8.22192 23.7782C8.98727 24.5435 10.2404 24.5018 10.9531 23.6872L15.6197 18.354C15.818 18.1274 15.8964 17.8351 15.8575 17.5567L21.7354 11.6787L22.105 11.7843C22.5367 11.9076 22.9977 11.7281 23.2323 11.3453L24.6267 9.07027Z" fill="#287492"/>
    <path fill-rule="evenodd" clip-rule="evenodd" d="M7.84341 13.5003C6.79649 12.4533 6.45122 10.9705 6.80758 9.63602L8.54959 11.378C8.94012 11.7685 9.57328 11.7685 9.9638 11.378L11.378 9.96381C11.7685 9.57329 11.7685 8.94012 11.378 8.5496L9.63601 6.80759C10.9705 6.45122 12.4533 6.79649 13.5003 7.84341C14.5472 8.89033 14.8925 10.3732 14.5361 11.7077L23.7781 20.9497C24.5592 21.7308 24.5592 22.9971 23.7781 23.7782C22.9971 24.5592 21.7308 24.5592 20.9497 23.7782L11.7077 14.5361C10.3732 14.8925 8.89032 14.5472 7.84341 13.5003Z" fill="#287492"/>
</svg>
