<svg width="19" height="19" viewBox="0 0 19 19" fill="none" xmlns="http://www.w3.org/2000/svg">
<path d="M0.807627 3.63605C0.451257 4.97052 0.796531 6.45338 1.84345 7.5003C2.89037 8.54722 4.37323 8.89249 5.7077 8.53612L14.9498 17.7782C15.7308 18.5592 16.9971 18.5592 17.7782 17.7782C18.5592 16.9971 18.5592 15.7308 17.7782 14.9498L8.53612 5.70769C8.89249 4.37323 8.54722 2.89037 7.5003 1.84345C6.45338 0.79653 4.97052 0.451257 3.63605 0.807628L5.37806 2.54963C5.76858 2.94016 5.76858 3.57332 5.37806 3.96385L3.96385 5.37806C3.57332 5.76859 2.94016 5.76858 2.54963 5.37806L0.807627 3.63605Z" fill="#287492"/>
<path d="M2.31267 15.047L6.08728 11.7442L8.25574 13.9127L4.95295 17.6873C4.24021 18.5018 2.98708 18.5436 2.22173 17.7782C1.45638 17.0129 1.4981 15.7597 2.31267 15.047Z" fill="#287492"/>
<path d="M15.7353 5.67876L13.5354 7.87861L12.1212 6.4644L14.321 4.26455L14.2155 3.89498C14.0921 3.46328 14.2716 3.00228 14.6544 2.76766L16.9295 1.37327L18.6265 3.07032L17.2321 5.34539C16.9975 5.72819 16.5365 5.90769 16.1048 5.78435L15.7353 5.67876Z" fill="#287492"/>
</svg>
