<svg width="32" height="32" viewBox="0 0 32 32" fill="none" xmlns="http://www.w3.org/2000/svg">
    <circle cx="16" cy="16" r="16" fill="#D87B38"/>
    <path d="M20.9707 22H11.2246V20.0664L15.8242 15.1641C16.4557 14.474 16.9212 13.8717 17.2207 13.3574C17.5267 12.8431 17.6797 12.3548 17.6797 11.8926C17.6797 11.2611 17.5202 10.7663 17.2012 10.4082C16.8822 10.0436 16.4264 9.86133 15.834 9.86133C15.196 9.86133 14.6914 10.0827 14.3203 10.5254C13.9557 10.9616 13.7734 11.5378 13.7734 12.2539H10.9414C10.9414 11.388 11.1465 10.597 11.5566 9.88086C11.9733 9.16471 12.5592 8.60482 13.3145 8.20117C14.0697 7.79102 14.9258 7.58594 15.8828 7.58594C17.3477 7.58594 18.4837 7.9375 19.291 8.64062C20.1048 9.34375 20.5117 10.3366 20.5117 11.6191C20.5117 12.3223 20.3294 13.0384 19.9648 13.7676C19.6003 14.4967 18.9753 15.3464 18.0898 16.3164L14.8574 19.7246H20.9707V22Z" fill="white"/>
</svg>
