<svg width="32" height="32" viewBox="0 0 32 32" fill="none" xmlns="http://www.w3.org/2000/svg">
    <circle cx="19" cy="22" r="7" fill="#D87B38"/>
    <path d="M23 22L17 25.4641L17 18.5359L23 22Z" fill="#F6F8F9"/>
    <path d="M6 5C6 3.89543 6.89543 3 8 3H22C23.1046 3 24 3.89543 24 5V12C24 12.5523 23.5523 13 23 13C22.4477 13 22 12.5523 22 12V6C22 5.44772 21.5523 5 21 5H9C8.44772 5 8 5.44772 8 6V24C8 24.5523 8.44772 25 9 25C9.55228 25 10 25.4477 10 26C10 26.5523 9.55228 27 9 27H8C6.89543 27 6 26.1046 6 25V5Z" fill="#D87B38"/>
    <path d="M21 25H22V24C22 24.5523 21.5523 25 21 25Z" fill="#D87B38"/>
    <rect x="10" y="7" width="10" height="2" rx="1" fill="#D87B38"/>
    <rect x="10" y="11" width="6" height="2" rx="1" fill="#D87B38"/>
</svg>
