<svg width="68" height="66" viewBox="0 0 68 66" fill="none" xmlns="http://www.w3.org/2000/svg">
<path d="M36 0C41.7309 6.83397e-08 47.3565 1.53902 52.2893 4.45625C57.2221 7.37349 61.281 11.5619 64.0418 16.5839C66.8027 21.6059 68.1642 27.2771 67.9842 33.0051C67.8042 38.7332 66.0892 44.3077 63.0185 49.1465L36 32V0Z" fill="#287492"/>
<path d="M32 2C26.4399 2 20.9757 3.44874 16.1459 6.20344C11.3162 8.95815 7.28752 12.9238 4.45697 17.7095C1.62643 22.4952 0.091683 27.9358 0.00398104 33.4953C-0.083721 39.0547 1.27865 44.541 3.95683 49.4136C6.63501 54.2863 10.5366 58.377 15.277 61.2826C20.0175 64.1883 25.4333 65.8087 30.9906 65.9841C36.548 66.1595 42.0551 64.8838 46.9694 62.2828C51.8836 59.6818 56.0354 55.8453 59.0155 51.1512L32 34V2Z" fill="#9CBFCB"/>
</svg>
