<svg width="176" height="37" viewBox="0 0 176 37" fill="none" xmlns="http://www.w3.org/2000/svg">
<path fill-rule="evenodd" clip-rule="evenodd" d="M17.3785 17.1485C22.0883 17.1485 25.9064 13.3305 25.9064 8.62064C25.9064 3.91083 22.0883 0.0927734 17.3785 0.0927734C12.6687 0.0927734 8.85062 3.91083 8.85062 8.62064C8.85062 13.3305 12.6687 17.1485 17.3785 17.1485ZM34.744 34.7092C34.8701 35.8066 33.9628 36.705 32.8583 36.705H17.3779H1.89749C0.792922 36.705 -0.114347 35.8066 0.011735 34.7092C0.459997 30.8078 2.21308 27.1488 5.01738 24.3445C8.29558 21.0663 12.7418 19.2246 17.3779 19.2246C22.014 19.2246 26.4602 21.0663 29.7384 24.3445C32.5427 27.1488 34.2957 30.8078 34.744 34.7092Z" fill="#287492"/>
<path fill-rule="evenodd" clip-rule="evenodd" d="M64.4429 17.0557C69.1528 17.0557 72.9708 13.2377 72.9708 8.52787C72.9708 3.81806 69.1528 0 64.4429 0C59.7331 0 55.9151 3.81806 55.9151 8.52787C55.9151 13.2377 59.7331 17.0557 64.4429 17.0557ZM81.8085 34.6164C81.9345 35.7138 81.0273 36.6122 79.9227 36.6122H64.4423H48.9619C47.8574 36.6122 46.9501 35.7138 47.0762 34.6164C47.5244 30.715 49.2775 27.056 52.0818 24.2517C55.36 20.9735 59.8062 19.1318 64.4423 19.1318C69.0784 19.1318 73.5246 20.9735 76.8028 24.2517C79.6071 27.056 81.3602 30.715 81.8085 34.6164Z" fill="#9CBFCB"/>
<path fill-rule="evenodd" clip-rule="evenodd" d="M111.404 17.0557C116.114 17.0557 119.932 13.2377 119.932 8.52787C119.932 3.81806 116.114 0 111.404 0C106.694 0 102.876 3.81806 102.876 8.52787C102.876 13.2377 106.694 17.0557 111.404 17.0557ZM128.769 34.6164C128.895 35.7138 127.988 36.6122 126.884 36.6122H111.403H95.9229C94.8183 36.6122 93.911 35.7138 94.0371 34.6164C94.4854 30.715 96.2385 27.056 99.0428 24.2517C102.321 20.9735 106.767 19.1318 111.403 19.1318C116.039 19.1318 120.486 20.9735 123.764 24.2517C126.568 27.056 128.321 30.715 128.769 34.6164Z" fill="#9CBFCB"/>
<path fill-rule="evenodd" clip-rule="evenodd" d="M158.365 17.0557C163.075 17.0557 166.893 13.2377 166.893 8.52787C166.893 3.81806 163.075 0 158.365 0C153.655 0 149.837 3.81806 149.837 8.52787C149.837 13.2377 153.655 17.0557 158.365 17.0557ZM175.73 34.6164C175.856 35.7138 174.949 36.6122 173.845 36.6122H158.364H142.884C141.779 36.6122 140.872 35.7138 140.998 34.6164C141.446 30.715 143.199 27.056 146.004 24.2517C149.282 20.9735 153.728 19.1318 158.364 19.1318C163 19.1318 167.446 20.9735 170.725 24.2517C173.529 27.056 175.282 30.715 175.73 34.6164Z" fill="#9CBFCB"/>
</svg>
