<svg width="16" height="17" viewBox="0 0 16 17" fill="none" xmlns="http://www.w3.org/2000/svg">
<rect y="0.5" width="16" height="16" rx="2" fill="#027ABE"/>
<path fill-rule="evenodd" clip-rule="evenodd" d="M5.99999 4.5C5.99999 3.94772 6.4477 3.5 6.99999 3.5H11H13V4.49477C13 4.49826 13 4.50174 13 4.50523V5.5V9.5C13 10.0523 12.5523 10.5 12 10.5C11.4477 10.5 11 10.0523 11 9.5L11 6.91423L4.70711 13.2071C4.31658 13.5976 3.68342 13.5976 3.29289 13.2071C2.90237 12.8166 2.90237 12.1834 3.29289 11.7929L9.58579 5.5H6.99999C6.4477 5.5 5.99999 5.05228 5.99999 4.5Z" fill="white"/>
</svg>
