<svg width="213" height="38" viewBox="0 0 213 38" fill="none" xmlns="http://www.w3.org/2000/svg">
<g clip-path="url(#clip0_9651_19988)">
<path d="M23.4545 9.51503L14.0606 22.7272V34.6665C14.0606 35.2726 13.8788 35.7575 13.4545 36.1211C13.0909 36.5453 12.6061 36.7272 12.0606 36.7272C11.4545 36.7272 10.9697 36.5453 10.6061 36.1211C10.1818 35.6969 10 35.212 10 34.6665V22.3635L0.606061 9.75746C0.181818 9.212 0 8.72715 0 8.1817C0 7.57564 0.242424 7.09079 0.727273 6.72715C1.21212 6.30291 1.69697 6.12109 2.24242 6.12109C2.90909 6.12109 3.45455 6.42412 3.93939 7.09079L12.1212 18.4241L20 7.1514C20.4848 6.48473 21.0303 6.12109 21.7576 6.12109C22.303 6.12109 22.7879 6.30291 23.2121 6.72715C23.6364 7.1514 23.8182 7.63625 23.8182 8.1817C23.8182 8.66655 23.697 9.09079 23.4545 9.51503Z" fill="#FD9549"/>
<path d="M43.1514 31.4542C42.1211 33.2724 40.7271 34.6663 38.9696 35.6966C37.212 36.7269 35.2726 37.2118 33.1514 37.2118C31.0302 37.2118 29.0908 36.7269 27.3332 35.6966C25.5756 34.6663 24.1817 33.2724 23.1514 31.4542C22.1211 29.636 21.6362 27.636 21.6362 25.333C21.6362 23.03 22.1211 21.03 23.1514 19.1512C24.1817 17.333 25.5756 15.8785 27.3332 14.8482C29.0908 13.8179 31.0302 13.333 33.1514 13.333C35.2726 13.333 37.212 13.8179 38.9696 14.8482C40.7271 15.8785 42.1211 17.2724 43.1514 19.1512C44.1817 20.9694 44.6665 23.03 44.6665 25.333C44.6665 27.636 44.1817 29.636 43.1514 31.4542ZM39.5756 21.1512C38.909 19.9391 38.0605 18.9694 36.909 18.2421C35.7574 17.5148 34.5453 17.2118 33.1514 17.2118C31.7574 17.2118 30.5453 17.5754 29.3938 18.2421C28.3029 18.9088 27.3938 19.8785 26.7271 21.1512C26.0605 22.4239 25.7574 23.8179 25.7574 25.333C25.7574 26.8482 26.0605 28.2421 26.7271 29.4542C27.3938 30.6663 28.2423 31.636 29.3938 32.3027C30.4847 32.9694 31.7574 33.333 33.1514 33.333C34.5453 33.333 35.7574 32.9694 36.909 32.3027C37.9999 31.636 38.909 30.6663 39.5756 29.4542C40.2423 28.2421 40.5453 26.8482 40.5453 25.333C40.5453 23.7572 40.2423 22.3633 39.5756 21.1512Z" fill="#FD9549"/>
<path d="M66.4848 14.5455C66.8485 14.9698 67.0909 15.4546 67.0909 16.0001V27.6364C67.0909 30.6667 66.2424 33.0304 64.6061 34.6667C62.9091 36.3637 60.5455 37.1516 57.5152 37.1516C54.4849 37.1516 52.1212 36.3031 50.4849 34.6667C48.8485 32.9698 48 30.6667 48 27.6364V16.0001C48 15.394 48.1818 14.9092 48.6061 14.5455C48.9697 14.1213 49.5152 13.9395 50.0606 13.9395C50.6667 13.9395 51.1515 14.1213 51.5758 14.5455C51.9394 14.9698 52.1818 15.4546 52.1818 16.0001V27.6364C52.1818 31.4546 54 33.3334 57.5758 33.3334C59.3333 33.3334 60.7273 32.8485 61.6364 31.8788C62.5455 30.9091 63.0303 29.5152 63.0303 27.5758V16.0001C63.0303 15.394 63.2121 14.9092 63.6364 14.5455C64 14.1213 64.5455 13.9395 65.0909 13.9395C65.5758 13.9395 66.0606 14.1213 66.4848 14.5455Z" fill="#FD9549"/>
<path d="M86.0604 13.9996C86.6058 14.3633 86.9089 14.9087 86.9089 15.4542C86.9089 16.1814 86.727 16.6663 86.3634 17.0299C85.9998 17.3936 85.5755 17.5754 85.0301 17.5754C84.7877 17.5754 84.3634 17.5148 83.8786 17.3329C83.2725 17.1511 82.7877 17.0299 82.424 17.0299C81.5149 17.0299 80.6664 17.3329 79.7574 17.939C78.8483 18.5451 78.1816 19.3936 77.6361 20.4845C77.0907 21.5754 76.8483 22.7875 76.8483 24.1208V34.6663C76.8483 35.2723 76.6664 35.7572 76.2422 36.1208C75.8786 36.5451 75.3331 36.7269 74.7271 36.7269C74.121 36.7269 73.6361 36.5451 73.2725 36.1208C72.9089 35.7572 72.7271 35.2117 72.7271 34.6057V15.9996C72.7271 15.3936 72.9089 14.9087 73.3331 14.5451C73.6967 14.1208 74.2422 13.939 74.7877 13.939C75.3937 13.939 75.8786 14.1208 76.3028 14.5451C76.6664 14.9693 76.9089 15.4542 76.9089 15.9996V18.242C77.5755 16.7875 78.4846 15.636 79.818 14.7875C81.0907 13.8784 82.5452 13.4542 84.1816 13.3936C84.8483 13.3936 85.5149 13.5754 86.0604 13.9996Z" fill="#FD9549"/>
<path d="M112.97 9.75752C112.97 10.303 112.788 10.7878 112.424 11.2121C112.061 11.6969 111.576 11.9393 110.97 11.9393C110.546 11.9393 110.182 11.8181 109.818 11.6363C108 10.606 106.061 10.1212 104 10.1212C101.818 10.1212 99.8789 10.606 98.2425 11.5757C96.5455 12.5454 95.2728 13.8787 94.3637 15.6363C93.4546 17.3939 92.9698 19.3333 92.9698 21.5757C92.9698 23.9999 93.4546 26.0605 94.4243 27.8181C95.394 29.5757 96.7273 30.909 98.4243 31.8181C100.121 32.7272 102 33.2121 104.121 33.2121C106.303 33.2121 108.242 32.6666 109.939 31.6363C110.303 31.4545 110.667 31.3939 111.091 31.3939C111.758 31.3939 112.243 31.6363 112.606 32.1212C112.97 32.5454 113.152 33.0302 113.152 33.5151C113.152 33.8787 113.03 34.1818 112.849 34.4848C112.667 34.7878 112.424 35.0302 112.061 35.2121C110.909 35.8787 109.636 36.3636 108.243 36.7272C106.849 37.0908 105.455 37.2727 104.061 37.2727C101.212 37.2727 98.6667 36.6666 96.2425 35.3939C93.8789 34.1212 92.0001 32.303 90.5455 29.9393C89.091 27.5757 88.4243 24.7878 88.4243 21.5757C88.4243 18.6666 89.091 15.9999 90.4243 13.6363C91.7577 11.2727 93.6364 9.39388 96.0001 8.06055C98.3637 6.72721 101.03 6.06055 103.939 6.06055C106.788 6.06055 109.394 6.78782 111.879 8.18176C112.606 8.42418 112.97 8.96964 112.97 9.75752Z" fill="#287492"/>
<path d="M135.576 14.1814C135.939 14.5451 136.182 15.0905 136.182 15.7572V34.6663C136.182 35.2723 136 35.7572 135.576 36.1208C135.212 36.5451 134.667 36.7269 134.06 36.7269C133.454 36.7269 132.97 36.5451 132.606 36.1208C132.242 35.7572 132.06 35.2117 132.06 34.6057V33.4542C131.333 34.4845 130.242 35.333 128.97 36.0602C127.636 36.7875 126.242 37.1511 124.727 37.1511C122.727 37.1511 120.97 36.6663 119.333 35.636C117.697 34.6057 116.424 33.2117 115.515 31.3936C114.606 29.5754 114.121 27.5148 114.121 25.2723C114.121 23.0299 114.606 20.9693 115.515 19.1511C116.424 17.3329 117.697 15.939 119.273 14.9087C120.848 13.8784 122.606 13.3936 124.545 13.3936C126.06 13.3936 127.515 13.6966 128.848 14.3633C130.182 15.0299 131.212 15.8178 132 16.7875V15.7572C132 15.1511 132.182 14.6663 132.545 14.242C132.909 13.8178 133.394 13.636 134 13.636C134.667 13.636 135.151 13.8178 135.576 14.1814ZM128.788 32.3633C129.879 31.636 130.667 30.7269 131.273 29.4542C131.879 28.242 132.182 26.8481 132.182 25.3329C132.182 23.8178 131.879 22.4239 131.273 21.2117C130.667 19.9996 129.818 19.0299 128.788 18.3026C127.697 17.5754 126.485 17.2117 125.151 17.2117C123.818 17.2117 122.545 17.5754 121.515 18.242C120.485 18.9087 119.636 19.8784 119.03 21.1511C118.424 22.3633 118.121 23.7572 118.121 25.2723C118.121 26.7875 118.424 28.1814 119.03 29.3936C119.636 30.6057 120.485 31.5754 121.515 32.3026C122.545 33.0299 123.818 33.333 125.151 33.333C126.485 33.333 127.757 33.0299 128.788 32.3633Z" fill="#287492"/>
<path d="M154.182 13.9996C154.727 14.3633 155.03 14.9087 155.03 15.4542C155.03 16.1814 154.849 16.6663 154.485 17.0299C154.121 17.3936 153.697 17.5754 153.152 17.5754C152.909 17.5754 152.485 17.5148 152 17.3329C151.394 17.1511 150.909 17.0299 150.546 17.0299C149.637 17.0299 148.788 17.3329 147.879 17.939C147.03 18.5451 146.303 19.3936 145.758 20.4845C145.212 21.5754 144.97 22.7875 144.97 24.1208V34.6663C144.97 35.2723 144.788 35.7572 144.364 36.1208C144 36.5451 143.455 36.7269 142.849 36.7269C142.243 36.7269 141.758 36.5451 141.394 36.1208C141.03 35.7572 140.849 35.2117 140.849 34.6057V15.9996C140.849 15.3936 141.03 14.9087 141.455 14.5451C141.818 14.1208 142.364 13.939 142.909 13.939C143.515 13.939 144 14.1208 144.424 14.5451C144.788 14.9693 145.03 15.4542 145.03 15.9996V18.242C145.697 16.7875 146.606 15.636 147.94 14.7875C149.212 13.8784 150.667 13.4542 152.303 13.3936C152.97 13.3936 153.637 13.5754 154.182 13.9996Z" fill="#287492"/>
<path d="M176 25.8177C175.576 26.1813 175.091 26.3631 174.545 26.3631H159.212C159.394 28.4843 160.242 30.1813 161.636 31.454C163.03 32.7268 164.788 33.3934 166.788 33.3934C168.182 33.3934 169.333 33.2116 170.182 32.7874C171.03 32.3631 171.818 31.8783 172.485 31.2116C172.909 30.9692 173.333 30.848 173.757 30.848C174.242 30.848 174.666 31.0298 175.03 31.3934C175.394 31.7571 175.515 32.1207 175.515 32.6056C175.515 33.2116 175.212 33.7571 174.666 34.2419C173.818 35.0904 172.727 35.8177 171.333 36.3631C169.939 36.9086 168.485 37.2116 167.03 37.2116C164.666 37.2116 162.606 36.7268 160.788 35.7571C158.969 34.7874 157.636 33.3934 156.666 31.6359C155.697 29.8783 155.212 27.8783 155.212 25.6359C155.212 23.2116 155.697 21.0298 156.727 19.2116C157.757 17.3934 159.03 15.9389 160.727 14.9692C162.363 13.9995 164.121 13.5146 166 13.5146C167.879 13.5146 169.636 13.9995 171.212 14.9692C172.848 15.9389 174.121 17.2722 175.151 18.9692C176.121 20.6662 176.666 22.545 176.666 24.6662C176.606 25.0298 176.363 25.454 176 25.8177ZM161.697 18.6056C160.485 19.5146 159.697 20.9692 159.333 22.848H172.182V22.4843C172.06 20.9692 171.333 19.6965 170.121 18.6662C168.909 17.6965 167.454 17.2116 165.939 17.2116C164.303 17.2116 162.909 17.6965 161.697 18.6056Z" fill="#287492"/>
<path d="M211.03 11.0304L210.849 10.8485L207.939 9.09097V3.4546C207.939 2.3637 207.03 1.4546 205.939 1.4546H205.818C204.667 1.4546 203.818 2.3637 203.818 3.4546V6.60612L193.273 0.303089C193.273 0.303089 193.212 0.303089 193.152 0.242483C193.091 0.181877 193.03 0.181877 192.97 0.121271C192.909 0.121271 192.849 0.0606652 192.788 0.0606652C192.727 0.0606652 192.667 5.91837e-05 192.606 5.91837e-05C192.545 5.91837e-05 192.485 5.91837e-05 192.424 -0.0605469C192.364 -0.0605469 192.303 -0.0605469 192.242 -0.0605469C192.182 -0.0605469 192.121 -0.0605469 192.061 -0.0605469C192 -0.0605469 191.939 -0.0605469 191.818 5.91837e-05C191.758 5.91837e-05 191.697 5.91837e-05 191.636 0.0606652C191.576 0.0606652 191.515 0.121271 191.455 0.121271C191.394 0.121271 191.333 0.181877 191.273 0.242483C191.212 0.242483 191.212 0.242483 191.152 0.303089L177.758 8.3637C176.727 8.96976 176.424 10.2425 177.03 11.2728C177.455 11.9395 178.121 12.3031 178.849 12.3031C179.212 12.3031 179.576 12.1819 179.939 12.0001L192.242 4.60612L208 14.0607V35.8788C208 37.0304 208.97 38.0001 210.121 38.0001C211.273 38.0001 212.242 37.0304 212.242 35.8788V13.8182C212.182 12.7879 211.758 11.7576 211.03 11.0304Z" fill="#287492"/>
<path d="M201.757 22.4243H194.242V14.9697C194.242 13.8788 193.333 12.9697 192.242 12.9697H192.121C191.03 12.9697 190.121 13.8788 190.121 14.9697V22.4243H182.606C181.515 22.4243 180.606 23.3334 180.606 24.4243V24.5455C180.606 25.6364 181.515 26.5455 182.606 26.5455H190.121V34.0606C190.121 35.1515 191.03 36.0606 192.121 36.0606H192.242C193.333 36.0606 194.242 35.1515 194.242 34.0606V26.6061H201.757C202.848 26.6061 203.757 25.697 203.757 24.6061V24.4849C203.757 23.3334 202.848 22.4243 201.757 22.4243Z" fill="#FD9549"/>
</g>
<defs>
<clipPath id="clip0_9651_19988">
<rect width="212.182" height="38" fill="white"/>
</clipPath>
</defs>
</svg>
