<svg width="351" height="63" viewBox="0 0 351 63" fill="none" xmlns="http://www.w3.org/2000/svg">
<g clip-path="url(#clip0_2944_313)">
<path d="M38.7 15.6996L23.2 37.4996V57.1996C23.2 58.1996 22.9 58.9996 22.2 59.5996C21.6 60.2996 20.8 60.5996 19.9 60.5996C18.9 60.5996 18.1 60.2996 17.5 59.5996C16.8 58.8996 16.5 58.0996 16.5 57.1996V36.8996L1 16.0996C0.3 15.1996 0 14.3996 0 13.4996C0 12.4996 0.4 11.6996 1.2 11.0996C2 10.3996 2.8 10.0996 3.7 10.0996C4.8 10.0996 5.7 10.5996 6.5 11.6996L20 30.3996L33 11.7996C33.8 10.6996 34.7 10.0996 35.9 10.0996C36.8 10.0996 37.6 10.3996 38.3 11.0996C39 11.7996 39.3 12.5996 39.3 13.4996C39.3 14.2996 39.1 14.9996 38.7 15.6996Z" fill="#FD9549"/>
<path d="M71.1999 51.9C69.4999 54.9 67.2 57.2 64.3 58.9C61.4 60.6 58.2 61.4 54.7 61.4C51.2 61.4 47.9999 60.6 45.0999 58.9C42.1999 57.2 39.9 54.9 38.2 51.9C36.5 48.9 35.7 45.6 35.7 41.8C35.7 38 36.5 34.7 38.2 31.6C39.9 28.6 42.1999 26.2 45.0999 24.5C47.9999 22.8 51.2 22 54.7 22C58.2 22 61.4 22.8 64.3 24.5C67.2 26.2 69.4999 28.5 71.1999 31.6C72.8999 34.6 73.6999 38 73.6999 41.8C73.6999 45.6 72.8999 48.9 71.1999 51.9ZM65.3 34.9C64.2 32.9 62.8 31.3 60.9 30.1C59 28.9 57 28.4 54.7 28.4C52.4 28.4 50.4 29 48.5 30.1C46.7 31.2 45.1999 32.8 44.0999 34.9C42.9999 37 42.5 39.3 42.5 41.8C42.5 44.3 42.9999 46.6 44.0999 48.6C45.1999 50.6 46.6 52.2 48.5 53.3C50.3 54.4 52.4 55 54.7 55C57 55 59 54.4 60.9 53.3C62.7 52.2 64.2 50.6 65.3 48.6C66.4 46.6 66.9 44.3 66.9 41.8C66.9 39.2 66.4 36.9 65.3 34.9Z" fill="#FD9549"/>
<path d="M109.7 24C110.3 24.7 110.7 25.5 110.7 26.4V45.6C110.7 50.6 109.3 54.5 106.6 57.2C103.8 60 99.9 61.3 94.9 61.3C89.9 61.3 86 59.9 83.3 57.2C80.6 54.4 79.2 50.6 79.2 45.6V26.4C79.2 25.4 79.5 24.6 80.2 24C80.8 23.3 81.7 23 82.6 23C83.6 23 84.4 23.3 85.1 24C85.7 24.7 86.1 25.5 86.1 26.4V45.6C86.1 51.9 89.1 55 95 55C97.9 55 100.2 54.2 101.7 52.6C103.2 51 104 48.7 104 45.5V26.4C104 25.4 104.3 24.6 105 24C105.6 23.3 106.5 23 107.4 23C108.2 23 109 23.3 109.7 24Z" fill="#FD9549"/>
<path d="M142 23.0996C142.9 23.6996 143.4 24.5996 143.4 25.4996C143.4 26.6996 143.1 27.4996 142.5 28.0996C141.9 28.6996 141.2 28.9996 140.3 28.9996C139.9 28.9996 139.2 28.8996 138.4 28.5996C137.4 28.2996 136.6 28.0996 136 28.0996C134.5 28.0996 133.1 28.5996 131.6 29.5996C130.1 30.5996 129 31.9996 128.1 33.7996C127.2 35.5996 126.8 37.5996 126.8 39.7996V57.1996C126.8 58.1996 126.5 58.9996 125.8 59.5996C125.2 60.2996 124.3 60.5996 123.3 60.5996C122.3 60.5996 121.5 60.2996 120.9 59.5996C120.3 58.9996 120 58.0996 120 57.0996V26.3996C120 25.3996 120.3 24.5996 121 23.9996C121.6 23.2996 122.5 22.9996 123.4 22.9996C124.4 22.9996 125.2 23.2996 125.9 23.9996C126.5 24.6996 126.9 25.4996 126.9 26.3996V30.0996C128 27.6996 129.5 25.7996 131.7 24.3996C133.8 22.8996 136.2 22.1996 138.9 22.0996C140 22.0996 141.1 22.3996 142 23.0996Z" fill="#FD9549"/>
<path d="M186.4 16.1C186.4 17 186.1 17.8 185.5 18.5C184.9 19.3 184.1 19.7 183.1 19.7C182.4 19.7 181.8 19.5 181.2 19.2C178.2 17.5 175 16.7 171.6 16.7C168 16.7 164.8 17.5 162.1 19.1C159.3 20.7 157.2 22.9 155.7 25.8C154.2 28.7 153.4 31.9 153.4 35.6C153.4 39.6 154.2 43 155.8 45.9C157.4 48.8 159.6 51 162.4 52.5C165.2 54 168.3 54.8 171.8 54.8C175.4 54.8 178.6 53.9 181.4 52.2C182 51.9 182.6 51.8 183.3 51.8C184.4 51.8 185.2 52.2 185.8 53C186.4 53.7 186.7 54.5 186.7 55.3C186.7 55.9 186.5 56.4 186.2 56.9C185.9 57.4 185.5 57.8 184.9 58.1C183 59.2 180.9 60 178.6 60.6C176.3 61.2 174 61.5 171.7 61.5C167 61.5 162.8 60.5 158.8 58.4C154.9 56.3 151.8 53.3 149.4 49.4C147 45.5 145.9 40.9 145.9 35.6C145.9 30.8 147 26.4 149.2 22.5C151.4 18.6 154.5 15.5 158.4 13.3C162.3 11.1 166.7 10 171.5 10C176.2 10 180.5 11.2 184.6 13.5C185.8 13.9 186.4 14.8 186.4 16.1Z" fill="#287492"/>
<path d="M223.7 23.3996C224.3 23.9996 224.7 24.8996 224.7 25.9996V57.1996C224.7 58.1996 224.4 58.9996 223.7 59.5996C223.1 60.2996 222.2 60.5996 221.2 60.5996C220.2 60.5996 219.4 60.2996 218.8 59.5996C218.2 58.9996 217.9 58.0996 217.9 57.0996V55.1996C216.7 56.8996 214.9 58.2996 212.8 59.4996C210.6 60.6996 208.3 61.2996 205.8 61.2996C202.5 61.2996 199.6 60.4996 196.9 58.7996C194.2 57.0996 192.1 54.7996 190.6 51.7996C189.1 48.7996 188.3 45.3996 188.3 41.6996C188.3 37.9996 189.1 34.5996 190.6 31.5996C192.1 28.5996 194.2 26.2996 196.8 24.5996C199.4 22.8996 202.3 22.0996 205.5 22.0996C208 22.0996 210.4 22.5996 212.6 23.6996C214.8 24.7996 216.5 26.0996 217.8 27.6996V25.9996C217.8 24.9996 218.1 24.1996 218.7 23.4996C219.3 22.7996 220.1 22.4996 221.1 22.4996C222.2 22.4996 223 22.7996 223.7 23.3996ZM212.5 53.3996C214.3 52.1996 215.6 50.6996 216.6 48.5996C217.6 46.5996 218.1 44.2996 218.1 41.7996C218.1 39.2996 217.6 36.9996 216.6 34.9996C215.6 32.9996 214.2 31.3996 212.5 30.1996C210.7 28.9996 208.7 28.3996 206.5 28.3996C204.3 28.3996 202.2 28.9996 200.5 30.0996C198.8 31.1996 197.4 32.7996 196.4 34.8996C195.4 36.8996 194.9 39.1996 194.9 41.6996C194.9 44.1996 195.4 46.4996 196.4 48.4996C197.4 50.4996 198.8 52.0996 200.5 53.2996C202.2 54.4996 204.3 54.9996 206.5 54.9996C208.7 54.9996 210.8 54.4996 212.5 53.3996Z" fill="#287492"/>
<path d="M254.4 23.0996C255.3 23.6996 255.8 24.5996 255.8 25.4996C255.8 26.6996 255.5 27.4996 254.9 28.0996C254.3 28.6996 253.6 28.9996 252.7 28.9996C252.3 28.9996 251.6 28.8996 250.8 28.5996C249.8 28.2996 249 28.0996 248.4 28.0996C246.9 28.0996 245.5 28.5996 244 29.5996C242.6 30.5996 241.4 31.9996 240.5 33.7996C239.6 35.5996 239.2 37.5996 239.2 39.7996V57.1996C239.2 58.1996 238.9 58.9996 238.2 59.5996C237.6 60.2996 236.7 60.5996 235.7 60.5996C234.7 60.5996 233.9 60.2996 233.3 59.5996C232.7 58.9996 232.4 58.0996 232.4 57.0996V26.3996C232.4 25.3996 232.7 24.5996 233.4 23.9996C234 23.2996 234.9 22.9996 235.8 22.9996C236.8 22.9996 237.6 23.2996 238.3 23.9996C238.9 24.6996 239.3 25.4996 239.3 26.3996V30.0996C240.4 27.6996 241.9 25.7996 244.1 24.3996C246.2 22.8996 248.6 22.1996 251.3 22.0996C252.4 22.0996 253.5 22.3996 254.4 23.0996Z" fill="#287492"/>
<path d="M290.4 42.5998C289.7 43.1998 288.9 43.4998 288 43.4998H262.7C263 46.9998 264.4 49.7998 266.7 51.8998C269 53.9998 271.9 55.0998 275.2 55.0998C277.5 55.0998 279.4 54.7998 280.8 54.0998C282.2 53.3998 283.5 52.5998 284.6 51.4998C285.3 51.0998 286 50.8998 286.7 50.8998C287.5 50.8998 288.2 51.1998 288.8 51.7998C289.4 52.3998 289.6 52.9998 289.6 53.7998C289.6 54.7998 289.1 55.6998 288.2 56.4998C286.8 57.8998 285 59.0998 282.7 59.9998C280.4 60.8998 278 61.3998 275.6 61.3998C271.7 61.3998 268.3 60.5998 265.3 58.9998C262.3 57.3998 260.1 55.0998 258.5 52.1998C256.9 49.2998 256.1 45.9998 256.1 42.2998C256.1 38.2998 256.9 34.6998 258.6 31.6998C260.3 28.6998 262.4 26.2998 265.2 24.6998C267.9 23.0998 270.8 22.2998 273.9 22.2998C277 22.2998 279.9 23.0998 282.5 24.6998C285.2 26.2998 287.3 28.4998 289 31.2998C290.6 34.0998 291.5 37.1998 291.5 40.6998C291.4 41.2998 291 41.9998 290.4 42.5998ZM266.8 30.6998C264.8 32.1998 263.5 34.5998 262.9 37.6998H284.1V37.0998C283.9 34.5998 282.7 32.4998 280.7 30.7998C278.7 29.1998 276.3 28.3998 273.8 28.3998C271.1 28.3998 268.8 29.1998 266.8 30.6998Z" fill="#287492"/>
<path d="M348.2 18.2004L347.9 17.9004L343.1 15.0004V5.70039C343.1 3.90039 341.6 2.40039 339.8 2.40039H339.6C337.7 2.40039 336.3 3.90039 336.3 5.70039V10.9004L318.9 0.500391C318.9 0.500391 318.8 0.500391 318.7 0.400391C318.6 0.300391 318.5 0.300391 318.4 0.200391C318.3 0.200391 318.2 0.100391 318.1 0.100391C318 0.100391 317.9 0.000390626 317.8 0.000390626C317.7 0.000390626 317.6 0.000390626 317.5 -0.0996094C317.4 -0.0996094 317.3 -0.0996094 317.2 -0.0996094C317.1 -0.0996094 317 -0.0996094 316.9 -0.0996094C316.8 -0.0996094 316.7 -0.0996094 316.5 0.000390626C316.4 0.000390626 316.3 0.000390626 316.2 0.100391C316.1 0.100391 316 0.200391 315.9 0.200391C315.8 0.200391 315.7 0.300391 315.6 0.400391C315.5 0.400391 315.5 0.400391 315.4 0.500391L293.3 13.8004C291.6 14.8004 291.1 16.9004 292.1 18.6004C292.8 19.7004 293.9 20.3004 295.1 20.3004C295.7 20.3004 296.3 20.1004 296.9 19.8004L317.2 7.60039L343.2 23.2004V59.2004C343.2 61.1004 344.8 62.7004 346.7 62.7004C348.6 62.7004 350.2 61.1004 350.2 59.2004V22.8004C350.1 21.1004 349.4 19.4004 348.2 18.2004Z" fill="#287492"/>
<path d="M332.9 37.0004H320.5V24.7004C320.5 22.9004 319 21.4004 317.2 21.4004H317C315.2 21.4004 313.7 22.9004 313.7 24.7004V37.0004H301.3C299.5 37.0004 298 38.5004 298 40.3004V40.5004C298 42.3004 299.5 43.8004 301.3 43.8004H313.7V56.2004C313.7 58.0004 315.2 59.5004 317 59.5004H317.2C319 59.5004 320.5 58.0004 320.5 56.2004V43.9004H332.9C334.7 43.9004 336.2 42.4004 336.2 40.6004V40.4004C336.2 38.5004 334.7 37.0004 332.9 37.0004Z" fill="#FD9549"/>
</g>
<defs>
<clipPath id="clip0_2944_313">
<rect width="350.1" height="62.7" fill="white"/>
</clipPath>
</defs>
</svg>
