<svg xmlns="http://www.w3.org/2000/svg" xmlns:xlink="http://www.w3.org/1999/xlink" viewBox="0 0 192 108"><defs><style>.cls-1,.cls-11,.cls-32,.cls-33,.cls-34,.cls-39,.cls-40,.cls-46,.cls-50,.cls-62,.cls-63{fill:none;}.cls-2{isolation:isolate;}.cls-3{clip-path:url(#clip-path);}.cls-4{fill:#ffefcf;}.cls-5{fill:#ffde9c;}.cls-6{fill:#feebbf;}.cls-7{fill:#99855c;mix-blend-mode:multiply;opacity:0.1;}.cls-8{fill:#474747;}.cls-9{fill:#67767a;}.cls-10{clip-path:url(#clip-path-2);}.cls-11{stroke:#fedd92;stroke-width:0.2px;}.cls-11,.cls-32,.cls-33,.cls-34,.cls-39,.cls-40,.cls-46,.cls-50,.cls-62,.cls-63{stroke-miterlimit:10;}.cls-12{fill:#a57d35;}.cls-13{fill:#f4bf56;}.cls-14{fill:#fed882;}.cls-15{fill:#fecf65;}.cls-16{fill:#7a443c;}.cls-17{fill:#122e35;}.cls-18{fill:#845145;}.cls-19{fill:#112a30;}.cls-20{fill:#183c44;}.cls-21{fill:#0e2328;}.cls-22{fill:#041316;}.cls-23{fill:#fff7ea;}.cls-24{fill:#b0b0b0;}.cls-25{fill:#591c1b;}.cls-26{fill:#eba554;}.cls-27{fill:#f5af66;}.cls-28{fill:#ccc;}.cls-29{fill:#e2b150;}.cls-30{fill:#5b322f;}.cls-31{fill:#969595;}.cls-32,.cls-33{stroke:#fff7ec;}.cls-32{stroke-width:0.11px;}.cls-33{stroke-width:0.04px;}.cls-34{stroke:#0f262d;stroke-width:0.08px;}.cls-34,.cls-46{stroke-linecap:round;}.cls-35{fill:#b5b5b5;}.cls-36{fill:#aacbee;}.cls-37{fill:#87b1d8;}.cls-38{fill:#eef7ff;}.cls-39{stroke:#fffaee;}.cls-39,.cls-40{stroke-width:0.2px;}.cls-40,.cls-46{stroke:#67767a;}.cls-41{fill:#f7f7f7;}.cls-42{fill:#9cc2e1;}.cls-43{fill:#fff;}.cls-44{fill:#596568;}.cls-45{fill:#d1d1d1;}.cls-46{stroke-width:0.6px;}.cls-47{fill:#fffaee;}.cls-48{fill:#c78056;}.cls-49{fill:#b87447;}.cls-50,.cls-62,.cls-63{stroke:#153541;}.cls-50{stroke-width:0.07px;}.cls-51{fill:#161b1b;}.cls-52{fill:#441712;}.cls-53{fill:#fff7ec;}.cls-54{fill:#a15d31;}.cls-55{fill:#272d2d;}.cls-56{fill:#553815;}.cls-57{fill:#f9f9f9;}.cls-58{fill:#bbdbfb;}.cls-59{fill:#dfdfdf;}.cls-60{fill:#153541;}.cls-61{fill:#ae683b;}.cls-62{stroke-width:0.1px;}.cls-63{stroke-width:0.09px;}.cls-64{fill:#595959;}.cls-65{fill:#c4c5c6;}.cls-66{fill:#3f6480;}.cls-67{fill:#494949;}.cls-68{fill:#031114;}.cls-69{fill:#333;}.cls-70{fill:#0a1416;}.cls-71{fill:#c8b79e;}</style><clipPath id="clip-path"><path class="cls-1" d="M49.06,30.56c-4.93,3.12-16.6,15.08-16.79,32.13-.13,11.23,4.82,24.44,15.19,31.49,11.37,7.73,17.79.28,53.38,1.06,22.07.48,29.9,3.56,40.29-2.78,9.89-6,14.13-15.77,15.58-19.86,5.64-15.85-.05-33.08-8.65-43.71C129.31,5.7,90.37,8.6,67.68,19.35c-2.35,1.12-4.27,2.2-5.63,3Z"/></clipPath><clipPath id="clip-path-2"><path class="cls-1" d="M156.72,72.65c-7.2,15.53-25.9,19-54.56,24.44-24.54,4.61-43.35,4.25-55.68-4.87C37.59,85.65,32.1,75.67,32.27,62.74c.26-19.53,15-30.84,16.79-32.13V17.13H62.78v5.58c2-1.33,3.48-2.41,4.91-3.31,22-13.86,61.42-13.91,80.38,9.54C156.44,39.3,163.63,57.73,156.72,72.65Z"/></clipPath></defs><g class="cls-2"><g id="Layer_1" data-name="Layer 1"><g class="cls-3"><rect class="cls-4" x="16.87" y="9.52" width="158.14" height="88.95"/><rect class="cls-5" x="16.87" y="68.23" width="158.14" height="35.05"/><path class="cls-6" d="M167.62,45.91c1.7,6.58-9.05,19.54-21.62,18.74-9.32-.6-18.71-8.72-18.71-18.72,0-12.35,13.89-20.92,18.71-18.71,3.5,1.59,1,9.3,5.78,12,3.53,2,6.87-1,11.43,1.63C163.54,41,166.86,43,167.62,45.91Z"/><path class="cls-6" d="M96.28,48.17c-3.41,4.25-15.11,19-32.4,17.37C50.08,64.2,35.5,53.34,36.21,42.9c.33-4.82,4-10.25,8.8-11.84,6.67-2.19,10.29,4.5,17.64,3.24,8.14-1.41,7.84-10.5,17.36-15,8.31-4,20.81-2.95,24.81,3.42C110,31,98.7,45.15,96.28,48.17Z"/></g><ellipse class="cls-7" cx="56.17" cy="91.74" rx="18.83" ry="2.81"/><path class="cls-6" d="M65.86,14.36c-.42-1.26-3-1.43-3.86-1.48-5.57-.36-9.62,3.52-15.07,8.12-11.3,9.56-16.36,11.88-15.85,12.78.79,1.39,12.6-4.06,19.81-7.93C55.19,23.54,66.83,17.29,65.86,14.36Z"/><ellipse class="cls-7" cx="132.37" cy="79.56" rx="23.49" ry="3.51"/><ellipse class="cls-7" cx="94.08" cy="81.32" rx="23.49" ry="3.51"/><ellipse class="cls-7" cx="73.65" cy="79.57" rx="18.83" ry="3.19"/><circle class="cls-8" cx="83.82" cy="77" r="0.75"/><path class="cls-9" d="M82.77,76.73h2a1.83,1.83,0,0,0-.94-1.44,12.74,12.74,0,0,0-3.25-.39c-.85,0-5.44-.14-5.44-.14v2a6.9,6.9,0,0,1,1.59-1c.52-.13,4.56-.18,5-.18A1.06,1.06,0,0,1,82.77,76.73Z"/><g class="cls-10"><rect class="cls-11" x="108.82" y="15.14" width="24.49" height="28.06"/><rect class="cls-11" x="110.51" y="17.08" width="21.1" height="24.18"/><path class="cls-11" d="M124.54,23a3.28,3.28,0,0,1,2.15,5.17c-1.93,2.75-3.66,4.62-5.79,7.39-2.05-2.72-3.81-4.65-5.71-7.41A3.28,3.28,0,0,1,117.35,23a3,3,0,0,1,.43,0A3.66,3.66,0,0,1,121,24.78,3.66,3.66,0,0,1,124.12,23,3,3,0,0,1,124.54,23Z"/><polygon class="cls-11" points="123.66 27.87 123.66 29.94 121.94 29.94 121.94 31.66 119.87 31.66 119.87 29.94 118.14 29.94 118.14 27.87 119.87 27.87 119.87 26.15 121.94 26.15 121.94 27.87 123.66 27.87"/><path class="cls-12" d="M118.51,78.3l1,.25s.36-17.59.72-18.89A1.73,1.73,0,0,1,122,58.28c.37,0,9.51-1,10-1s1.24.76,1.24.76l.07-1a2.55,2.55,0,0,0-1-.47c-.4,0-11.17,1-11.68,1.3a2.15,2.15,0,0,0-1.38,1.82C119.16,60.34,118.51,78.3,118.51,78.3Z"/><polygon class="cls-12" points="141.26 68.45 146.67 69.95 146.11 68.23 141.26 68.45"/><path class="cls-13" d="M132.74,63.31a40.61,40.61,0,0,1,.63-7.59c.71-3.48,1.14-4.76,1.9-5s10.18,1.22,10.61,1.36,1.44.38,1.44.92c0,0-2.55,4.79-3,7.13a46.73,46.73,0,0,0-.4,6.28Z"/><polygon class="cls-12" points="135.16 68.48 137.16 77.89 138.01 77.89 136.38 68.12 135.16 68.48"/><polygon class="cls-12" points="119.52 68.23 130.32 71.55 130.38 69.57 119.47 66.38 119.52 68.23"/><path class="cls-14" d="M130.05,69.62l16.06-1.39-2.54-2.5s-8-.18-9.43.07-4.1.38-4.55,1.18a3.19,3.19,0,0,0,0,2.27A2,2,0,0,0,130.05,69.62Z"/><path class="cls-15" d="M119.59,66.34a1.74,1.74,0,0,1,0-1.48,2.07,2.07,0,0,1,1.34-1c.81-.22,8-.74,8.76-.79a31.57,31.57,0,0,1,3.21,0c.59.06,6.06,1.2,6.93,1.44s3.73,1.2,3.73,1.2l-11.83.82a2.22,2.22,0,0,0-1.93,1.19,2.26,2.26,0,0,0,.24,1.88l-2-.49c-3.34-.83-5.1-1.41-6.12-1.67C120.29,67.06,119.94,67.05,119.59,66.34Z"/><path class="cls-14" d="M147.32,53c-.16-.49-.95-.43-1.49-.13-.38.2-1.07.58-1.8,3.7a21.62,21.62,0,0,0-.69,5.16c0,1.34.32,5.37.23,4h0l2.54,2.5s-.91-6.8-.83-7.12S147.35,53.05,147.32,53Z"/><path class="cls-16" d="M124.31,50.78c-.14.5-.19.77-.5,1.65a5,5,0,0,0-.2,2.42,5.87,5.87,0,0,1,.15,1.06c0,.11.75-.9,1-.9a4.47,4.47,0,0,0,.65,0,5.46,5.46,0,0,0,.11-1.84Z"/><path class="cls-17" d="M135,57.3a11,11,0,0,1,.57,2,6.74,6.74,0,0,1-.43,3.87,5.31,5.31,0,0,1-2.8,1.83c-1.23.42-4.73,1.31-4.89,1.47A25.44,25.44,0,0,1,124.57,68c-.46.17-5-1.83-4.92-2.61s.9-1.94,3-3.21,5.06-2.57,5.63-2.88S131.91,57,132.42,57,135,57.3,135,57.3Z"/><path class="cls-17" d="M124.6,56.44a23.46,23.46,0,0,1-3.23,2.65A22.73,22.73,0,0,0,117,63.66a2.63,2.63,0,0,0-.36,1.81c.1.64,2.8.19,3.31,0s11.07-6.8,11.73-7.45,1-1.22.7-1.22S124.6,56.44,124.6,56.44Z"/><path class="cls-17" d="M127.9,43.2a12.93,12.93,0,0,0-2.76.68,2.76,2.76,0,0,0-.9,2.29c.09,1,.15,3.13.15,3.47S127.9,43.2,127.9,43.2Z"/><path class="cls-17" d="M134.59,53.87a4.79,4.79,0,0,0,0,.75c.05.6.15,1.33.24,1.91s.18,1,.18,1-10.67-.61-10.67-.72.29-.61.56-1.22a7.78,7.78,0,0,0,.43-1,1.74,1.74,0,0,0,.09-.43,5.7,5.7,0,0,0-1-2.57c-.74-1.34-.08-3.19.24-4.14s1.44-3.44,2-3.63a11,11,0,0,0,1.27-.56s3-.62,3.2-.62.47.27,1,.56a5.83,5.83,0,0,0,.68.3,14.67,14.67,0,0,1,1.79,1c.55.28.53,4.49.53,5S134.66,52.85,134.59,53.87Z"/><path class="cls-18" d="M131.4,40.22a5.29,5.29,0,0,1-2.23,1.83,3.28,3.28,0,0,1-2.27.15,1.4,1.4,0,0,1-.75-.89,6.67,6.67,0,0,1-.08-2.36c.09-.48-.09-.53-.17-1.32a.51.51,0,0,1,0-.13,3.22,3.22,0,0,1,0-.44,2.38,2.38,0,0,1,.93-1.57,4.22,4.22,0,0,1,3.21-.73,3.81,3.81,0,0,1,2.3,2A6.06,6.06,0,0,1,131.4,40.22Z"/><path class="cls-18" d="M130.91,40.41a.46.46,0,0,0,.6,0,3,3,0,0,0,.6-1.27c0-.38-.22-.76-.45-.72a1.23,1.23,0,0,0-.64.7A9.36,9.36,0,0,0,130.91,40.41Z"/><path class="cls-18" d="M119.75,65a4.1,4.1,0,0,0-.42,2.11,47.37,47.37,0,0,0,.53,5.37c.2,1,.58,6,.58,7s2.36.58,2.55.39a21.93,21.93,0,0,0,1.56-5.08c.32-2,.51-2.79.25-4.1s-.69-1.92-.69-2.25,1-.68,1-.68Z"/><path class="cls-18" d="M116.65,64.77a26.58,26.58,0,0,0-.33,4.16,29.17,29.17,0,0,0,1.21,5.59c.34,1.07,1.44,4.94,1.59,5.52a.71.71,0,0,0,.79.58h.46s.3-2.06.3-2.25-.78-12.74-.81-13.13S116.65,64.77,116.65,64.77Z"/><path class="cls-18" d="M132.81,43.44A12.92,12.92,0,0,1,131,45.49a12.58,12.58,0,0,1-1.79,1.37h0a12.21,12.21,0,0,1-1.36.75,6.08,6.08,0,0,1-.33-2.37,5,5,0,0,1,.06-.56s.12-.93.14-1.44a1.63,1.63,0,0,0,0-.24c0-.34-.39-.64-.68-.81l4.06-1.64s-.07.85-.11,1.15a1.86,1.86,0,0,0,0,.26C131.06,42.67,132.35,43.25,132.81,43.44Z"/><path class="cls-17" d="M116.91,63.9c-.85,1.6-1.81,4.8-1.21,6.52.46,1.31,4-3.73,4-3.73s.91,4,1.34,4.39,6-4.52,7.24-4.87C130.63,65.53,116.91,63.9,116.91,63.9Z"/><path class="cls-19" d="M127.85,47.62a14,14,0,0,0,1,2.75,12.49,12.49,0,0,0,1.53,2.46,13.06,13.06,0,0,0,4.49,3.61,10.41,10.41,0,0,1-2.59-1.38A11.18,11.18,0,0,1,130.11,53,10.81,10.81,0,0,1,127.85,47.62Z"/><path class="cls-18" d="M139.25,56a6.36,6.36,0,0,1-2,.84,20.24,20.24,0,0,1-1.66-3.89,21.83,21.83,0,0,0-.93-2.11l-.42-.86c-.38-.82-.72-1.53-.79-1.71-.17-.48-.56-2.27-.19-3a2,2,0,0,1,1.29-.85,7.54,7.54,0,0,1,2.49,3.06l.2.4c.18.41.38.9.58,1.43.75,2,1.48,4.45,1.56,4.8A2.81,2.81,0,0,1,139.25,56Z"/><path class="cls-20" d="M134.84,56.53l-7.72-.46-2.21-.49a7.78,7.78,0,0,0,.43-1c.45.24,1.47.78,1.78.93s6.45-.76,7.48-.84C134.65,55.22,134.75,56,134.84,56.53Z"/><path class="cls-17" d="M134.63,55.44a31.53,31.53,0,0,1-3.49.37,25.53,25.53,0,0,1-3.5-.07c1.16,0,2.33,0,3.49-.11a33.21,33.21,0,0,0,3.45-.45Z"/><path class="cls-19" d="M119.65,66.69a7.73,7.73,0,0,1,3.86-3.22c1.63-.61,3.4-.43,5-.7a5.67,5.67,0,0,0,2.29-.88,6.77,6.77,0,0,0,1.74-1.76,15.47,15.47,0,0,0,2-4.6,13.85,13.85,0,0,1-1.85,4.73A6.5,6.5,0,0,1,131,62.11a5.82,5.82,0,0,1-2.4,1c-1.7.25-3.41.08-5,.63A8.06,8.06,0,0,0,119.65,66.69Z"/><path class="cls-18" d="M137.18,54.12a28.44,28.44,0,0,0-3.54,1.26,14.76,14.76,0,0,1-3.15.7c-.66,0-.62.72-.64.89a1.35,1.35,0,0,0,.48,1.05c.5-.06,1.17-.13,1.95-.24a31,31,0,0,0,3.88-.65c.5-.13,1.16-.31,1.93-.58Z"/><path class="cls-16" d="M125.31,55a3.84,3.84,0,0,1,1,.41c.16.16,1,.15,1.17.15a.28.28,0,0,1,.27.36,1.2,1.2,0,0,1-.93.34c-.24-.07-.5,0-.46,0s.86.21.81.39-2.14,1-2.59.52-.76-.66-.81-1.25a1.17,1.17,0,0,1,.72-.94A1.38,1.38,0,0,1,125.31,55Z"/><path class="cls-18" d="M119,79.57a4.05,4.05,0,0,1-.7,2.76,19.91,19.91,0,0,0-2.06,2.12,8.46,8.46,0,0,0-.84,2.48c0,.46.88.87,1.51,1s1.79-2.3,2.35-2.86,1.45-4.21,1.36-4.6S119,79.57,119,79.57Z"/><path class="cls-21" d="M116.5,84.1a7.62,7.62,0,0,0-1.32,2.78c0,.37.53.88.95,1a2.75,2.75,0,0,0,1.48,0c.31-.14,1.83-3,2.13-3.25s.39-1.84.39-1.84a11.31,11.31,0,0,1-1.93,2.28,1.44,1.44,0,0,1-1.49-.12C116.52,84.77,116.5,84.1,116.5,84.1Z"/><path class="cls-18" d="M130.35,56.07a9.3,9.3,0,0,1-1.5-.11,2.38,2.38,0,0,0-1,0,4,4,0,0,1-.83.2c-.25,0-.87-.28-1-.2a.26.26,0,0,0,0,.37,2.77,2.77,0,0,0,.7.3,1.94,1.94,0,0,1-.66.32c-.28,0-.91.14-1.06.14s-.38-.18-.49-.07.14.41.19.46-.1.22,0,.4.34.47.46.47h.18s0,.25.07.34a2.29,2.29,0,0,0,.63.18s0,.24.07.35.34.14.72.14,1.16-.1,1.24-.1,2.1-1.19,2.4-1.29S130.35,56.07,130.35,56.07Z"/><path class="cls-16" d="M124.8,57.52l.45.14a1.49,1.49,0,0,0,.47,0c.32,0,.63-.08,1-.08a7.69,7.69,0,0,1-.94.16,1.34,1.34,0,0,1-.49,0Z"/><path class="cls-16" d="M125.41,58.31a6.74,6.74,0,0,0,.78,0c.26,0,.53,0,.79,0a7.18,7.18,0,0,1-.79.12A2.91,2.91,0,0,1,125.41,58.31Z"/><path class="cls-16" d="M126.11,58.83a3.36,3.36,0,0,1,1,0A3.06,3.06,0,0,1,126.11,58.83Z"/><path class="cls-18" d="M123.08,79.63a6.24,6.24,0,0,0,.49,1.72,3.23,3.23,0,0,1-.06,1.51c-.09.38-.93,1.21-1.35,2.29a13.94,13.94,0,0,1-1.79,3.52,4.34,4.34,0,0,1-1.88.65c-.6,0-1.83-.51-1.75-1.09s1.39-1.42,1.63-1.85,1.42-3.78,1.58-4.27a15.09,15.09,0,0,0,.57-2.8C120.51,78.68,123.08,79.63,123.08,79.63Z"/><path class="cls-21" d="M118.37,86.38c-.86.63-1.75,1.45-1.75,1.75a1.34,1.34,0,0,0,.51,1,2.69,2.69,0,0,0,1.51.31,3.63,3.63,0,0,0,2.08-.82c.83-.68.56-1.1,1.51-2.26a19.48,19.48,0,0,0,1-1.89c.33-.35.51-.38.63-.64s.13-.33,0-1.21-.08-1.24-.21-1.26-.34.58-.7,1.32a13.6,13.6,0,0,1-1.54,2.35c-.9,1.21-1.3,2.29-1.53,2.41-.44.23-1.35.56-1.67.17S118.34,86.43,118.37,86.38Z"/><path class="cls-22" d="M126.45,38.51a.31.31,0,0,1-.19.05.74.74,0,0,1-.25-.05s.22.17.33.16S126.45,38.51,126.45,38.51Z"/><path class="cls-23" d="M127,38.67c0-.18-.13-.26-.31-.27s-.32.08-.33.26a.33.33,0,0,0,.32.33A.32.32,0,0,0,127,38.67Z"/><path class="cls-22" d="M126.79,38.64a.2.2,0,0,0-.22-.21c-.13,0-.24.07-.24.2a.24.24,0,0,0,.23.24A.23.23,0,0,0,126.79,38.64Z"/><path class="cls-16" d="M127,38.56s-.14-.11-.35-.13a.6.6,0,0,0-.25,0c-.07,0-.1.06-.12,0s0-.16.06-.24a.37.37,0,0,1,.33-.1.41.41,0,0,1,.29.15C127,38.4,127.07,38.52,127,38.56Z"/><path class="cls-16" d="M132,38.72c-.12-.12-.48,0-.68.15a2.84,2.84,0,0,0-.36.67,2.68,2.68,0,0,1,.29-.85c.19-.19.56-.28.68-.16A.5.5,0,0,1,132,38.72Z"/><path class="cls-24" d="M128.18,37.82a.51.51,0,0,1,.48-.1c.16.09.31.21.31.39a1,1,0,0,0-.36-.23A1,1,0,0,0,128.18,37.82Z"/><path class="cls-24" d="M126.14,38a.63.63,0,0,1,.34-.34c.17,0,.38,0,.42.2a.41.41,0,0,0-.37,0A1.59,1.59,0,0,0,126.14,38Z"/><path class="cls-25" d="M127.11,40.63c-.06-.06-.2-.13-.27-.06a.72.72,0,0,1-.29.23h0a1.33,1.33,0,0,0,.3.17,1.26,1.26,0,0,0,.85,0,1.47,1.47,0,0,0,.38-.15l-.15-.06-.22-.09c-.21-.1-.32-.15-.4-.13A.27.27,0,0,0,127.11,40.63Z"/><path class="cls-16" d="M127.08,38.51a3.26,3.26,0,0,1-.26.8c-.1.24-.22.56,0,.59a.91.91,0,0,1,.42,0,.86.86,0,0,0,.37,0c.23-.07.2-.56-.15-.42.11-.06.33-.08.38.11a.37.37,0,0,1-.19.41.81.81,0,0,1-.44,0c-.12,0-.2,0-.39.06a.25.25,0,0,1-.22-.13.25.25,0,0,1,0-.26,1.38,1.38,0,0,1,.15-.4C126.85,39,127,38.77,127.08,38.51Z"/><path class="cls-16" d="M126.4,37.33a2,2,0,0,1,.49-.06c.16,0,.36.08.46.06s.31-.06.48,0a1.43,1.43,0,0,1,.47.14c-.16,0-.33,0-.47,0s-.29.08-.47.11-.31-.12-.48-.12Z"/><path class="cls-16" d="M126.78,37a.81.81,0,0,1,.31-.06c.1,0,.25.05.29,0a2.69,2.69,0,0,1,.31,0,.67.67,0,0,1,.31.1,1.66,1.66,0,0,1-.31,0c-.09,0-.17,0-.3.08s-.2-.09-.31-.09Z"/><ellipse class="cls-26" cx="131.13" cy="40.56" rx="0.22" ry="0.4"/><path class="cls-16" d="M126.6,41.42a2.22,2.22,0,0,0,.51,0,1.82,1.82,0,0,0,.52,0,.87.87,0,0,1-.52.16A1,1,0,0,1,126.6,41.42Z"/><path class="cls-16" d="M128,39.93a.66.66,0,0,1,.32.28.56.56,0,0,1,0,.42,1.11,1.11,0,0,0-.13-.36A2,2,0,0,0,128,39.93Z"/><path class="cls-16" d="M126.56,39.91a4.07,4.07,0,0,0-.31.82A.74.74,0,0,1,126.56,39.91Z"/><path class="cls-26" d="M127.47,43.29c-.15,1.25-.31,2.5-.36,3.74a9.1,9.1,0,0,0,.07,1.82c0,.28.17.57.31.61a.91.91,0,0,0,.64-.23,12.61,12.61,0,0,0,2.49-2.7,19.92,19.92,0,0,0,2-3.18,13.3,13.3,0,0,1-1.66,3.41,11.89,11.89,0,0,1-2.52,2.89,1.3,1.3,0,0,1-1.11.26,1.21,1.21,0,0,1-.58-1,7.42,7.42,0,0,1,0-1.94A22.18,22.18,0,0,1,127.47,43.29Z"/><path class="cls-27" d="M127.5,43.22c-.1,1.11-.21,2.21-.21,3.31a5.55,5.55,0,0,0,.17,1.59c.07.24.21.46.37.5a.83.83,0,0,0,.63-.19,11.41,11.41,0,0,0,2.22-2.37c.66-.88,1.3-1.79,1.92-2.71a26.67,26.67,0,0,1-1.71,2.86,9.91,9.91,0,0,1-2.24,2.52,1.13,1.13,0,0,1-.92.24,1,1,0,0,1-.61-.75,5.78,5.78,0,0,1-.14-1.7A18.29,18.29,0,0,1,127.5,43.22Z"/><path class="cls-16" d="M127.23,42.29a4.3,4.3,0,0,0,1.71-.19,4.41,4.41,0,0,0,1.51-.8,3.16,3.16,0,0,1-3.22,1Z"/><path class="cls-16" d="M128.58,36.72a6.45,6.45,0,0,0,1.29,1.18c.47.35,1.3,1,1.3,1s.27-.27.27-.35a19.13,19.13,0,0,0-2-1.63A2,2,0,0,0,128.58,36.72Z"/><path class="cls-16" d="M126.61,36.55a6.12,6.12,0,0,1-.71,1.08.51.51,0,0,1,0-.13,3.22,3.22,0,0,1,0-.44l.66-.66Z"/><path class="cls-16" d="M129.83,38.4c-.23.11-.46.19-.69.28v-.1a4,4,0,0,1,.48.09l.43.11h-.45a3.49,3.49,0,0,0-.46,0v-.07c.13.08.24.18.36.27-.14-.07-.27-.13-.4-.21l-.08-.05.09,0a4.12,4.12,0,0,1,.48-.05v.11a2.34,2.34,0,0,1-.46-.09l-.2,0,.19,0C129.35,38.52,129.58,38.45,129.83,38.4Z"/><path class="cls-22" d="M128.72,38.61a.48.48,0,0,0,.22,0,.82.82,0,0,0,.28-.06s-.24.19-.36.18S128.72,38.61,128.72,38.61Z"/><path class="cls-23" d="M128.15,38.7c0-.17.14-.26.32-.27s.33.07.34.24a.32.32,0,0,1-.31.34A.33.33,0,0,1,128.15,38.7Z"/><path class="cls-22" d="M128.15,38.68a.22.22,0,0,1,.22-.21c.13,0,.24.06.24.19a.22.22,0,0,1-.21.23A.23.23,0,0,1,128.15,38.68Z"/><path class="cls-16" d="M128.11,38.51c0,.05.17-.06.38,0a.6.6,0,0,1,.24.09c.06,0,.08.07.11.07s.06-.15,0-.25a.38.38,0,0,0-.3-.18.38.38,0,0,0-.33.07C128.13,38.36,128.07,38.47,128.11,38.51Z"/><path class="cls-16" d="M137.86,49.3a2.26,2.26,0,0,1-.72.54c-.56.25-.93.09-1.49.29a2.3,2.3,0,0,0-1,.67l-.42-.86,3-2.07C137.46,48.28,137.66,48.77,137.86,49.3Z"/><path class="cls-24" d="M131.66,38.23c.06-.14.17-.18.31-.24s.09-.17.16-.31.26-.15.32-.29,0-.24-.09-.34-.11-.25,0-.33.27,0,.3-.17-.13-.19-.17-.3.15-.37,0-.53-.16-.1-.19-.18.14-.26.09-.4-.27-.14-.29-.32,0-.14,0-.2-.23-.12-.31-.22,0-.18-.09-.26-.5-.12-.67-.31a1,1,0,0,1-.11-.24.6.6,0,0,0-.32-.27,1.42,1.42,0,0,0-1.16,0,1,1,0,0,0-.24.17s-.08.12-.13.14H129c-.08,0-.14-.19-.19-.25a1,1,0,0,0-.27-.18.72.72,0,0,0-.61,0l-.1,0a.76.76,0,0,1-.21,0,.22.22,0,0,0-.26.21.47.47,0,0,0-.52,0c-.14.1-.08.27-.17.39s-.29.11-.32.29a.75.75,0,0,1,0,.22c0,.06-.1.08-.21.12s-.16,0-.21.06a.36.36,0,0,0-.17.38.41.41,0,0,1,0,.1s0,.08,0,.1a1.7,1.7,0,0,0,0,.22,1.24,1.24,0,0,0,.12.58,6.25,6.25,0,0,1,2.05,0A6.82,6.82,0,0,1,131.66,38.23Z"/><path class="cls-24" d="M126.61,36.55c.17,0,.3-.1.51-.14s.32.05.51.08.16-.08.34-.05.31.27.49.28.42,0,.32-.26a2.17,2.17,0,0,0-1.19-.85C127.2,35.61,126.61,36.55,126.61,36.55Z"/><path class="cls-28" d="M130.6,35a.77.77,0,0,1,.26-.12.24.24,0,0,1,.17.05.14.14,0,0,1,0,.18,1.35,1.35,0,0,0-.12.47,1.65,1.65,0,0,1,.19.06.79.79,0,0,1,.25.17.38.38,0,0,1-.06.54.39.39,0,0,0,0-.46.72.72,0,0,0-.21-.12l-.12,0a.17.17,0,0,1-.18-.1,1.11,1.11,0,0,1,.18-.58C131.06,34.94,130.74,34.93,130.6,35Z"/><path class="cls-28" d="M128.08,34a1.22,1.22,0,0,0-.42-.09c-.11,0-.37,0-.29,0a1.24,1.24,0,0,0,.06.18l0,.11s0,.09,0,.11a.11.11,0,0,1-.08,0,.66.66,0,0,1-.46,0,1.56,1.56,0,0,0,.43-.08c.05,0,0,0,0,0l0-.1a.71.71,0,0,1-.1-.23.18.18,0,0,1,.11-.17h.14l.23,0A.61.61,0,0,1,128.08,34Z"/><path class="cls-28" d="M131.54,34.78a.66.66,0,0,1,.32.21.31.31,0,0,1,0,.38c-.13.19,0,.4.19.57a1.27,1.27,0,0,1,.32.69,1,1,0,0,1-.2.71,1.31,1.31,0,0,0,.08-.7,1.08,1.08,0,0,0-.34-.6c-.14-.16-.35-.47-.15-.73S131.75,34.9,131.54,34.78Z"/><path class="cls-28" d="M129.93,33.88a.37.37,0,0,1,.46,0c.11.12.16.24.3.21s.34,0,.47.13.08.29.28.29a.25.25,0,0,1-.25,0c-.06-.07-.08-.16-.12-.2s-.22,0-.38,0a.36.36,0,0,1-.25-.11l-.13-.2A.41.41,0,0,0,129.93,33.88Z"/><path class="cls-28" d="M128.6,33.62c.06.22.3.18.48.17s.28,0,.32.16,0,.22.06.27.27.17.47.18.47.17.41.4c0-.22-.24-.28-.42-.28a.7.7,0,0,1-.61-.22,1.08,1.08,0,0,1-.05-.31c0-.07-.07-.07-.18-.08a2.91,2.91,0,0,1-.31,0A.28.28,0,0,1,128.6,33.62Z"/><path class="cls-28" d="M126.81,34.61a2.76,2.76,0,0,1-.39.18c-.08,0-.06,0,0,.09l.11.17.05.09a.43.43,0,0,1,0,.11.12.12,0,0,1-.07.07l-.18.09a1.18,1.18,0,0,0-.29.3.63.63,0,0,1,.23-.37.75.75,0,0,1,.18-.13h0l0-.09-.1-.2a.18.18,0,0,1,0-.16.19.19,0,0,1,.12-.07A3.15,3.15,0,0,1,126.81,34.61Z"/><path class="cls-17" d="M129.05,35.4a1,1,0,0,1-.18.45,1.34,1.34,0,0,1-1,.47,1.27,1.27,0,0,1-1.26-.92,1,1,0,0,1,.36-1,1.37,1.37,0,0,1,.87-.2,1.3,1.3,0,0,1,.92.3A1,1,0,0,1,129.05,35.4Z"/><path class="cls-17" d="M128.07,36c0,.64,1,1,2.63,2.35a14.74,14.74,0,0,1,1.3,1.26.59.59,0,0,0,.26-.4c0-.16,0-.27,0-.55s.13-.3.23-.63a2.08,2.08,0,0,0,.08-.57c0-.55-.76-.9-1.86-1.63a13.6,13.6,0,0,1-1.77-.88C127.9,35.39,128.07,35.67,128.07,36Z"/><path class="cls-17" d="M127.25,36a6.73,6.73,0,0,0-1.38,1.38,1.44,1.44,0,0,1-.26-.93c.11-.38,0-.48.23-.8s1-.43,1-.43Z"/><path class="cls-21" d="M127.12,36.05a1.46,1.46,0,0,1-.1-1.21.68.68,0,0,1,.5-.44.83.83,0,0,1,.66.17.77.77,0,0,1-.09,1.21.54.54,0,0,1-.64-.07.51.51,0,0,1,.08-.6c-.1.17-.13.41,0,.52a.42.42,0,0,0,.48,0,.58.58,0,0,0,0-.89.54.54,0,0,0-.86.17A1.65,1.65,0,0,0,127.12,36.05Z"/><path class="cls-21" d="M128.89,35.49a2.43,2.43,0,0,0,.48.48,4.42,4.42,0,0,0,.61.32,5.16,5.16,0,0,1,1.14.82c-.19-.13-.4-.22-.6-.34l-.63-.31a6.66,6.66,0,0,1-.59-.39A1.24,1.24,0,0,1,128.89,35.49Z"/><path class="cls-21" d="M132.16,38.78A12.49,12.49,0,0,0,130.09,37a3.79,3.79,0,0,1,1.2.69A4,4,0,0,1,132.16,38.78Z"/><path class="cls-21" d="M126.56,35.82c-.13.14-.29.2-.42.32s-.28.19-.45.26a1.09,1.09,0,0,1,.37-.4A1.43,1.43,0,0,1,126.56,35.82Z"/><path class="cls-17" d="M134.25,44.23a6.21,6.21,0,0,1,2.51,1.82c.93,1.35,1.34,1.51,1.33,1.82a2,2,0,0,1-1,1.39c-.73.47-1.15.13-1.88.59S134.49,51,134.14,51c-.88,0-1.33-3.95-1.33-4.32a3.59,3.59,0,0,1,.34-1.95A4.32,4.32,0,0,1,134.25,44.23Z"/><path class="cls-16" d="M119.33,67.15c0,1,.16,2,.26,3s.26,2,.42,3c.24,2,.41,4,.49,6v0a9.56,9.56,0,0,1-.21,1.36q-.15.67-.33,1.35a11.31,11.31,0,0,1-1.08,2.56,11.8,11.8,0,0,0,.54-1.27,10.69,10.69,0,0,0,.43-1.32c.12-.44.22-.89.32-1.35s.15-.88.2-1.38v0c-.12-2-.26-4-.47-6-.16-1-.3-2-.39-3S119.34,68.16,119.33,67.15Z"/><path class="cls-16" d="M129.21,46.87a12.21,12.21,0,0,1-1.36.75,6.08,6.08,0,0,1-.33-2.37,5,5,0,0,1,.06-.56s.12-.93.14-1.44a8.94,8.94,0,0,1,.18,1.85c0,1.14.06,1.78.48,1.9A1.15,1.15,0,0,0,129.21,46.87Z"/><path class="cls-18" d="M129.23,46.86h0Z"/><rect class="cls-8" x="84.23" y="79.03" width="1.21" height="4.39" rx="0.61"/><rect class="cls-8" x="108.76" y="79.03" width="1.21" height="4.39" rx="0.61"/><rect class="cls-12" x="84.1" y="58.82" width="1.46" height="20.74"/><rect class="cls-8" x="88.66" y="75.43" width="1.21" height="4.39" rx="0.61"/><rect class="cls-12" x="88.54" y="55.22" width="1.46" height="20.74"/><rect class="cls-12" x="108.64" y="58.82" width="1.46" height="20.74"/><rect class="cls-8" x="104.98" y="75.43" width="1.21" height="4.39" rx="0.61"/><rect class="cls-12" x="104.85" y="55.22" width="1.46" height="20.74"/><path class="cls-15" d="M106.63,60a83.48,83.48,0,0,0-9.82-.52,84.36,84.36,0,0,0-10.28.69q.09-7.44.19-14.89c0-.3,0-.62,0-.92,0-2.17.06-4.33.09-6.5A3.17,3.17,0,0,1,90,34.74h13.37a3.17,3.17,0,0,1,3.17,3.16c0,2.17,0,4.33,0,6.5v.92Q106.6,52.67,106.63,60Z"/><path class="cls-29" d="M106.55,44.4v.92A69.1,69.1,0,0,0,96.4,44.6a68.11,68.11,0,0,0-9.68.72c0-.3,0-.62,0-.92a69.55,69.55,0,0,1,9.66-.72A67.51,67.51,0,0,1,106.55,44.4Z"/><rect class="cls-12" x="86.16" y="68.59" width="21.89" height="1.96"/><path class="cls-14" d="M86.63,52.53c-2.22,0-3.79.58-4.54,2A6.67,6.67,0,0,0,81.86,59c.3.3,4.67.12,4.67.12Z"/><path class="cls-14" d="M107.7,60.59a2.2,2.2,0,0,0-1.07-.55,65.1,65.1,0,0,0-20.1.06,2,2,0,0,0-.6.57,2.78,2.78,0,0,0-.35,1.71c0,.75,0,1.47,0,2.45h23.07c0-.4,0-.94-.1-1.56C108.38,61.91,108.28,61.14,107.7,60.59Z"/><rect class="cls-15" x="85.57" y="63.33" width="23.07" height="5.89" rx="1.06"/><rect class="cls-15" x="85.57" y="70.02" width="23.07" height="5.11" rx="0.98"/><path class="cls-14" d="M106.55,52.47c2.22,0,3.8.57,4.55,2a6.71,6.71,0,0,1,.23,4.48c-.3.31-4.68.12-4.68.12Z"/><path class="cls-12" d="M145,59.52c-.08-.26-.44-.47-1-.5s-11.52,1-12,1.29a2.14,2.14,0,0,0-1.38,1.81c-.07.69-.71,20.6-.71,20.6h.89s.44-19.29.8-20.6a1.76,1.76,0,0,1,1.74-1.38c.36,0,10-1,10.46-1s.55,1,.62,1.33c.19.85,4.14,18.09,4.14,18.09l.93,0C149.5,79.17,146.61,64.42,145,59.52Z"/><path class="cls-18" d="M89.88,71.81c0,.94-.11,4.16-.11,6.14s.75,6.36.75,7.11,2.6.79,2.6.79,1.06-5.06,1.36-7,1-7.66,1.26-8.81.44-3.48-.93-3.78S91,66.1,90.67,67.38A41.51,41.51,0,0,0,89.88,71.81Z"/><path class="cls-18" d="M98.6,68.28c.12,1.93.49,3,.68,6.06s.93,9.29,1.08,10.19.49.75,1.19.75,1.59-.13,1.59-.44.94-6.3,1.12-9a39.89,39.89,0,0,0-.24-7.09c-.16-.6-.71-2.8-2.2-2.67S98.49,66.52,98.6,68.28Z"/><path class="cls-18" d="M105.21,47.45c.3.71.86,1.79,1.14,2.32a7.27,7.27,0,0,0,1.17,1.48,5.18,5.18,0,0,0,.79.67,12.43,12.43,0,0,1-2.59,1.13,3.36,3.36,0,0,1-1.77-.91,17.06,17.06,0,0,1-1.47-2.79A20.44,20.44,0,0,1,105.21,47.45Z"/><path class="cls-18" d="M94.78,39c0,.56-.11,1.29-.11,1.72a16.34,16.34,0,0,1-.33,1.67,3.57,3.57,0,0,0,1.9,1.11,6.14,6.14,0,0,0,2.47-.81c.26-.26.23-4.89.23-4.89Z"/><path class="cls-18" d="M93.56,38.67A1.62,1.62,0,0,0,95,39.75a5.29,5.29,0,0,0,2.62-.14c1-.33,2-2,2.44-2.75a4.41,4.41,0,0,0,.48-3.16,5,5,0,0,0-2.42-2.1,4.05,4.05,0,0,0-2.51,0,3.91,3.91,0,0,0-2,1.95,4.28,4.28,0,0,0,.12,2.07c0,.19-.33,1.08-.33,1.41S93.56,38.67,93.56,38.67Z"/><path class="cls-16" d="M94.14,38.76a2.43,2.43,0,0,0,.83.15,2.48,2.48,0,0,0,.84-.12,1.37,1.37,0,0,1-1.67,0Z"/><path class="cls-16" d="M94.27,34.09a1.77,1.77,0,0,1,.56,0c.19,0,.4.1.53.08s.36-.06.56-.05a1.88,1.88,0,0,1,.54.16l-.54-.06a4.45,4.45,0,0,0-.55.11.77.77,0,0,1-.29-.08,1.1,1.1,0,0,0-.26-.06Z"/><path class="cls-16" d="M94.71,33.68a1.12,1.12,0,0,1,.36,0c.12,0,.28.07.34,0a2,2,0,0,1,.36,0,1,1,0,0,1,.35.11c-.12,0-.25,0-.35,0a3.08,3.08,0,0,0-.35.07c-.18,0-.23-.09-.36-.1Z"/><path class="cls-23" d="M94.62,35.46c0-.2-.16-.3-.36-.3s-.36.08-.36.29a.36.36,0,0,0,.35.37A.37.37,0,0,0,94.62,35.46Z"/><path class="cls-22" d="M94.41,35.42a.24.24,0,0,0-.26-.23.24.24,0,0,0-.27.22.27.27,0,0,0,.53,0Z"/><path class="cls-16" d="M94.67,35.33c-.06,0-.17-.12-.41-.14a.78.78,0,0,0-.28,0c-.08,0-.11.06-.13.05s0-.18.06-.28a.45.45,0,0,1,.37-.11.46.46,0,0,1,.34.17C94.68,35.15,94.72,35.29,94.67,35.33Z"/><path class="cls-16" d="M97.8,35.29a7.52,7.52,0,0,1-.78.32V35.5a4.68,4.68,0,0,1,.54.09l.49.13h-.5a4.38,4.38,0,0,0-.52,0v-.08a4,4,0,0,1,.41.31,4.76,4.76,0,0,1-.45-.24l-.09,0,.09,0a3.62,3.62,0,0,1,.55,0l0,.12a3.06,3.06,0,0,1-.51-.1l-.23,0L97,35.5A7.4,7.4,0,0,1,97.8,35.29Z"/><path class="cls-23" d="M95.94,35.54c0-.2.15-.3.35-.31s.38.08.39.28a.37.37,0,0,1-.35.38A.38.38,0,0,1,95.94,35.54Z"/><path class="cls-22" d="M95.94,35.51c0-.14.1-.22.24-.23s.27.07.27.21a.24.24,0,0,1-.24.26A.25.25,0,0,1,95.94,35.51Z"/><path class="cls-16" d="M95.88,35.32c.05.06.2-.07.44,0a.7.7,0,0,1,.27.1c.07.05.09.09.12.08s.07-.17,0-.28a.52.52,0,0,0-.34-.21.47.47,0,0,0-.38.08C95.91,35.15,95.84,35.28,95.88,35.32Z"/><path class="cls-16" d="M94.82,35.1a2,2,0,0,1-.21,1c-.09.16-.23.26-.26.4a.31.31,0,0,0,.1.35c.09.08.27,0,.46,0s.31.15.45.11a.31.31,0,0,0,.26-.29.33.33,0,0,0-.29-.32.36.36,0,0,1,.37.31.4.4,0,0,1-.31.41c-.2.06-.37-.07-.51-.09s-.29.09-.51,0a.43.43,0,0,1-.15-.53c.07-.19.22-.28.3-.41A3.08,3.08,0,0,0,94.82,35.1Z"/><path class="cls-30" d="M94.72,37.84c-.12-.09-.19-.09-.24-.07s0,0-.19.11l-.1,0h0a1.24,1.24,0,0,0,.28.13,1.74,1.74,0,0,0,.82,0,4,4,0,0,0,.66-.14,2.92,2.92,0,0,1-.44-.06l-.23-.05a1,1,0,0,0-.34-.06A.63.63,0,0,0,94.72,37.84Z"/><path class="cls-16" d="M95.87,36.55a1.27,1.27,0,0,1,.3,1.39A2.91,2.91,0,0,0,95.87,36.55Z"/><path class="cls-16" d="M94.21,36.67a3.51,3.51,0,0,0-.27,1.15A1.07,1.07,0,0,1,94.21,36.67Z"/><path class="cls-31" d="M97.08,34.87a.92.92,0,0,1-.56,0,1.39,1.39,0,0,1-.48-.27.64.64,0,0,1,.6-.13A.81.81,0,0,1,97.08,34.87Z"/><path class="cls-31" d="M94.94,34.64a.91.91,0,0,1-.55,0,1.47,1.47,0,0,1-.52-.18.63.63,0,0,1,.57-.23A.79.79,0,0,1,94.94,34.64Z"/><line class="cls-32" x1="94.58" y1="35.55" x2="93.58" y2="36.45"/><line class="cls-33" x1="94.51" y1="35.39" x2="93.41" y2="36.39"/><line class="cls-32" x1="97.2" y1="35.56" x2="96.2" y2="36.47"/><line class="cls-33" x1="97.15" y1="35.39" x2="96.03" y2="36.41"/><path class="cls-34" d="M92.9,35.67a.71.71,0,0,0,.75.78.8.8,0,1,0,0-1.57A.72.72,0,0,0,92.9,35.67Z"/><ellipse class="cls-34" cx="96.29" cy="35.68" rx="0.78" ry="0.92" transform="translate(60.2 131.81) rotate(-89.75)"/><path class="cls-34" d="M94.58,35.75a.54.54,0,0,1,.4-.18.53.53,0,0,1,.39.18"/><path class="cls-16" d="M95,39.75a4.58,4.58,0,0,0,3.67-.87,3.56,3.56,0,0,1-3.67.87Z"/><path class="cls-35" d="M93.46,34.29a3.09,3.09,0,0,1,.79-1.63c.29-.31.87-.76,1.16-.6s.09.31.25.41.65-.26,1.17-.37a2.07,2.07,0,0,1,1.58.56A2.73,2.73,0,0,1,99.35,35c0,.21-.07.35-.16,1-.14,1-.09,1,0,1s.46-1,.86-1c.16,0,.29.18.38.38a5.27,5.27,0,0,0,.4-1.62c0-.44.1-1.34-.31-1.6a1.83,1.83,0,0,1-.35-.25c-.15-.15-.15-.24-.31-.37s-.16-.07-.33-.18-.19-.23-.39-.36-.29-.09-.47-.25-.11-.15-.21-.23-.29-.08-.6-.12-.44-.19-.73-.18-.25.11-.52.11a4.12,4.12,0,0,0-.45-.05,4,4,0,0,0-.51.18c-.29.09-.34,0-.54.1a1.54,1.54,0,0,0-.52.37,5.36,5.36,0,0,0-.8,1,1.7,1.7,0,0,0-.39.89A1.27,1.27,0,0,0,93.46,34.29Z"/><path class="cls-18" d="M99,37.8a1.09,1.09,0,0,0,.73,0c.6-.25.64-1,.68-1.17s0-.56-.17-.68a.33.33,0,0,0-.17,0c-.31,0-.56.36-.67.52A2.62,2.62,0,0,0,99,37.8Z"/><path class="cls-18" d="M94.69,40.25a2.09,2.09,0,0,1-1,.66s-.22,1.69.44,2.35,4.54.43,5-.43a5.4,5.4,0,0,0,.54-1.95,4,4,0,0,1-.8-.63C98.53,39.86,94.69,40.25,94.69,40.25Z"/><path class="cls-36" d="M105.32,76.79c-1.26-.15-3.1-.34-5.35-.49-.39,0-1.89-.11-2.73-.13a23.15,23.15,0,0,0-8.76,1.72c-.16-2.79-.21-10.47-.36-12a33.46,33.46,0,0,1,.22-6,12.51,12.51,0,0,1,.33-1.83,29.42,29.42,0,0,1,1-2.81,19.65,19.65,0,0,0,.7-2.9,30.77,30.77,0,0,0,.23-8.26c-.12-1.09-.27-2-.4-2.64L93.13,41h0l.76-.13a2,2,0,0,0,.44,1.46,2.66,2.66,0,0,0,2,.75,4.21,4.21,0,0,0,2.65-.76,3.25,3.25,0,0,0,.78-1.45l.36.1,3.47,1s-.66,2.39-1,4.27a19.93,19.93,0,0,0,.06,6.25,17.2,17.2,0,0,0,.68,2.9c.33,1,.61,1.39,1,2.56a11.58,11.58,0,0,1,.51,2.14c.11.89.18,1.55.2,1.89.16,2.68.28,3,.39,5.23C105.58,71.34,105.39,75.38,105.32,76.79Z"/><path class="cls-36" d="M103.54,42c.8.26,2.66,6,2.85,6.48s-3.31,3-3.31,3A2.4,2.4,0,0,1,101.69,49C101.69,47.09,103.54,42,103.54,42Z"/><path class="cls-18" d="M88.25,46.4a21.5,21.5,0,0,1-1.65,3.93c-.35.36-2.4,2.63-2.4,2.63l2.16.95a6,6,0,0,0,1.41-.36,4.56,4.56,0,0,0,1.83-1.69c.26-.62,1.29-3.22,1.29-3.35S88.25,46.4,88.25,46.4Z"/><path class="cls-16" d="M87.2,50.33a1.78,1.78,0,0,1,1.15.44,2.27,2.27,0,0,1,.42.46,2.44,2.44,0,0,1,.28.56A4.06,4.06,0,0,0,87.2,50.33Z"/><path class="cls-37" d="M91,57.05a4.89,4.89,0,0,1,3.06.29,4.79,4.79,0,0,1,1.31.86,4.31,4.31,0,0,1,1,1.21,6.72,6.72,0,0,0-2.39-1.79,5.4,5.4,0,0,0-1.43-.44A7.51,7.51,0,0,0,91,57.05Z"/><path class="cls-37" d="M102.94,57.06a6.3,6.3,0,0,0-2.38.32,4.55,4.55,0,0,0-1,.54c-.33.23-.67.46-1,.71a4.53,4.53,0,0,1,1.95-1.53,4.16,4.16,0,0,1,1.25-.22A3.94,3.94,0,0,1,102.94,57.06Z"/><path class="cls-36" d="M90.2,41.54c-.63.23-1.35,1.59-1.85,2.88s-1.29,3.71-1.29,3.71L90.2,51s1.52-2.76,1.39-4.44A25.74,25.74,0,0,0,90.2,41.54Z"/><path class="cls-18" d="M84.2,53c-.51.5-2.84,2.19-3,2.39s-.17.54-.06.6.62.06,1.1-.42c-.06,0-.82.59-.71.86a.24.24,0,0,0,.11.1s.16.08.73-.21a.43.43,0,0,0,.37.22,11,11,0,0,0,1.85-1.27s0,.44.38.44.46-.16.7-.4.75-.34.75-.54c0-.4.15-.84,0-1.13A1.86,1.86,0,0,0,84.2,53Z"/><path class="cls-16" d="M83.34,54.46c-.22.23-.5.38-.72.59a6,6,0,0,0-.65.68,2.69,2.69,0,0,1,.55-.78,3.54,3.54,0,0,1,.41-.26A2.38,2.38,0,0,1,83.34,54.46Z"/><path class="cls-16" d="M83.83,54.73a7.37,7.37,0,0,1-.81.77l-.42.35-.19.2c0,.06-.13.15-.08.23-.1-.19.1-.36.21-.49a3.68,3.68,0,0,1,.4-.39C83.23,55.17,83.52,54.94,83.83,54.73Z"/><path class="cls-16" d="M85.63,54.13c-.14.22-.33.39-.48.6a2.42,2.42,0,0,1-.6.5c.17-.2.34-.39.5-.59A4,4,0,0,1,85.63,54.13Z"/><path class="cls-16" d="M106.13,50.15a2.86,2.86,0,0,0-.89.74l-.39.43c-.11.16-.25.3-.35.47a3.36,3.36,0,0,1,.64-1A2,2,0,0,1,106.13,50.15Z"/><path class="cls-18" d="M108.21,51.85c.43.43.3.6,1.05,1.11A10.52,10.52,0,0,1,111.53,55a.2.2,0,0,1-.2.21s0,.29-.07.41-.77-.13-.77-.13-.11.2-.51,0-2-1-2-1,.14.29-.24.42-.48.17-.62-.19-1-.56-1-.82a1.28,1.28,0,0,0-.41-.86C105.44,52.77,108.21,51.85,108.21,51.85Z"/><path class="cls-16" d="M107.25,53.64a4.1,4.1,0,0,1,.47.35c.11.14.31.29.28.51a1.21,1.21,0,0,0-.37-.41A3.34,3.34,0,0,1,107.25,53.64Z"/><path class="cls-16" d="M108.83,53.91c.31.22.59.49.9.72l.42.41a1.08,1.08,0,0,1,.34.47c-.09-.17-.27-.27-.4-.41l-.45-.36A9.05,9.05,0,0,1,108.83,53.91Z"/><path class="cls-16" d="M109.66,53.64c.31.23.59.49.9.73l.42.39a1.16,1.16,0,0,1,.35.47,1.94,1.94,0,0,0-.41-.4l-.45-.36A7,7,0,0,1,109.66,53.64Z"/><path class="cls-37" d="M101,54.85a12.06,12.06,0,0,1-4.33.77,12.63,12.63,0,0,1-2.21-.21,11.35,11.35,0,0,1-2.12-.6,19.92,19.92,0,0,0,4.33.51A19.27,19.27,0,0,0,101,54.85Z"/><path class="cls-38" d="M86.63,54a3.27,3.27,0,0,0-2.52-1.11l.56-.61a3.17,3.17,0,0,1,1.5.48,4.13,4.13,0,0,1,1.2,1.09Z"/><path class="cls-38" d="M100.08,41a3.15,3.15,0,0,1-.72,1.92,3.25,3.25,0,0,1-1.45.93,3.87,3.87,0,0,1-2.39,0,3.35,3.35,0,0,1-2.12-1.58A2.82,2.82,0,0,1,93.13,41h0l.76-.13a2,2,0,0,0,.44,1.46,2.66,2.66,0,0,0,2,.75,4.21,4.21,0,0,0,2.65-.76,3.25,3.25,0,0,0,.78-1.45Z"/><path class="cls-37" d="M102.47,51.05a13.75,13.75,0,0,1-.33-2.2,15.07,15.07,0,0,1,0-2.23,13.92,13.92,0,0,1,.33,2.2A15.07,15.07,0,0,1,102.47,51.05Z"/><path class="cls-37" d="M90.67,50c.13-.6.31-1.16.45-1.74.1-.29.14-.59.21-.88a7.18,7.18,0,0,1,.26-.87,7.4,7.4,0,0,1-.18,1.82A5.57,5.57,0,0,1,90.67,50Z"/><path class="cls-18" d="M90.51,84.91a6.52,6.52,0,0,1-.25,2.33,6.53,6.53,0,0,1-2.07,2.31c-1.42,1.19-2,1.28-2.25,2.09s-.31,1.33.19,1.82,2.72.36,3.07,0a13.83,13.83,0,0,0,1.28-2.06c.43-.76.71-1.38,1.52-1.52s1.71-.94,1.61-1.58c-.2-1.28-.49-2.45-.49-2.45C92.14,85.4,91.25,84.76,90.51,84.91Z"/><path class="cls-18" d="M100.53,84.47c0,.66-.88,3.75-.51,4.12s.33.32.93.54.59.22.87.74a5,5,0,0,0,1.57,2c.85.51,2.64.6,2.83-.25s-.19-1.15-.61-1.58a12.73,12.73,0,0,1-2.13-2.58,7,7,0,0,1-.34-2.63C103.14,84.47,100.53,84.47,100.53,84.47Z"/><path class="cls-21" d="M88.79,89c-.29,0-.41.16-1.22.81a11.37,11.37,0,0,0-1.39,1.14,2.28,2.28,0,0,0-.68,1.91,1.87,1.87,0,0,0,1.09,1.09A2.5,2.5,0,0,0,88,94a3.39,3.39,0,0,0,1.31-.49c1-.65.7-1.32,1.82-2.42a10,10,0,0,1,1.39-1.17,2.56,2.56,0,0,0,1-.87,2,2,0,0,0,.22-.85,3,3,0,0,0-.36-1.27s-.23.46-.53,1a7.64,7.64,0,0,1-1,1.28c-.18.19-.78.66-2,1.58-.17.13-.49.37-.56.31s0-.06,0-.17c.24-.49.86-.73.89-1.06S89.5,88.89,88.79,89Z"/><path class="cls-21" d="M100.07,86.83a7.93,7.93,0,0,0-.25,1.72c0,.26.94.8,1.29,1a22.36,22.36,0,0,1,1.5,2,3.22,3.22,0,0,0,1.55.76,3.14,3.14,0,0,0,2-.29,1.33,1.33,0,0,0,0-1.5c-.41-.53-1.87-1.85-2.12-2.33s-.74-.34-1-.14-.49.31-.38.62.27.65.34.81,0,.31-.52-.2S100.07,86.83,100.07,86.83Z"/><path class="cls-39" d="M79.88,22.47a22.21,22.21,0,0,1,2.17,7.14,45.75,45.75,0,0,1-.89,15.55c-1,3.29-2.6,6.26-1.3,7.77a4,4,0,0,0,2.44,1.26A3.71,3.71,0,0,0,84,53.91"/><circle class="cls-40" cx="79.37" cy="21.99" r="0.7"/><path class="cls-39" d="M68.07,33.31a92.16,92.16,0,0,1-.35,11,20,20,0,0,0-.24,3.28,5.45,5.45,0,0,0,1,3.09,3.78,3.78,0,0,0,3,1.46,3.48,3.48,0,0,0,2.87-1.57,5,5,0,0,0,.48-3.54,51.41,51.41,0,0,0-1.63-5.35,16.92,16.92,0,0,1,.42-10.41c.36-1,.82-1.92,1.27-2.87l1.05-2.16a9,9,0,0,1,2.62-3.69c.37-.26.8-.56,1.3-.19"/><circle class="cls-8" cx="63.49" cy="77" r="0.75"/><line class="cls-40" x1="79.37" y1="21.28" x2="68.18" y2="21.28"/><path class="cls-9" d="M64.54,76.73h-2a1.83,1.83,0,0,1,.94-1.44,12.74,12.74,0,0,1,3.25-.39c.85,0,5.44-.14,5.44-.14v2a6.9,6.9,0,0,0-1.59-1c-.53-.13-4.57-.18-5-.18A1.05,1.05,0,0,0,64.54,76.73Z"/><circle class="cls-40" cx="68.18" cy="21.99" r="0.7"/><path class="cls-9" d="M73.13,74.42h1.32a1,1,0,0,1,1,1V77.1a0,0,0,0,1,0,0H72.18a0,0,0,0,1,0,0V75.37A1,1,0,0,1,73.13,74.42Z" transform="translate(147.59 151.52) rotate(-180)"/><line class="cls-40" x1="68.18" y1="22.69" x2="68.18" y2="24.26"/><path class="cls-41" d="M66.58,32.85a6.69,6.69,0,0,0,.76.38,2.54,2.54,0,0,0,.88.24,2,2,0,0,0,.81-.23,3.58,3.58,0,0,0,.85-.49c0-.71-.08-1.47-.09-2.24,0-.4,0-.81,0-1.21,0-.56,0-1.1,0-1.63,0-.33,0-.65,0-1,0-.1,0-.19,0-.28a1.68,1.68,0,0,0-1.11-1.59v-.72H67.56v.73a1.69,1.69,0,0,0-1.08,1.58c0,.4.08.81.11,1.24s0,.9.07,1.38C66.7,30.42,66.66,31.69,66.58,32.85Z"/><path class="cls-42" d="M66.58,32.85a6.69,6.69,0,0,0,.76.38,2.54,2.54,0,0,0,.88.24,2,2,0,0,0,.81-.23,3.58,3.58,0,0,0,.85-.49c0-.41,0-.82-.06-1.25s0-.65,0-1,0-.81,0-1.21,0-.61,0-.89,0-.5,0-.74H66.59c0,.45,0,.9.07,1.38C66.7,30.42,66.66,31.69,66.58,32.85Z"/><path class="cls-43" d="M68,28.41V31.5h1.82c0-.33,0-.65,0-1s0-.61,0-.91v-.36c0-.06,0-.12,0-.18V29c0-.19,0-.38,0-.55Z"/><ellipse class="cls-44" cx="73.79" cy="74.42" rx="1.61" ry="0.35"/><rect class="cls-45" x="68.32" y="28.96" width="1.48" height="0.1"/><rect class="cls-45" x="68.32" y="29.24" width="1.47" height="0.09"/><rect class="cls-45" x="68.32" y="29.51" width="1.47" height="0.09"/><line class="cls-46" x1="73.79" y1="21.16" x2="73.79" y2="74.22"/><rect class="cls-9" x="73.07" y="40.52" width="1.44" height="1.97" rx="0.28" transform="translate(147.59 83.01) rotate(-180)"/><rect class="cls-47" x="67.59" y="40.52" width="0.74" height="1.69" rx="0.26" transform="translate(133.53 86.43) rotate(-176.83)"/><circle class="cls-8" cx="80.7" cy="81.06" r="0.75"/><path class="cls-9" d="M74.61,74.9c1,.52,5.16,3.23,5.86,3.69a2.54,2.54,0,0,1,1.22,1.83v.9l-1.86-.83a2.18,2.18,0,0,0-.19-1.29,2.51,2.51,0,0,0-1.36-1.07c-1.1-.48-2.33-1-3.67-1.49Z"/><circle class="cls-8" cx="66.89" cy="81.06" r="0.75"/><path class="cls-9" d="M73,74.9c-1,.52-5.16,3.23-5.86,3.69a2.51,2.51,0,0,0-1.22,1.83v.9l1.86-.83A2.18,2.18,0,0,1,68,79.2a2.51,2.51,0,0,1,1.36-1.07c1.1-.48,2.33-1,3.67-1.49Z"/><path class="cls-47" d="M83.94,53.21a2.49,2.49,0,0,1,.61.33A2.65,2.65,0,0,1,85,54l-.52.58A5.29,5.29,0,0,0,84,54a4.55,4.55,0,0,0-.47-.36Z"/><path class="cls-42" d="M51.66,33.82c-.77.15-3.2,1.14-3.6,1.79s2.19,5.76,2.34,7.4.89,8.43.79,9.75a11.81,11.81,0,0,0-.2,2.09c.1.39,11.95.43,11.76-.71s-1.34-8.62-1.39-10.68.44-8.15-.15-8.43a36.29,36.29,0,0,0-4.34-1.21A25.2,25.2,0,0,0,51.66,33.82Z"/><path class="cls-48" d="M48.06,35.61c-.52.29-.94,2-1.43,6s-.5,5.23-.18,6.13.85,1,1.17,1,2.63-4.73,3.2-6.18S51.31,33.84,48.06,35.61Z"/><path class="cls-48" d="M57.3,35.26c-.09.19-.4.85-.92.91a6.13,6.13,0,0,1-2.6-.9c-.21-.1-.41-.21-.61-.33a10.49,10.49,0,0,1-1.51-1.12A3.35,3.35,0,0,0,53,32.46a5.14,5.14,0,0,0,.44-2l2.3,1.16,1.52.76s0,.74,0,1.44A5.07,5.07,0,0,1,57.3,35.26Z"/><path class="cls-49" d="M57.3,35.26c-.09.19-.4.85-.92.91a6.13,6.13,0,0,1-2.6-.9c-.21-.1-.41-.21-.61-.33l-.25-.63c.56.36,3.2.66,3.48.31A1.52,1.52,0,0,0,56.09,33c-.4-.33-1.85-1.72-1.85-1.72l1.54.36,1.52.76s0,.74,0,1.44A5.07,5.07,0,0,1,57.3,35.26Z"/><ellipse class="cls-50" cx="60.33" cy="29.57" rx="0.93" ry="0.36" transform="translate(23.84 85.99) rotate(-83.23)"/><path class="cls-51" d="M62.75,54.14a26.42,26.42,0,0,1,.59,8.25c-.48,3.57-1.23,9.21-1.23,10s-4.3,1.18-4.23.25-.83-9-.79-10.48.23-8.2.79-8.27S62.75,54.14,62.75,54.14Z"/><path class="cls-51" d="M51,54.69c-.29.57-.07,6.56,0,8.86s-.09,8.25-.2,9.11,4.09,1.17,4.31.55,2.57-11.07,2.68-11.74,1.34-7.86-.93-8S52.13,52.34,51,54.69Z"/><path class="cls-48" d="M60.42,28a.2.2,0,0,1,0,.09c-.17.42-.35.26-.54.62s.3,1.56.19,1.74-.38,0-.54.21,0,.19-.09.4c-.1.43-.38.43-.41.75s.11.36.07.66a.51.51,0,0,1-.15.29c-.28.33-1.41.27-2.51-.15a7,7,0,0,1-2.94-2.16,19.16,19.16,0,0,1-.42-2.77,5,5,0,0,1,.2-2.67,3,3,0,0,1,.93-1.21c1.92-1.42,5.65.32,6.06,1.83a1.78,1.78,0,0,1,.07.33c.07.74.11,1.3.12,1.66A1.9,1.9,0,0,1,60.42,28Z"/><path class="cls-52" d="M57.88,31.16a1.87,1.87,0,0,1,.64.14,2.46,2.46,0,0,1,.6.27,1.38,1.38,0,0,1-.67-.06A1.69,1.69,0,0,1,57.88,31.16Z"/><path class="cls-53" d="M59,28.82l-.13-.07-.6-.36.67-.13.15,0A.71.71,0,0,1,59,28.82Z"/><path class="cls-8" d="M58.92,27.61a.54.54,0,0,0-.34,0,1.72,1.72,0,0,0-.42.19.38.38,0,0,1,.15-.33,1.39,1.39,0,0,1,.88-.15c.15.07.27.31.12.35A.71.71,0,0,1,58.92,27.61Z"/><path class="cls-8" d="M60.42,28h-.09c-.15,0,0-.28.09-.37h0a.5.5,0,0,1,0,.22A.35.35,0,0,1,60.42,28Z"/><path class="cls-54" d="M59,29.86a.4.4,0,0,0-.14.22.3.3,0,0,0,0,.23c.06.15.25.19.43.21a.43.43,0,0,1-.53-.16A.38.38,0,0,1,59,29.86Z"/><path class="cls-48" d="M62.11,72.41c0,.77-.23,14.6-.23,15s-3.6,1.53-3.66,0-.3-14.8-.34-15.32S62.16,70.52,62.11,72.41Z"/><path class="cls-55" d="M50.8,72.21c-.33,1.34-.38,13.84-.42,14.47s0,2.16,0,2.16h3.09s.88-13.9,1.77-16.22S51.29,70.28,50.8,72.21Z"/><path class="cls-55" d="M50.38,88.84c-.11.63-.29,1.37-.44,1.93a2.19,2.19,0,0,0,0,2.16c.59.89,3.11.95,3.64.33s-.41-2.53-.37-3.12a10.2,10.2,0,0,1,.26-1.3C53.49,88.61,50.38,88.84,50.38,88.84Z"/><path class="cls-55" d="M58.22,87.16a16.06,16.06,0,0,0,.16,3.2c.19.34,1.59.6,1.93.6s1.35.89,1.83,1.11,2.23.26,2.75-.33-.15-1.53-1.19-2-1.84-1.15-1.82-2.31S58.22,87.16,58.22,87.16Z"/><path class="cls-51" d="M62.33,70.17c.13,1.59.43,17.71.44,17.8A7.08,7.08,0,0,0,60,87.78a4.72,4.72,0,0,0-2.48,1.28s0-20.56,0-21.2S62.14,67.79,62.33,70.17Z"/><path class="cls-51" d="M50.85,71.24s-.26,1.53-.51,4.54-.74,12.52-.7,13,1-.72,2.53-.17,1.75,1.33,1.82.94,1.58-18.24,1.73-18.91S51.53,67.37,50.85,71.24Z"/><path class="cls-51" d="M62.84,54.62c-.06-.31-.36-2.15-.36-2.15s-4,1.11-11.29.29a19.55,19.55,0,0,0-.35,3.15c0,1.46,12.21-.22,12.17-.43S62.87,54.76,62.84,54.62Z"/><path class="cls-56" d="M51.2,52.63l-.16,1a26.38,26.38,0,0,0,6.09.52,26,26,0,0,0,5.5-.75c-.07-.31-.08-.64-.15-1a30.63,30.63,0,0,1-5.37.58A31.9,31.9,0,0,1,51.2,52.63Z"/><polygon class="cls-51" points="60.53 52.79 60.72 53.9 60.96 53.9 60.75 52.76 60.53 52.79"/><path class="cls-57" d="M61,35c.74.39,1,.36,1.21,1.59s.82,7.17.84,7.85-.85,3.68-1.2,3.76c0,0-.49,0-.73-1.42-.39-2.31-.64-6.7-.69-8.18A10.59,10.59,0,0,1,61,35Z"/><polygon class="cls-51" points="54.75 53.02 54.58 54.18 54.86 54.18 55.03 53.02 54.75 53.02"/><path class="cls-42" d="M56.72,35.45l-.32.68-.46-.61c-.08.14-.57.87-.57.87s1.57.21,2-.3Z"/><path class="cls-58" d="M56.72,35.45a.82.82,0,0,0,.57-.37c.07-.15,0-.27,0-.66v-.61L58,34A1.64,1.64,0,0,1,58,35.39a3,3,0,0,1-.75,1.07Z"/><path class="cls-57" d="M51.23,33.87a6.16,6.16,0,0,0-1.36.39,7.92,7.92,0,0,0-2.13,1.34c-.22.37,2.56,7.93,2.61,8.45s.54,6.25.49,6.7-.2,6.1-.22,7-.27,4.05-.27,4.39,3,.37,3.29-.25,1.19-5.81,1.4-6.83,1.31-5.59,1.11-7.32a81,81,0,0,0-2.78-10.49C52.9,36.44,51.23,33.87,51.23,33.87Z"/><path class="cls-58" d="M52,33.54a6.53,6.53,0,0,0,3.91,2c-.08.17-.29.41-.36.6s-.16.45-.21.6a9.49,9.49,0,0,1-2.74-1.53,9.07,9.07,0,0,1-1.4-1.32Z"/><path class="cls-59" d="M52,33.39a1.15,1.15,0,0,0-1,.29c-.39.48.15,1.2.69,3,.45,1.53.72,2.72,1,2.69a6.37,6.37,0,0,1,1.21.2c.23,0-1,.57-1.1.9s2.63,5.66,2.64,7.39S55,55.29,55,55.29a17.3,17.3,0,0,0,1.89-8.86c-.27-4.22-2.29-8.09-4.08-11.55C52.51,34.25,52.23,33.74,52,33.39Z"/><path class="cls-60" d="M59,28.82l-.13-.07a.53.53,0,0,1,0-.26.49.49,0,0,1,.1-.23l.15,0A.71.71,0,0,1,59,28.82Z"/><polygon class="cls-61" points="57.38 28.37 57.97 28.26 57.94 28.35 57.57 27.91 58.01 28.28 58.12 28.37 57.98 28.37 57.38 28.37"/><path class="cls-62" d="M59.34,29.39a.6.6,0,0,1,.32-.08.47.47,0,0,1,.31.16"/><ellipse class="cls-63" cx="58.69" cy="29.47" rx="0.93" ry="0.64" transform="translate(22.5 84.27) rotate(-83.23)"/><path class="cls-64" d="M60.23,25.57a6.43,6.43,0,0,0-2.07-.81c-.25-.05-1.75-.31-2.1.15s.31.65.09,1.82a14.6,14.6,0,0,1-.56,1.9.17.17,0,0,1-.17,0c-.28-.13,0-.87-.29-1.25a.73.73,0,0,0-.91-.09.54.54,0,0,0-.12.33c-.07.77.06,1,0,1.49-.06.68-.36,1.11-.35,1.42a.2.2,0,0,1,0,.11.28.28,0,0,1-.27.07c-.34-.05-.5-1.61-.58-2.48a8.38,8.38,0,0,1-.09-2.31,3.09,3.09,0,0,1,3.08-2.8A4.22,4.22,0,0,1,60,25,3.05,3.05,0,0,1,60.23,25.57Z"/><path class="cls-48" d="M55.05,29.71a1.83,1.83,0,0,1-1-1.4c0-.92.09-1.18.34-1.23a1.31,1.31,0,0,1,1,.47A2.93,2.93,0,0,1,55.46,29C55.38,29.41,55.22,29.69,55.05,29.71Z"/><path class="cls-49" d="M54.26,28.48a1.49,1.49,0,0,0,.41,1,1.63,1.63,0,0,1-.58-1.13c0-.92.09-1.18.34-1.23a1.3,1.3,0,0,1,.94.45,1.31,1.31,0,0,0-.77-.28C54.35,27.3,54.22,27.56,54.26,28.48Z"/><path class="cls-48" d="M57,42.91s-3.52,1.14-4.88,1.37a39.45,39.45,0,0,0-3.92.47c-.55.24-2.25,2.51-1.54,3.37.29.36.54.58.84.58s1-.38,2.43-.67c2.46-.51,7-3.21,7.3-3.31S57,42.91,57,42.91Z"/><path class="cls-57" d="M47.74,35.6A19.83,19.83,0,0,0,46.48,41c-.4,2.89-.85,6.66-.25,7.38s1.52.42,2,.31,2.58-6.19,2.58-6.19Z"/><path class="cls-57" d="M58.11,34s1.4.26,1.86.38,1.85.85,1.72.93a12,12,0,0,0-1.16,3.32c0,.89,1,5.82,1.1,6.32s2.8,13.89,2.87,15.38-2.14,1.46-2.16,1.32.37-6.52.29-7.18-4.13-17.8-4.17-18.13S58.11,34,58.11,34Z"/><path class="cls-65" d="M50.32,43.92c.16-.44.36-.86.52-1.3a2.42,2.42,0,0,0,.21-.66c.05-.23.11-.45.18-.68A5.93,5.93,0,0,1,51,42.66,13.46,13.46,0,0,1,50.32,43.92Z"/><path class="cls-59" d="M58.11,34A29.24,29.24,0,0,1,60,38c.22.94-.85,1.16-.85,1.16s.9,0,1,.3S61.75,46,62,47.59s.63,6.62.63,6.9S57.07,34,57.45,33.82A.42.42,0,0,1,58.11,34Z"/><path class="cls-65" d="M50.15,44.39a3.64,3.64,0,0,0-1.17.84,10.18,10.18,0,0,0-1,1.09,5.93,5.93,0,0,1,.89-1.17A2.93,2.93,0,0,1,50.15,44.39Z"/><polygon class="cls-66" points="65.72 35.77 59.34 43.46 62.96 43.71 69.5 37.01 65.72 35.77"/><path class="cls-48" d="M63.85,39.52a2,2,0,0,0-.11-.39l-.32-.93c-.13-.34-.48-.71-.39-.78s.13-.13.17-.13.7.75.89,1.19c.27.62.54,1.36.74,1.28s.28-.72.32-1,.56-.78.74-.77.19.21.11.45a6.61,6.61,0,0,1-.22.76c-.11.27,0,.69-.22.82s-.8.91-.76,1.17-.21,2.42-.21,2.42l-2-.08s.54-1.36.37-1.68a2.69,2.69,0,0,0-.72-.91c-.28-.2-.59-.42-.62-.65s-.07-.3,0-.44a.58.58,0,0,1,.41-.2c.09,0,.21.26.13.34a.36.36,0,0,1-.14.09,1,1,0,0,0,.43.39c.05,0,.12,0,.12,0a6.18,6.18,0,0,0-.43-.87c-.14-.26,0-.41.09-.48a.29.29,0,0,1,.36.1,2.67,2.67,0,0,0,.32.48c.15.17.25.33.29.29s0,0-.12-.21c-.26-.59-.69-.75-.6-1a.55.55,0,0,1,.41-.36c.12,0,.41.12.41.17a1.22,1.22,0,0,1-.2.23s-.1-.16,0-.1A7.52,7.52,0,0,0,63.85,39.52Z"/><path class="cls-48" d="M63.2,47.57c-.58-.08-.76-1.79-.78-2A6.07,6.07,0,0,1,62.86,43l1.75-.17a5.06,5.06,0,0,1,0,2.49C64.4,46.35,63.73,47.65,63.2,47.57Z"/><path class="cls-57" d="M64.15,47.1c-.41.54-1.43,1.58-2,1.32h0c0-.32-.07-.6-.11-.82s-.14-.8-.26-1.38a21.11,21.11,0,0,1,.61-3A2,2,0,0,0,64.89,43,5.34,5.34,0,0,1,64.15,47.1Z"/><path class="cls-48" d="M57,42.91c.4-.26,1.84-1.65,2-1.8s.35,0,.77-.11.65-.29,1.11-.35c.23,0,.63-.07.71.08s-.4.6-1.17,1.48-.57.82-1.06,1.31a3.12,3.12,0,0,1-2.15,1.2C57,44.71,55.49,43.92,57,42.91Z"/><path class="cls-57" d="M50.15,44.39s2.89-.45,3.43-.62,3.29-1.38,3.25-1.08a18.36,18.36,0,0,0,.09,2.37c.07.23-6.1,3.27-8.68,3.64S49,44.36,50.15,44.39Z"/><path class="cls-67" d="M55.81,41a.57.57,0,0,1-.38,0,.69.69,0,0,1-.27-.17,5.61,5.61,0,0,1-1.06-1.41l.09,0a5.44,5.44,0,0,0,1,1.39.57.57,0,0,0,.23.15.59.59,0,0,0,.4-.07l0,.09Z"/><path class="cls-67" d="M56.86,40.44l-.06-.07a.65.65,0,0,0,.26-.32.5.5,0,0,0,0-.27,5,5,0,0,0-.7-1.58l.08-.06a5.41,5.41,0,0,1,.72,1.61.7.7,0,0,1,0,.32A.66.66,0,0,1,56.86,40.44Z"/><path class="cls-68" d="M54.13,39.65c-.57-.82-.66-1.41-.33-2a1.33,1.33,0,0,1,.72-.57,1.94,1.94,0,0,1,2,1.2l-.21.12a1.72,1.72,0,0,0-1.77-1.09,1,1,0,0,0-.57.46c-.28.48-.19,1,.32,1.71Z"/><circle class="cls-68" cx="55.88" cy="40.95" r="0.25"/><circle class="cls-68" cx="56.8" cy="40.42" r="0.25"/><path class="cls-68" d="M59.35,36.48A9,9,0,0,1,59,39L58.75,39a8.42,8.42,0,0,0,.37-2.48c0-1,0-1.86-.58-2.43a2,2,0,0,0-1.23-.56c0-.08,0-.15,0-.23a2.28,2.28,0,0,1,1.4.63A3.45,3.45,0,0,1,59.35,36.48Z"/><circle class="cls-69" cx="58.7" cy="39.34" r="0.69"/><circle class="cls-67" cx="58.7" cy="39.34" r="0.56"/><path class="cls-70" d="M54.27,37.37l-.22.05a1.24,1.24,0,0,0-.57-.66l0,0a6.22,6.22,0,0,1-1.59-1.2,2.14,2.14,0,0,1-.53-2,1.21,1.21,0,0,1,.26-.49,1.65,1.65,0,0,1,1.31-.42l-.16.23a1.28,1.28,0,0,0-1,.34,1,1,0,0,0-.22.4A2,2,0,0,0,52,35.39a6.2,6.2,0,0,0,1.53,1.15l.05,0A1.46,1.46,0,0,1,54.27,37.37Z"/><path class="cls-65" d="M50.68,48q2.87-1.37,5.82-2.53C54.59,46.4,52.64,47.24,50.68,48Z"/><path class="cls-65" d="M50.68,44.31a25.53,25.53,0,0,0,2.63-.54c.86-.3,1.69-.62,2.56-.88-.83.35-1.68.65-2.52,1a10.5,10.5,0,0,1-1.33.28C51.57,44.22,51.12,44.27,50.68,44.31Z"/><path class="cls-71" d="M57.44,53.19c0-.08,0-.14.09-.14l1.11,0h0a.13.13,0,0,0-.15-.13l-1.15,0a.13.13,0,0,0-.13.14l0,1.07a.14.14,0,0,0,.14.14l1.16,0a.15.15,0,0,0,.13-.15h-.32l-.79,0h0c-.06,0-.08-.07-.08-.14Z"/><rect class="cls-71" x="57.45" y="53.51" width="0.49" height="0.12" transform="matrix(1, -0.04, 0.04, 1, -1.96, 2.19)"/><path class="cls-48" d="M63.54,43.53a.17.17,0,0,0,0-.34.17.17,0,0,0,0,.34Z"/></g></g></g></svg>