<svg width="130" height="24" viewBox="0 0 130 24" fill="none" xmlns="http://www.w3.org/2000/svg">
<g clip-path="url(#clip0_2944_518)">
<path d="M14.3702 5.82941L8.61468 13.9242V21.2393C8.61468 21.6106 8.50329 21.9077 8.24336 22.1305C8.02057 22.3904 7.72351 22.5018 7.38932 22.5018C7.01799 22.5018 6.72094 22.3904 6.49814 22.1305C6.23822 21.8705 6.12682 21.5735 6.12682 21.2393V13.7014L0.371322 5.97793C0.111397 5.64374 0 5.34669 0 5.0125C0 4.64117 0.148529 4.34412 0.445587 4.12132C0.742645 3.8614 1.0397 3.75 1.37389 3.75C1.78235 3.75 2.11654 3.93566 2.4136 4.34412L7.42645 11.2878L12.2536 4.38125C12.5507 3.97279 12.8849 3.75 13.3305 3.75C13.6647 3.75 13.9617 3.8614 14.2217 4.12132C14.4816 4.38125 14.593 4.67831 14.593 5.0125C14.593 5.30955 14.5187 5.56948 14.3702 5.82941Z" fill="#FD9549"/>
<path d="M26.4381 19.2715C25.8068 20.3855 24.9528 21.2395 23.8759 21.8707C22.7991 22.502 21.6109 22.7991 20.3112 22.7991C19.0116 22.7991 17.8234 22.502 16.7465 21.8707C15.6697 21.2395 14.8157 20.3855 14.1844 19.2715C13.5532 18.1575 13.2561 16.9322 13.2561 15.5211C13.2561 14.1101 13.5532 12.8847 14.1844 11.7336C14.8157 10.6197 15.6697 9.7285 16.7465 9.09725C17.8234 8.466 19.0116 8.16895 20.3112 8.16895C21.6109 8.16895 22.7991 8.466 23.8759 9.09725C24.9528 9.7285 25.8068 10.5825 26.4381 11.7336C27.0693 12.8476 27.3664 14.1101 27.3664 15.5211C27.3664 16.9322 27.0693 18.1575 26.4381 19.2715ZM24.2473 12.959C23.8388 12.2164 23.3189 11.6222 22.6134 11.1767C21.9079 10.7311 21.1653 10.5454 20.3112 10.5454C19.4572 10.5454 18.7145 10.7682 18.009 11.1767C17.3407 11.5851 16.7837 12.1792 16.3752 12.959C15.9668 13.7388 15.7811 14.5928 15.7811 15.5211C15.7811 16.4494 15.9668 17.3035 16.3752 18.0461C16.7837 18.7888 17.3035 19.3829 18.009 19.7913C18.6774 20.1998 19.4572 20.4226 20.3112 20.4226C21.1653 20.4226 21.9079 20.1998 22.6134 19.7913C23.2818 19.3829 23.8388 18.7888 24.2473 18.0461C24.6557 17.3035 24.8414 16.4494 24.8414 15.5211C24.8414 14.5557 24.6557 13.7017 24.2473 12.959Z" fill="#FD9549"/>
<path d="M40.7339 8.91136C40.9567 9.17129 41.1052 9.46835 41.1052 9.80254V16.9319C41.1052 18.7885 40.5854 20.2367 39.5828 21.2393C38.5431 22.279 37.0949 22.7617 35.2383 22.7617C33.3817 22.7617 31.9336 22.2418 30.931 21.2393C29.9284 20.1996 29.4086 18.7885 29.4086 16.9319V9.80254C29.4086 9.43121 29.52 9.13416 29.7799 8.91136C30.0027 8.65144 30.3369 8.54004 30.6711 8.54004C31.0424 8.54004 31.3394 8.65144 31.5994 8.91136C31.8222 9.17129 31.9707 9.46835 31.9707 9.80254V16.9319C31.9707 19.2713 33.0847 20.4224 35.2755 20.4224C36.3523 20.4224 37.2063 20.1253 37.7633 19.5312C38.3203 18.9371 38.6174 18.083 38.6174 16.8948V9.80254C38.6174 9.43121 38.7288 9.13416 38.9887 8.91136C39.2115 8.65144 39.5457 8.54004 39.8799 8.54004C40.1769 8.54004 40.474 8.65144 40.7339 8.91136Z" fill="#FD9549"/>
<path d="M52.7278 8.57738C53.062 8.80017 53.2477 9.13436 53.2477 9.46855C53.2477 9.91414 53.1363 10.2112 52.9135 10.434C52.6907 10.6568 52.4307 10.7682 52.0966 10.7682C51.948 10.7682 51.6881 10.731 51.391 10.6197C51.0197 10.5083 50.7227 10.434 50.4999 10.434C49.9429 10.434 49.423 10.6197 48.8661 10.991C48.3091 11.3623 47.9006 11.8821 47.5664 12.5505C47.2322 13.2189 47.0837 13.9616 47.0837 14.7785V21.2395C47.0837 21.6108 46.9723 21.9079 46.7124 22.1306C46.4896 22.3906 46.1554 22.502 45.7841 22.502C45.4128 22.502 45.1157 22.3906 44.8929 22.1306C44.6701 21.9079 44.5587 21.5737 44.5587 21.2023V9.80274C44.5587 9.43142 44.6701 9.13436 44.93 8.91157C45.1528 8.65164 45.487 8.54024 45.8212 8.54024C46.1925 8.54024 46.4896 8.65164 46.7495 8.91157C46.9723 9.17149 47.1208 9.46855 47.1208 9.80274V11.1766C47.5293 10.2855 48.0863 9.57995 48.9032 9.0601C49.683 8.50311 50.5741 8.24319 51.5767 8.20605C51.9852 8.20605 52.3936 8.31745 52.7278 8.57738Z" fill="#FD9549"/>
<path d="M69.2142 5.97796C69.2142 6.31215 69.1028 6.60921 68.88 6.86913C68.6572 7.16619 68.3602 7.31472 67.9889 7.31472C67.7289 7.31472 67.5061 7.24045 67.2833 7.12906C66.1694 6.49781 64.9811 6.20075 63.7186 6.20075C62.3819 6.20075 61.1937 6.49781 60.1911 7.09193C59.1514 7.68604 58.3716 8.50295 57.8146 9.57979C57.2576 10.6566 56.9606 11.8449 56.9606 13.2187C56.9606 14.704 57.2576 15.9665 57.8518 17.0434C58.4459 18.1202 59.2628 18.9371 60.3025 19.4941C61.3422 20.0511 62.4933 20.3481 63.7929 20.3481C65.1297 20.3481 66.3179 20.0139 67.3576 19.3827C67.5804 19.2713 67.8032 19.2342 68.0631 19.2342C68.4716 19.2342 68.7686 19.3827 68.9914 19.6798C69.2142 19.9397 69.3256 20.2367 69.3256 20.5338C69.3256 20.7566 69.2514 20.9423 69.14 21.1279C69.0286 21.3136 68.88 21.4621 68.6572 21.5735C67.9517 21.982 67.1719 22.279 66.3179 22.5018C65.4639 22.7246 64.6098 22.836 63.7558 22.836C62.0106 22.836 60.451 22.4647 58.9657 21.6849C57.5176 20.9051 56.3665 19.7912 55.4753 18.343C54.5841 16.8948 54.1757 15.1868 54.1757 13.2187C54.1757 11.4364 54.5841 9.80258 55.401 8.35442C56.2179 6.90626 57.369 5.75516 58.8172 4.93825C60.2653 4.12135 61.8992 3.71289 63.6815 3.71289C65.4267 3.71289 67.0234 4.15848 68.5458 5.01252C68.9914 5.16105 69.2142 5.49524 69.2142 5.97796Z" fill="#287492"/>
<path d="M83.065 8.68877C83.2878 8.91157 83.4363 9.24576 83.4363 9.65421V21.2395C83.4363 21.6108 83.3249 21.9079 83.065 22.1306C82.8422 22.3906 82.508 22.502 82.1367 22.502C81.7654 22.502 81.4683 22.3906 81.2455 22.1306C81.0227 21.9079 80.9113 21.5737 80.9113 21.2023V20.4968C80.4657 21.1281 79.7973 21.6479 79.0176 22.0935C78.2007 22.5391 77.3466 22.7619 76.4183 22.7619C75.1929 22.7619 74.1161 22.4648 73.1135 21.8336C72.111 21.2023 71.3312 20.3483 70.7742 19.2343C70.2172 18.1204 69.9202 16.8579 69.9202 15.484C69.9202 14.1101 70.2172 12.8476 70.7742 11.7336C71.3312 10.6197 72.111 9.76561 73.0764 9.13436C74.0418 8.50311 75.1187 8.20605 76.3069 8.20605C77.2352 8.20605 78.1264 8.39172 78.9433 8.80017C79.7602 9.20863 80.3915 9.69134 80.8742 10.2855V9.65421C80.8742 9.28289 80.9856 8.98583 81.2084 8.72591C81.4312 8.46598 81.7282 8.35458 82.0996 8.35458C82.508 8.35458 82.8051 8.46598 83.065 8.68877ZM78.9062 19.8284C79.5746 19.3829 80.0573 18.8259 80.4286 18.0461C80.7999 17.3035 80.9856 16.4494 80.9856 15.5211C80.9856 14.5928 80.7999 13.7388 80.4286 12.9961C80.0573 12.2535 79.5374 11.6594 78.9062 11.2138C78.2378 10.7682 77.4951 10.5454 76.6782 10.5454C75.8613 10.5454 75.0816 10.7682 74.4503 11.1766C73.8191 11.5851 73.2992 12.1792 72.9279 12.959C72.5566 13.7016 72.3709 14.5557 72.3709 15.484C72.3709 16.4123 72.5566 17.2663 72.9279 18.009C73.2992 18.7516 73.8191 19.3457 74.4503 19.7913C75.0816 20.2369 75.8613 20.4226 76.6782 20.4226C77.4951 20.4226 78.2749 20.2369 78.9062 19.8284Z" fill="#287492"/>
<path d="M94.4641 8.57738C94.7983 8.80017 94.984 9.13436 94.984 9.46855C94.984 9.91414 94.8726 10.2112 94.6498 10.434C94.427 10.6568 94.1671 10.7682 93.8329 10.7682C93.6844 10.7682 93.4244 10.731 93.1274 10.6197C92.7561 10.5083 92.459 10.434 92.2362 10.434C91.6792 10.434 91.1594 10.6197 90.6024 10.991C90.0825 11.3623 89.6369 11.8821 89.3028 12.5505C88.9686 13.2189 88.82 13.9616 88.82 14.7785V21.2395C88.82 21.6108 88.7086 21.9079 88.4487 22.1306C88.2259 22.3906 87.8917 22.502 87.5204 22.502C87.1491 22.502 86.852 22.3906 86.6292 22.1306C86.4064 21.9079 86.295 21.5737 86.295 21.2023V9.80274C86.295 9.43142 86.4064 9.13436 86.6664 8.91157C86.8892 8.65164 87.2234 8.54024 87.5575 8.54024C87.9289 8.54024 88.2259 8.65164 88.4859 8.91157C88.7086 9.17149 88.8572 9.46855 88.8572 9.80274V11.1766C89.2656 10.2855 89.8226 9.57995 90.6395 9.0601C91.4193 8.50311 92.3105 8.24319 93.313 8.20605C93.7215 8.20605 94.1299 8.31745 94.4641 8.57738Z" fill="#287492"/>
<path d="M107.832 15.8181C107.572 16.0409 107.275 16.1523 106.941 16.1523H97.5467C97.6581 17.4519 98.1779 18.4916 99.032 19.2714C99.886 20.0512 100.963 20.4597 102.188 20.4597C103.042 20.4597 103.748 20.3483 104.268 20.0883C104.787 19.8284 105.27 19.5313 105.679 19.1229C105.939 18.9744 106.198 18.9001 106.458 18.9001C106.755 18.9001 107.015 19.0115 107.238 19.2343C107.461 19.4571 107.535 19.6799 107.535 19.9769C107.535 20.3483 107.35 20.6824 107.015 20.9795C106.496 21.4994 105.827 21.9449 104.973 22.2791C104.119 22.6133 103.228 22.799 102.337 22.799C100.889 22.799 99.6261 22.5019 98.5121 21.9078C97.3981 21.3137 96.5812 20.4597 95.9871 19.3828C95.393 18.306 95.0959 17.0806 95.0959 15.7067C95.0959 14.2214 95.393 12.8847 96.0243 11.7707C96.6555 10.6567 97.4353 9.76556 98.475 9.17145C99.4776 8.57733 100.554 8.28027 101.705 8.28027C102.857 8.28027 103.933 8.57733 104.899 9.17145C105.901 9.76556 106.681 10.5825 107.312 11.6222C107.907 12.6619 108.241 13.813 108.241 15.1126C108.204 15.3354 108.055 15.5953 107.832 15.8181ZM99.0691 11.3994C98.3264 11.9564 97.8437 12.8475 97.6209 13.9986H105.493V13.7758C105.419 12.8475 104.973 12.0678 104.23 11.4365C103.488 10.8424 102.597 10.5453 101.668 10.5453C100.666 10.5453 99.8117 10.8424 99.0691 11.3994Z" fill="#287492"/>
<path d="M129.295 6.75809L129.183 6.6467L127.401 5.56986V2.11656C127.401 1.44818 126.844 0.891197 126.176 0.891197H126.101C125.396 0.891197 124.876 1.44818 124.876 2.11656V4.04744L118.415 0.185684C118.415 0.185684 118.378 0.185684 118.341 0.148552C118.304 0.11142 118.266 0.11142 118.229 0.0742874C118.192 0.0742874 118.155 0.0371551 118.118 0.0371551C118.081 0.0371551 118.044 2.28733e-05 118.007 2.28733e-05C117.969 2.28733e-05 117.932 2.28733e-05 117.895 -0.0371094C117.858 -0.0371094 117.821 -0.0371094 117.784 -0.0371094C117.747 -0.0371094 117.709 -0.0371094 117.672 -0.0371094C117.635 -0.0371094 117.598 -0.0371094 117.524 2.28733e-05C117.487 2.28733e-05 117.45 2.28733e-05 117.412 0.0371551C117.375 0.0371551 117.338 0.0742874 117.301 0.0742874C117.264 0.0742874 117.227 0.11142 117.19 0.148552C117.153 0.148552 117.153 0.148552 117.115 0.185684L108.909 5.12427C108.278 5.4956 108.092 6.27537 108.464 6.90662C108.723 7.31508 109.132 7.53787 109.578 7.53787C109.8 7.53787 110.023 7.4636 110.246 7.35221L117.784 2.82207L127.438 8.61471V21.9823C127.438 22.6878 128.032 23.2819 128.738 23.2819C129.443 23.2819 130.037 22.6878 130.037 21.9823V8.46618C130 7.83493 129.74 7.20368 129.295 6.75809Z" fill="#287492"/>
<path d="M123.613 13.7389H119.009V9.17165C119.009 8.50327 118.452 7.94629 117.783 7.94629H117.709C117.041 7.94629 116.484 8.50327 116.484 9.17165V13.7389H111.879C111.211 13.7389 110.654 14.2959 110.654 14.9643V15.0385C110.654 15.7069 111.211 16.2639 111.879 16.2639H116.484V20.8683C116.484 21.5367 117.041 22.0937 117.709 22.0937H117.783C118.452 22.0937 119.009 21.5367 119.009 20.8683V16.301H123.613C124.282 16.301 124.839 15.7441 124.839 15.0757V15.0014C124.839 14.2959 124.282 13.7389 123.613 13.7389Z" fill="#FD9549"/>
</g>
<defs>
<clipPath id="clip0_2944_518">
<rect width="130" height="23.2819" fill="white"/>
</clipPath>
</defs>
</svg>
