<svg width="32" height="32" viewBox="0 0 32 32" fill="none" xmlns="http://www.w3.org/2000/svg">
<circle cx="16" cy="16" r="16" fill="#F6F8F9"/>
<mask id="path-2-outside-1_9834_1912" maskUnits="userSpaceOnUse" x="4.0703" y="4.07001" width="24.0416" height="24.0416" fill="black">
<rect fill="white" x="4.0703" y="4.07001" width="24.0416" height="24.0416"/>
<path fill-rule="evenodd" clip-rule="evenodd" d="M24.6267 9.07003L22.9296 7.37297L20.6545 8.76737C20.2717 9.00199 20.0922 9.46298 20.2156 9.89469L20.3212 10.2643L14.4431 16.1423C14.1648 16.1035 13.8726 16.1819 13.646 16.3801L8.3128 21.0467C7.49824 21.7594 7.45651 23.0126 8.22186 23.7779C8.98721 24.5433 10.2403 24.5015 10.9531 23.687L15.6197 18.3537C15.8179 18.1271 15.8963 17.8348 15.8574 17.5564L21.7354 11.6785L22.105 11.7841C22.5367 11.9074 22.9977 11.7279 23.2323 11.3451L24.6267 9.07003Z"/>
</mask>
<path fill-rule="evenodd" clip-rule="evenodd" d="M24.6267 9.07003L22.9296 7.37297L20.6545 8.76737C20.2717 9.00199 20.0922 9.46298 20.2156 9.89469L20.3212 10.2643L14.4431 16.1423C14.1648 16.1035 13.8726 16.1819 13.646 16.3801L8.3128 21.0467C7.49824 21.7594 7.45651 23.0126 8.22186 23.7779C8.98721 24.5433 10.2403 24.5015 10.9531 23.687L15.6197 18.3537C15.8179 18.1271 15.8963 17.8348 15.8574 17.5564L21.7354 11.6785L22.105 11.7841C22.5367 11.9074 22.9977 11.7279 23.2323 11.3451L24.6267 9.07003Z" fill="#287492"/>
<path d="M22.9296 7.37297L24.3438 5.95876L23.2289 4.8438L21.8845 5.66777L22.9296 7.37297ZM24.6267 9.07003L26.3319 10.1152L27.1558 8.77078L26.0409 7.65581L24.6267 9.07003ZM20.6545 8.76737L21.6997 10.4726L20.6545 8.76737ZM20.2156 9.89469L22.1386 9.34525V9.34525L20.2156 9.89469ZM20.3212 10.2643L21.7354 11.6785L22.5675 10.8463L22.2442 9.71481L20.3212 10.2643ZM14.4431 16.1423L14.167 18.1231L15.1532 18.2606L15.8573 17.5565L14.4431 16.1423ZM13.646 16.3801L14.9631 17.8853L13.646 16.3801ZM8.3128 21.0467L6.99579 19.5415L8.3128 21.0467ZM10.9531 23.687L12.4582 25.004L10.9531 23.687ZM15.6197 18.3537L17.1248 19.6707L15.6197 18.3537ZM15.8574 17.5564L14.4432 16.1422L13.7389 16.8465L13.8767 17.833L15.8574 17.5564ZM21.7354 11.6785L22.2848 9.75542L21.1533 9.43212L20.3212 10.2643L21.7354 11.6785ZM22.105 11.7841L21.5555 13.7071L22.105 11.7841ZM23.2323 11.3451L21.5271 10.3L21.5271 10.3L23.2323 11.3451ZM21.5154 8.78719L23.2125 10.4842L26.0409 7.65581L24.3438 5.95876L21.5154 8.78719ZM21.6997 10.4726L23.9747 9.07817L21.8845 5.66777L19.6094 7.06217L21.6997 10.4726ZM22.1386 9.34525C22.262 9.77696 22.0825 10.2379 21.6997 10.4726L19.6094 7.06217C18.461 7.76603 17.9225 9.14901 18.2925 10.4441L22.1386 9.34525ZM22.2442 9.71481L22.1386 9.34525L18.2925 10.4441L18.3981 10.8137L22.2442 9.71481ZM18.907 8.85004L13.0289 14.7281L15.8573 17.5565L21.7354 11.6785L18.907 8.85004ZM14.7193 14.1615C13.8884 14.0456 13.0092 14.2798 12.329 14.875L14.9631 17.8853C14.736 18.0839 14.4412 18.1614 14.167 18.1231L14.7193 14.1615ZM12.329 14.875L6.99579 19.5415L9.62981 22.5518L14.9631 17.8853L12.329 14.875ZM6.99579 19.5415C5.31055 21.0161 5.22423 23.6087 6.80765 25.1921L9.63607 22.3637C9.6888 22.4164 9.68592 22.5028 9.62981 22.5518L6.99579 19.5415ZM6.80765 25.1921C8.39107 26.7756 10.9837 26.6892 12.4582 25.004L9.44793 22.37C9.49703 22.3139 9.58335 22.311 9.63607 22.3637L6.80765 25.1921ZM12.4582 25.004L17.1248 19.6707L14.1145 17.0367L9.44793 22.37L12.4582 25.004ZM17.1248 19.6707C17.7201 18.9904 17.9543 18.1108 17.8382 17.2798L13.8767 17.833C13.8384 17.5588 13.9158 17.2639 14.1145 17.0367L17.1248 19.6707ZM17.2717 18.9706L23.1496 13.0927L20.3212 10.2643L14.4432 16.1422L17.2717 18.9706ZM22.6544 9.86101L22.2848 9.75542L21.1859 13.6015L21.5555 13.7071L22.6544 9.86101ZM21.5271 10.3C21.7617 9.91717 22.2227 9.73766 22.6544 9.86101L21.5555 13.7071C22.8506 14.0771 24.2336 13.5386 24.9375 12.3902L21.5271 10.3ZM22.9215 8.0249L21.5271 10.3L24.9375 12.3902L26.3319 10.1152L22.9215 8.0249Z" fill="#F6F8F9" mask="url(#path-2-outside-1_9834_1912)"/>
<mask id="path-4-outside-2_9834_1912" maskUnits="userSpaceOnUse" x="1.15091" y="1.15031" width="28.2843" height="28.2843" fill="black">
<rect fill="white" x="1.15091" y="1.15031" width="28.2843" height="28.2843"/>
<path fill-rule="evenodd" clip-rule="evenodd" d="M7.84359 13.4998C6.79667 12.4529 6.4514 10.9701 6.80777 9.63559L8.54977 11.3776C8.9403 11.7681 9.57346 11.7681 9.96399 11.3776L11.3782 9.96338C11.7687 9.57286 11.7687 8.9397 11.3782 8.54917L9.63619 6.80716C10.9707 6.45079 12.4535 6.79607 13.5004 7.84298C14.5474 8.8899 14.8926 10.3728 14.5363 11.7072L23.7783 20.9493C24.5594 21.7303 24.5594 22.9967 23.7783 23.7777C22.9973 24.5588 21.731 24.5588 20.9499 23.7777L11.7078 14.5357C10.3734 14.892 8.89051 14.5468 7.84359 13.4998Z"/>
</mask>
<path fill-rule="evenodd" clip-rule="evenodd" d="M7.84359 13.4998C6.79667 12.4529 6.4514 10.9701 6.80777 9.63559L8.54977 11.3776C8.9403 11.7681 9.57346 11.7681 9.96399 11.3776L11.3782 9.96338C11.7687 9.57286 11.7687 8.9397 11.3782 8.54917L9.63619 6.80716C10.9707 6.45079 12.4535 6.79607 13.5004 7.84298C14.5474 8.8899 14.8926 10.3728 14.5363 11.7072L23.7783 20.9493C24.5594 21.7303 24.5594 22.9967 23.7783 23.7777C22.9973 24.5588 21.731 24.5588 20.9499 23.7777L11.7078 14.5357C10.3734 14.892 8.89051 14.5468 7.84359 13.4998Z" fill="#287492"/>
<path d="M6.80777 9.63559L8.22198 8.22138L5.77012 5.76951L4.87548 9.11957L6.80777 9.63559ZM8.54977 11.3776L7.13556 12.7918L8.54977 11.3776ZM9.96399 11.3776L8.54977 9.96338L9.96399 11.3776ZM11.3782 9.96338L12.7924 11.3776L11.3782 9.96338ZM11.3782 8.54917L12.7924 7.13496L11.3782 8.54917ZM9.63619 6.80716L9.12018 4.87488L5.77012 5.76952L8.22198 8.22138L9.63619 6.80716ZM14.5363 11.7072L12.604 11.1912L12.3063 12.3057L13.1221 13.1214L14.5363 11.7072ZM23.7783 20.9493L22.3641 22.3635L23.7783 20.9493ZM20.9499 23.7777L22.3641 22.3635L20.9499 23.7777ZM11.7078 14.5357L13.122 13.1214L12.3063 12.3057L11.1918 12.6034L11.7078 14.5357ZM4.87548 9.11957C4.34248 11.1154 4.85722 13.3419 6.42938 14.9141L9.2578 12.0856C8.73612 11.5639 8.56031 10.8247 8.74005 10.1516L4.87548 9.11957ZM9.96399 9.96338L8.22198 8.22138L5.39355 11.0498L7.13556 12.7918L9.96399 9.96338ZM8.54977 9.96338C8.9403 9.57286 9.57346 9.57286 9.96399 9.96338L7.13556 12.7918C8.30713 13.9634 10.2066 13.9634 11.3782 12.7918L8.54977 9.96338ZM9.96399 8.54917L8.54977 9.96338L11.3782 12.7918L12.7924 11.3776L9.96399 8.54917ZM9.96399 9.96338C9.57346 9.57286 9.57346 8.93969 9.96399 8.54917L12.7924 11.3776C13.964 10.206 13.964 8.30653 12.7924 7.13496L9.96399 9.96338ZM8.22198 8.22138L9.96399 9.96338L12.7924 7.13496L11.0504 5.39295L8.22198 8.22138ZM14.9147 6.42877C13.3425 4.85661 11.1161 4.34188 9.12018 4.87488L10.1522 8.73945C10.8253 8.55971 11.5646 8.73552 12.0862 9.2572L14.9147 6.42877ZM16.4685 12.2232C17.0015 10.2274 16.4868 8.00093 14.9147 6.42877L12.0862 9.2572C12.6079 9.77888 12.7837 10.5182 12.604 11.1912L16.4685 12.2232ZM13.1221 13.1214L22.3641 22.3635L25.1925 19.5351L15.9505 10.293L13.1221 13.1214ZM22.3641 22.3635L22.3641 22.3635L25.1925 25.1919C26.7546 23.6298 26.7546 21.0972 25.1925 19.5351L22.3641 22.3635ZM22.3641 22.3635L22.3641 22.3635L19.5357 25.1919C21.0978 26.754 23.6304 26.754 25.1925 25.1919L22.3641 22.3635ZM22.3641 22.3635L13.122 13.1214L10.2936 15.9499L19.5357 25.1919L22.3641 22.3635ZM6.42938 14.9141C8.00153 16.4862 10.228 17.0009 12.2239 16.4679L11.1918 12.6034C10.5188 12.7831 9.77948 12.6073 9.2578 12.0856L6.42938 14.9141Z" fill="#F6F8F9" mask="url(#path-4-outside-2_9834_1912)"/>
</svg>
